EncodeSans-Thin.ufo
<glyph name="exclam" format="2">
  <advance width="446"/>
  <unicode hex="0021"/>
  <outline>
    <contour>
      <point x="199" y="316" type="line"/>
      <point x="247" y="316" type="line"/>
      <point x="259" y="890" type="line"/>
      <point x="259" y="1480" type="line"/>
      <point x="187" y="1480" type="line"/>
      <point x="187" y="890" type="line"/>
    </contour>
    <contour>
      <point x="223" y="-10" type="curve" smooth="yes"/>
      <point x="259" y="-10"/>
      <point x="285" y="14"/>
      <point x="285" y="52" type="curve" smooth="yes"/>
      <point x="285" y="90"/>
      <point x="259" y="116"/>
      <point x="223" y="116" type="curve" smooth="yes"/>
      <point x="187" y="116"/>
      <point x="161" y="90"/>
      <point x="161" y="52" type="curve" smooth="yes"/>
      <point x="161" y="14"/>
      <point x="187" y="-10"/>
    </contour>
  </outline>
</glyph>
<glyph name="numbersign" format="2">
  <advance width="1100"/>
  <unicode hex="0023"/>
  <outline>
    <contour>
      <point x="617" y="0" type="line"/>
      <point x="683" y="0" type="line"/>
      <point x="837" y="1480" type="line"/>
      <point x="771" y="1480" type="line"/>
    </contour>
    <contour>
      <point x="100" y="494" type="line"/>
      <point x="1000" y="494" type="line"/>
      <point x="1000" y="560" type="line"/>
      <point x="100" y="560" type="line"/>
    </contour>
    <contour>
      <point x="263" y="0" type="line"/>
      <point x="329" y="0" type="line"/>
      <point x="483" y="1480" type="line"/>
      <point x="417" y="1480" type="line"/>
    </contour>
    <contour>
      <point x="100" y="920" type="line"/>
      <point x="1000" y="920" type="line"/>
      <point x="1000" y="986" type="line"/>
      <point x="100" y="986" type="line"/>
    </contour>
  </outline>
</glyph>
<glyph name="percent" format="2">
  <advance width="1703"/>
  <unicode hex="0025"/>
  <note>
450
</note>
  <outline>
    <contour>
      <point x="495" y="0" type="line"/>
      <point x="566" y="0" type="line"/>
      <point x="1208" y="1480" type="line"/>
      <point x="1137" y="1480" type="line"/>
    </contour>
    <contour>
      <point x="421" y="578" type="curve" smooth="yes"/>
      <point x="599" y="578"/>
      <point x="726" y="700"/>
      <point x="726" y="1038" type="curve" smooth="yes"/>
      <point x="726" y="1376"/>
      <point x="602" y="1498"/>
      <point x="421" y="1498" type="curve" smooth="yes"/>
      <point x="240" y="1498"/>
      <point x="116" y="1376"/>
      <point x="116" y="1038" type="curve" smooth="yes"/>
      <point x="116" y="700"/>
      <point x="243" y="578"/>
    </contour>
    <contour>
      <point x="421" y="641" type="curve" smooth="yes"/>
      <point x="279" y="641"/>
      <point x="183" y="741"/>
      <point x="183" y="1040" type="curve" smooth="yes"/>
      <point x="183" y="1337"/>
      <point x="279" y="1435"/>
      <point x="421" y="1435" type="curve" smooth="yes"/>
      <point x="562" y="1435"/>
      <point x="659" y="1337"/>
      <point x="659" y="1036" type="curve" smooth="yes"/>
      <point x="659" y="737"/>
      <point x="562" y="641"/>
    </contour>
    <contour>
      <point x="1282" y="-18" type="curve" smooth="yes"/>
      <point x="1461" y="-18"/>
      <point x="1587" y="104"/>
      <point x="1587" y="442" type="curve" smooth="yes"/>
      <point x="1587" y="780"/>
      <point x="1462" y="902"/>
      <point x="1282" y="902" type="curve" smooth="yes"/>
      <point x="1102" y="902"/>
      <point x="977" y="780"/>
      <point x="977" y="442" type="curve" smooth="yes"/>
      <point x="977" y="104"/>
      <point x="1103" y="-18"/>
    </contour>
    <contour>
      <point x="1282" y="45" type="curve" smooth="yes"/>
      <point x="1141" y="45"/>
      <point x="1044" y="145"/>
      <point x="1044" y="444" type="curve" smooth="yes"/>
      <point x="1044" y="741"/>
      <point x="1141" y="839"/>
      <point x="1282" y="839" type="curve" smooth="yes"/>
      <point x="1423" y="839"/>
      <point x="1520" y="741"/>
      <point x="1520" y="440" type="curve" smooth="yes"/>
      <point x="1520" y="141"/>
      <point x="1423" y="45"/>
    </contour>
  </outline>
</glyph>
<glyph name="ampersand" format="2">
  <advance width="1434"/>
  <unicode hex="0026"/>
  <outline>
    <contour>
      <point x="1393" y="-20" type="line"/>
      <point x="1434" y="32" type="line"/>
      <point x="684" y="645" type="line" smooth="yes"/>
      <point x="448" y="837"/>
      <point x="393" y="940"/>
      <point x="393" y="1095" type="curve" smooth="yes"/>
      <point x="393" y="1313"/>
      <point x="516" y="1432"/>
      <point x="791" y="1432" type="curve" smooth="yes"/>
      <point x="875" y="1432"/>
      <point x="949" y="1423"/>
      <point x="1026" y="1401" type="curve"/>
      <point x="1026" y="1469" type="line"/>
      <point x="960" y="1487"/>
      <point x="881" y="1498"/>
      <point x="794" y="1498" type="curve" smooth="yes"/>
      <point x="477" y="1498"/>
      <point x="321" y="1352"/>
      <point x="321" y="1094" type="curve" smooth="yes"/>
      <point x="321" y="916"/>
      <point x="398" y="793"/>
      <point x="643" y="593" type="curve" smooth="yes"/>
    </contour>
    <contour>
      <point x="669" y="-18" type="curve" smooth="yes"/>
      <point x="1005" y="-18"/>
      <point x="1200" y="155"/>
      <point x="1200" y="481" type="curve" smooth="yes"/>
      <point x="1200" y="572"/>
      <point x="1187" y="670"/>
      <point x="1158" y="760" type="curve"/>
      <point x="1088" y="760" type="line"/>
      <point x="1118" y="670"/>
      <point x="1134" y="570"/>
      <point x="1134" y="481" type="curve" smooth="yes"/>
      <point x="1134" y="185"/>
      <point x="965" y="48"/>
      <point x="671" y="48" type="curve" smooth="yes"/>
      <point x="364" y="48"/>
      <point x="229" y="195"/>
      <point x="229" y="408" type="curve" smooth="yes"/>
      <point x="229" y="569"/>
      <point x="306" y="689"/>
      <point x="468" y="763" type="curve"/>
      <point x="430" y="820" type="line"/>
      <point x="252" y="735"/>
      <point x="157" y="590"/>
      <point x="157" y="402" type="curve" smooth="yes"/>
      <point x="157" y="154"/>
      <point x="329" y="-18"/>
    </contour>
  </outline>
</glyph>
<glyph name="quotesingle" format="2">
  <advance width="386"/>
  <unicode hex="0027"/>
  <outline>
    <contour>
      <point x="173" y="956" type="line"/>
      <point x="213" y="956" type="line"/>
      <point x="233" y="1616" type="line"/>
      <point x="153" y="1616" type="line"/>
    </contour>
  </outline>
</glyph>
<glyph name="parenleft" format="2">
  <advance width="626"/>
  <unicode hex="0028"/>
  <outline>
    <contour>
      <point x="479" y="-440" type="curve"/>
      <point x="558" y="-440" type="line"/>
      <point x="312" y="-128"/>
      <point x="210" y="218"/>
      <point x="210" y="588" type="curve" smooth="yes"/>
      <point x="210" y="958"/>
      <point x="312" y="1304"/>
      <point x="558" y="1616" type="curve"/>
      <point x="479" y="1616" type="line"/>
      <point x="242" y="1314"/>
      <point x="138" y="964"/>
      <point x="138" y="588" type="curve" smooth="yes"/>
      <point x="138" y="212"/>
      <point x="242" y="-138"/>
    </contour>
  </outline>
</glyph>
<glyph name="parenright" format="2">
  <advance width="626"/>
  <unicode hex="0029"/>
  <outline>
    <contour>
      <point x="68" y="-440" type="curve"/>
      <point x="147" y="-440" type="line"/>
      <point x="384" y="-138"/>
      <point x="488" y="212"/>
      <point x="488" y="588" type="curve" smooth="yes"/>
      <point x="488" y="964"/>
      <point x="384" y="1314"/>
      <point x="147" y="1616" type="curve"/>
      <point x="68" y="1616" type="line"/>
      <point x="314" y="1304"/>
      <point x="416" y="958"/>
      <point x="416" y="588" type="curve" smooth="yes"/>
      <point x="416" y="218"/>
      <point x="314" y="-128"/>
    </contour>
  </outline>
</glyph>
<glyph name="asterisk" format="2">
  <advance width="868"/>
  <unicode hex="002A"/>
  <outline>
    <contour>
      <point x="460" y="1208" type="line"/>
      <point x="658" y="1256" type="line"/>
      <point x="838" y="1314" type="line"/>
      <point x="818" y="1374" type="line"/>
      <point x="640" y="1316" type="line"/>
      <point x="450" y="1238" type="line"/>
      <point x="466" y="1442" type="line"/>
      <point x="466" y="1616" type="line"/>
      <point x="402" y="1616" type="line"/>
      <point x="402" y="1442" type="line"/>
      <point x="418" y="1238" type="line"/>
      <point x="228" y="1316" type="line"/>
      <point x="50" y="1374" type="line"/>
      <point x="30" y="1314" type="line"/>
      <point x="210" y="1256" type="line"/>
      <point x="408" y="1208" type="line"/>
      <point x="276" y="1052" type="line"/>
      <point x="169" y="907" type="line"/>
      <point x="221" y="869" type="line"/>
      <point x="328" y="1014" type="line"/>
      <point x="434" y="1188" type="line"/>
      <point x="540" y="1014" type="line"/>
      <point x="647" y="869" type="line"/>
      <point x="699" y="907" type="line"/>
      <point x="592" y="1052" type="line"/>
    </contour>
  </outline>
</glyph>
<glyph name="plus" format="2">
  <advance width="1062"/>
  <unicode hex="002B"/>
  <outline>
    <contour>
      <point x="497" y="378" type="line"/>
      <point x="565" y="378" type="line"/>
      <point x="565" y="728" type="line"/>
      <point x="895" y="728" type="line"/>
      <point x="895" y="792" type="line"/>
      <point x="565" y="792" type="line"/>
      <point x="565" y="1142" type="line"/>
      <point x="497" y="1142" type="line"/>
      <point x="497" y="792" type="line"/>
      <point x="167" y="792" type="line"/>
      <point x="167" y="728" type="line"/>
      <point x="497" y="728" type="line"/>
    </contour>
  </outline>
</glyph>
<glyph name="comma" format="2">
  <advance width="406"/>
  <unicode hex="002C"/>
  <outline>
    <contour>
      <point x="153" y="-300" type="curve"/>
      <point x="197" y="-300" type="line"/>
      <point x="235" y="-206"/>
      <point x="265" y="-92"/>
      <point x="265" y="32" type="curve" smooth="yes"/>
      <point x="265" y="92"/>
      <point x="239" y="116"/>
      <point x="201" y="116" type="curve" smooth="yes"/>
      <point x="165" y="116"/>
      <point x="141" y="90"/>
      <point x="141" y="54" type="curve" smooth="yes"/>
      <point x="141" y="16"/>
      <point x="167" y="-10"/>
      <point x="203" y="-10" type="curve" smooth="yes"/>
      <point x="215" y="-10" type="line"/>
      <point x="211" y="12" type="line"/>
      <point x="211" y="-90"/>
      <point x="189" y="-186"/>
    </contour>
  </outline>
</glyph>
<glyph name="hyphen" format="2">
  <advance width="798"/>
  <unicode hex="002D"/>
  <outline>
    <contour>
      <point x="167" y="528" type="line"/>
      <point x="631" y="528" type="line"/>
      <point x="631" y="592" type="line"/>
      <point x="167" y="592" type="line"/>
    </contour>
  </outline>
</glyph>
<glyph name="period" format="2">
  <advance width="406"/>
  <unicode hex="002E"/>
  <outline>
    <contour>
      <point x="203" y="-10" type="curve" smooth="yes"/>
      <point x="239" y="-10"/>
      <point x="265" y="14"/>
      <point x="265" y="52" type="curve" smooth="yes"/>
      <point x="265" y="90"/>
      <point x="239" y="116"/>
      <point x="203" y="116" type="curve" smooth="yes"/>
      <point x="167" y="116"/>
      <point x="141" y="90"/>
      <point x="141" y="52" type="curve" smooth="yes"/>
      <point x="141" y="14"/>
      <point x="167" y="-10"/>
    </contour>
  </outline>
</glyph>
<glyph name="slash" format="2">
  <advance width="517"/>
  <unicode hex="002F"/>
  <outline>
    <contour>
      <point x="0" y="-240" type="line"/>
      <point x="69" y="-240" type="line"/>
      <point x="517" y="1616" type="line"/>
      <point x="448" y="1616" type="line"/>
    </contour>
  </outline>
</glyph>
<glyph name="zero" format="2">
  <advance width="1198"/>
  <unicode hex="0030"/>
  <note>
600
</note>
  <outline>
    <contour>
      <point x="599" y="-18" type="curve" smooth="yes"/>
      <point x="884" y="-18"/>
      <point x="1070" y="178"/>
      <point x="1070" y="740" type="curve" smooth="yes"/>
      <point x="1070" y="1302"/>
      <point x="888" y="1498"/>
      <point x="599" y="1498" type="curve" smooth="yes"/>
      <point x="310" y="1498"/>
      <point x="128" y="1302"/>
      <point x="128" y="740" type="curve" smooth="yes"/>
      <point x="128" y="178"/>
      <point x="314" y="-18"/>
    </contour>
    <contour>
      <point x="599" y="48" type="curve" smooth="yes"/>
      <point x="359" y="48"/>
      <point x="200" y="206"/>
      <point x="200" y="744" type="curve" smooth="yes"/>
      <point x="200" y="1274"/>
      <point x="359" y="1432"/>
      <point x="599" y="1432" type="curve" smooth="yes"/>
      <point x="839" y="1432"/>
      <point x="998" y="1274"/>
      <point x="998" y="736" type="curve" smooth="yes"/>
      <point x="998" y="206"/>
      <point x="839" y="48"/>
    </contour>
  </outline>
</glyph>
<glyph name="one" format="2">
  <advance width="673"/>
  <unicode hex="0031"/>
  <outline>
    <contour>
      <point x="405" y="0" type="line"/>
      <point x="473" y="0" type="line"/>
      <point x="473" y="1484" type="line"/>
      <point x="431" y="1484" type="line"/>
      <point x="23" y="1183" type="line"/>
      <point x="23" y="1106" type="line"/>
      <point x="431" y="1405" type="line"/>
      <point x="405" y="1402" type="line"/>
    </contour>
  </outline>
</glyph>
<glyph name="two" format="2">
  <advance width="936"/>
  <unicode hex="0032"/>
  <outline>
    <contour>
      <point x="67" y="0" type="line"/>
      <point x="866" y="0" type="line"/>
      <point x="866" y="64" type="line"/>
      <point x="130" y="64" type="line"/>
      <point x="146" y="40" type="line"/>
      <point x="549" y="591" type="line" smooth="yes"/>
      <point x="722" y="825"/>
      <point x="781" y="960"/>
      <point x="781" y="1123" type="curve" smooth="yes"/>
      <point x="781" y="1384"/>
      <point x="628" y="1498"/>
      <point x="368" y="1498" type="curve" smooth="yes"/>
      <point x="249" y="1498"/>
      <point x="134" y="1477"/>
      <point x="50" y="1441" type="curve"/>
      <point x="50" y="1373" type="line"/>
      <point x="150" y="1413"/>
      <point x="252" y="1432"/>
      <point x="368" y="1432" type="curve" smooth="yes"/>
      <point x="591" y="1432"/>
      <point x="711" y="1344"/>
      <point x="711" y="1121" type="curve" smooth="yes"/>
      <point x="711" y="979"/>
      <point x="654" y="845"/>
      <point x="499" y="635" type="curve" smooth="yes"/>
      <point x="67" y="40" type="line"/>
    </contour>
  </outline>
</glyph>
<glyph name="three" format="2">
  <advance width="969"/>
  <unicode hex="0033"/>
  <outline>
    <contour>
      <point x="398" y="-18" type="curve" smooth="yes"/>
      <point x="721" y="-18"/>
      <point x="891" y="133"/>
      <point x="891" y="393" type="curve" smooth="yes"/>
      <point x="891" y="612"/>
      <point x="754" y="751"/>
      <point x="497" y="782" type="curve"/>
      <point x="496" y="756" type="line"/>
      <point x="711" y="799"/>
      <point x="842" y="937"/>
      <point x="842" y="1135" type="curve" smooth="yes"/>
      <point x="842" y="1365"/>
      <point x="689" y="1498"/>
      <point x="416" y="1498" type="curve" smooth="yes"/>
      <point x="303" y="1498"/>
      <point x="189" y="1479"/>
      <point x="97" y="1444" type="curve"/>
      <point x="97" y="1376" type="line"/>
      <point x="203" y="1415"/>
      <point x="306" y="1432"/>
      <point x="416" y="1432" type="curve" smooth="yes"/>
      <point x="647" y="1432"/>
      <point x="772" y="1328"/>
      <point x="772" y="1135" type="curve" smooth="yes"/>
      <point x="772" y="915"/>
      <point x="610" y="794"/>
      <point x="314" y="794" type="curve" smooth="yes"/>
      <point x="259" y="794" type="line"/>
      <point x="259" y="728" type="line"/>
      <point x="413" y="728" type="line" smooth="yes"/>
      <point x="690" y="728"/>
      <point x="821" y="602"/>
      <point x="821" y="393" type="curve" smooth="yes"/>
      <point x="821" y="168"/>
      <point x="676" y="48"/>
      <point x="399" y="48" type="curve" smooth="yes"/>
      <point x="291" y="48"/>
      <point x="172" y="68"/>
      <point x="57" y="109" type="curve"/>
      <point x="57" y="41" type="line"/>
      <point x="162" y="2"/>
      <point x="282" y="-18"/>
    </contour>
  </outline>
</glyph>
<glyph name="four" format="2">
  <advance width="1128"/>
  <unicode hex="0034"/>
  <outline>
    <contour>
      <point x="54" y="384" type="line"/>
      <point x="1082" y="384" type="line"/>
      <point x="1082" y="448" type="line"/>
      <point x="112" y="448" type="line"/>
      <point x="128" y="422" type="line"/>
      <point x="738" y="1480" type="line"/>
      <point x="662" y="1480" type="line"/>
      <point x="54" y="424" type="line"/>
    </contour>
    <contour>
      <point x="794" y="0" type="line"/>
      <point x="862" y="0" type="line"/>
      <point x="862" y="980" type="line"/>
      <point x="808" y="980" type="line"/>
      <point x="794" y="448" type="line"/>
    </contour>
  </outline>
</glyph>
<glyph name="five" format="2">
  <advance width="978"/>
  <unicode hex="0035"/>
  <outline>
    <contour>
      <point x="425" y="-18" type="curve" smooth="yes"/>
      <point x="746" y="-18"/>
      <point x="917" y="130"/>
      <point x="917" y="405" type="curve" smooth="yes"/>
      <point x="917" y="669"/>
      <point x="746" y="803"/>
      <point x="345" y="827" type="curve" smooth="yes"/>
      <point x="160" y="838" type="line"/>
      <point x="212" y="792" type="line"/>
      <point x="257" y="1440" type="line"/>
      <point x="222" y="1416" type="line"/>
      <point x="855" y="1416" type="line"/>
      <point x="855" y="1480" type="line"/>
      <point x="192" y="1480" type="line"/>
      <point x="143" y="772" type="line"/>
      <point x="328" y="761" type="line" smooth="yes"/>
      <point x="704" y="739"/>
      <point x="847" y="632"/>
      <point x="847" y="404" type="curve" smooth="yes"/>
      <point x="847" y="167"/>
      <point x="705" y="48"/>
      <point x="427" y="48" type="curve" smooth="yes"/>
      <point x="314" y="48"/>
      <point x="195" y="69"/>
      <point x="83" y="109" type="curve"/>
      <point x="83" y="41" type="line"/>
      <point x="185" y="3"/>
      <point x="307" y="-18"/>
    </contour>
  </outline>
</glyph>
<glyph name="six" format="2">
  <advance width="1093"/>
  <unicode hex="0036"/>
  <outline>
    <contour>
      <point x="618" y="-18" type="curve" smooth="yes"/>
      <point x="851" y="-18"/>
      <point x="1029" y="119"/>
      <point x="1029" y="405" type="curve" smooth="yes"/>
      <point x="1029" y="689"/>
      <point x="849" y="828"/>
      <point x="582" y="828" type="curve" smooth="yes"/>
      <point x="429" y="828"/>
      <point x="275" y="772"/>
      <point x="187" y="680" type="curve"/>
      <point x="187" y="597" type="line"/>
      <point x="280" y="715"/>
      <point x="446" y="762"/>
      <point x="578" y="762" type="curve" smooth="yes"/>
      <point x="809" y="762"/>
      <point x="959" y="653"/>
      <point x="959" y="402" type="curve" smooth="yes"/>
      <point x="959" y="153"/>
      <point x="812" y="48"/>
      <point x="619" y="48" type="curve" smooth="yes"/>
      <point x="372" y="48"/>
      <point x="209" y="202"/>
      <point x="209" y="692" type="curve" smooth="yes"/>
      <point x="209" y="704" type="line" smooth="yes"/>
      <point x="209" y="1223"/>
      <point x="384" y="1432"/>
      <point x="713" y="1432" type="curve" smooth="yes"/>
      <point x="795" y="1432"/>
      <point x="890" y="1419"/>
      <point x="965" y="1387" type="curve"/>
      <point x="965" y="1455" type="line"/>
      <point x="891" y="1486"/>
      <point x="799" y="1498"/>
      <point x="714" y="1498" type="curve" smooth="yes"/>
      <point x="342" y="1498"/>
      <point x="139" y="1258"/>
      <point x="139" y="692" type="curve" smooth="yes"/>
      <point x="139" y="164"/>
      <point x="332" y="-18"/>
    </contour>
  </outline>
</glyph>
<glyph name="seven" format="2">
  <advance width="892"/>
  <unicode hex="0037"/>
  <outline>
    <contour>
      <point x="180" y="0" type="line"/>
      <point x="253" y="0" type="line"/>
      <point x="833" y="1440" type="line"/>
      <point x="833" y="1480" type="line"/>
      <point x="12" y="1480" type="line"/>
      <point x="12" y="1416" type="line"/>
      <point x="775" y="1416" type="line"/>
      <point x="762" y="1442" type="line"/>
    </contour>
  </outline>
</glyph>
<glyph name="eight" format="2">
  <advance width="1198"/>
  <unicode hex="0038"/>
  <outline>
    <contour>
      <point x="610" y="-18" type="curve" smooth="yes"/>
      <point x="912" y="-18"/>
      <point x="1088" y="132"/>
      <point x="1088" y="367" type="curve" smooth="yes"/>
      <point x="1088" y="578"/>
      <point x="961" y="697"/>
      <point x="631" y="774" type="curve" smooth="yes"/>
      <point x="331" y="843"/>
      <point x="233" y="943"/>
      <point x="233" y="1129" type="curve" smooth="yes"/>
      <point x="233" y="1317"/>
      <point x="358" y="1432"/>
      <point x="593" y="1432" type="curve" smooth="yes"/>
      <point x="828" y="1432"/>
      <point x="968" y="1325"/>
      <point x="968" y="1125" type="curve" smooth="yes"/>
      <point x="968" y="946"/>
      <point x="879" y="841"/>
      <point x="673" y="758" type="curve"/>
      <point x="741" y="727" type="line"/>
      <point x="929" y="802"/>
      <point x="1036" y="937"/>
      <point x="1036" y="1126" type="curve" smooth="yes"/>
      <point x="1036" y="1356"/>
      <point x="869" y="1498"/>
      <point x="594" y="1498" type="curve" smooth="yes"/>
      <point x="326" y="1498"/>
      <point x="161" y="1356"/>
      <point x="161" y="1127" type="curve" smooth="yes"/>
      <point x="161" y="910"/>
      <point x="289" y="784"/>
      <point x="620" y="707" type="curve" smooth="yes"/>
      <point x="912" y="638"/>
      <point x="1016" y="550"/>
      <point x="1016" y="362" type="curve" smooth="yes"/>
      <point x="1016" y="161"/>
      <point x="869" y="48"/>
      <point x="611" y="48" type="curve" smooth="yes"/>
      <point x="328" y="48"/>
      <point x="181" y="163"/>
      <point x="181" y="374" type="curve" smooth="yes"/>
      <point x="181" y="557"/>
      <point x="296" y="696"/>
      <point x="500" y="753" type="curve"/>
      <point x="429" y="786" type="line"/>
      <point x="232" y="720"/>
      <point x="110" y="572"/>
      <point x="110" y="372" type="curve" smooth="yes"/>
      <point x="110" y="121"/>
      <point x="290" y="-18"/>
    </contour>
  </outline>
</glyph>
<glyph name="less" format="2">
  <advance width="1062"/>
  <unicode hex="003C"/>
  <outline>
    <contour>
      <point x="895" y="406" type="line"/>
      <point x="895" y="478" type="line"/>
      <point x="231" y="772" type="line"/>
      <point x="231" y="748" type="line"/>
      <point x="895" y="1042" type="line"/>
      <point x="895" y="1114" type="line"/>
      <point x="167" y="786" type="line"/>
      <point x="167" y="734" type="line"/>
    </contour>
  </outline>
</glyph>
<glyph name="equal" format="2">
  <advance width="1062"/>
  <unicode hex="003D"/>
  <outline>
    <contour>
      <point x="167" y="910" type="line"/>
      <point x="895" y="910" type="line"/>
      <point x="895" y="974" type="line"/>
      <point x="167" y="974" type="line"/>
    </contour>
    <contour>
      <point x="167" y="546" type="line"/>
      <point x="895" y="546" type="line"/>
      <point x="895" y="610" type="line"/>
      <point x="167" y="610" type="line"/>
    </contour>
  </outline>
</glyph>
<glyph name="greater" format="2">
  <advance width="1062"/>
  <unicode hex="003E"/>
  <outline>
    <contour>
      <point x="167" y="406" type="line"/>
      <point x="895" y="734" type="line"/>
      <point x="895" y="786" type="line"/>
      <point x="167" y="1114" type="line"/>
      <point x="167" y="1042" type="line"/>
      <point x="831" y="748" type="line"/>
      <point x="831" y="772" type="line"/>
      <point x="167" y="478" type="line"/>
    </contour>
  </outline>
</glyph>
<glyph name="question" format="2">
  <advance width="853"/>
  <unicode hex="003F"/>
  <outline>
    <contour>
      <point x="360" y="300" type="line"/>
      <point x="408" y="300" type="line"/>
      <point x="418" y="685" type="line"/>
      <point x="699" y="800"/>
      <point x="789" y="925"/>
      <point x="789" y="1135" type="curve" smooth="yes"/>
      <point x="789" y="1365"/>
      <point x="636" y="1498"/>
      <point x="363" y="1498" type="curve" smooth="yes"/>
      <point x="250" y="1498"/>
      <point x="136" y="1479"/>
      <point x="44" y="1444" type="curve"/>
      <point x="44" y="1376" type="line"/>
      <point x="150" y="1415"/>
      <point x="253" y="1432"/>
      <point x="362" y="1432" type="curve" smooth="yes"/>
      <point x="594" y="1432"/>
      <point x="719" y="1328"/>
      <point x="719" y="1135" type="curve" smooth="yes"/>
      <point x="719" y="944"/>
      <point x="626" y="831"/>
      <point x="348" y="730" type="curve"/>
    </contour>
    <contour>
      <point x="384" y="-10" type="curve" smooth="yes"/>
      <point x="422" y="-10"/>
      <point x="446" y="16"/>
      <point x="446" y="52" type="curve" smooth="yes"/>
      <point x="446" y="90"/>
      <point x="420" y="116"/>
      <point x="384" y="116" type="curve" smooth="yes"/>
      <point x="348" y="116"/>
      <point x="322" y="90"/>
      <point x="322" y="52" type="curve" smooth="yes"/>
      <point x="322" y="16"/>
      <point x="348" y="-10"/>
    </contour>
  </outline>
</glyph>
<glyph name="at" format="2">
  <advance width="1815"/>
  <unicode hex="0040"/>
  <outline>
    <contour>
      <point x="955" y="-460" type="curve" smooth="yes"/>
      <point x="1085" y="-460"/>
      <point x="1213" y="-438"/>
      <point x="1318" y="-404" type="curve"/>
      <point x="1318" y="-336" type="line"/>
      <point x="1192" y="-375"/>
      <point x="1080" y="-394"/>
      <point x="955" y="-394" type="curve" smooth="yes"/>
      <point x="455" y="-394"/>
      <point x="190" y="-137"/>
      <point x="190" y="524" type="curve" smooth="yes"/>
      <point x="190" y="1171"/>
      <point x="453" y="1432"/>
      <point x="913" y="1432" type="curve" smooth="yes"/>
      <point x="1380" y="1432"/>
      <point x="1629" y="1176.5"/>
      <point x="1629" y="565" type="curve" smooth="yes"/>
      <point x="1629" y="181"/>
      <point x="1517" y="48"/>
      <point x="1399" y="48" type="curve" smooth="yes"/>
      <point x="1306" y="48"/>
      <point x="1263" y="99"/>
      <point x="1263" y="226" type="curve" smooth="yes"/>
      <point x="1263" y="749" type="line" smooth="yes"/>
      <point x="1263" y="1012"/>
      <point x="1129" y="1096"/>
      <point x="900" y="1096" type="curve" smooth="yes"/>
      <point x="808" y="1096"/>
      <point x="695" y="1079"/>
      <point x="612" y="1047" type="curve"/>
      <point x="612" y="979" type="line"/>
      <point x="716" y="1016"/>
      <point x="821" y="1030"/>
      <point x="900" y="1030" type="curve" smooth="yes"/>
      <point x="1087" y="1030"/>
      <point x="1195" y="972"/>
      <point x="1195" y="749" type="curve" smooth="yes"/>
      <point x="1195" y="220" type="line"/>
      <point x="1104" y="98"/>
      <point x="982" y="50"/>
      <point x="865" y="50" type="curve" smooth="yes"/>
      <point x="703" y="50"/>
      <point x="622" y="127"/>
      <point x="622" y="273" type="curve" smooth="yes"/>
      <point x="622" y="410"/>
      <point x="705" y="484"/>
      <point x="896" y="507" type="curve" smooth="yes"/>
      <point x="1234" y="548" type="line"/>
      <point x="1234" y="614" type="line"/>
      <point x="897" y="573" type="line" smooth="yes"/>
      <point x="657" y="544"/>
      <point x="548" y="447"/>
      <point x="548" y="267" type="curve" smooth="yes"/>
      <point x="548" y="85"/>
      <point x="670" y="-16"/>
      <point x="862" y="-16" type="curve" smooth="yes"/>
      <point x="995" y="-16"/>
      <point x="1117" y="38"/>
      <point x="1194" y="126" type="curve"/>
      <point x="1203" y="126" type="line"/>
      <point x="1222" y="41"/>
      <point x="1285" y="-16"/>
      <point x="1395" y="-16" type="curve" smooth="yes"/>
      <point x="1560" y="-16"/>
      <point x="1697" y="148"/>
      <point x="1697" y="574" type="curve" smooth="yes"/>
      <point x="1697" y="1205"/>
      <point x="1424" y="1498"/>
      <point x="913" y="1498" type="curve" smooth="yes"/>
      <point x="409" y="1498"/>
      <point x="118" y="1201"/>
      <point x="118" y="520" type="curve" smooth="yes"/>
      <point x="118" y="-167"/>
      <point x="412" y="-459"/>
    </contour>
  </outline>
</glyph>
<glyph name="A" format="2">
  <advance width="1286"/>
  <unicode hex="0041"/>
  <note>
520
</note>
  <anchor x="644" y="0" name="bottom"/>
  <anchor x="1249" y="0" name="ogonek"/>
  <anchor x="644" y="1520" name="top"/>
  <outline>
    <contour>
      <point x="37" y="0" type="line"/>
      <point x="110" y="0" type="line"/>
      <point x="654" y="1440" type="line"/>
      <point x="630" y="1440" type="line"/>
      <point x="1174" y="0" type="line"/>
      <point x="1249" y="0" type="line"/>
      <point x="686" y="1480" type="line"/>
      <point x="600" y="1480" type="line"/>
    </contour>
    <contour>
      <point x="284" y="528" type="line"/>
      <point x="1002" y="528" type="line"/>
      <point x="982" y="594" type="line"/>
      <point x="304" y="594" type="line"/>
    </contour>
  </outline>
</glyph>
<glyph name="B" format="2">
  <advance width="1216"/>
  <unicode hex="0042"/>
  <anchor x="624" y="0" name="bottom"/>
  <anchor x="624" y="1480" name="top"/>
  <outline>
    <contour>
      <point x="525" y="-10" type="curve" smooth="yes"/>
      <point x="961" y="-10"/>
      <point x="1132" y="129"/>
      <point x="1132" y="395" type="curve" smooth="yes"/>
      <point x="1132" y="597"/>
      <point x="1024" y="744"/>
      <point x="768" y="771" type="curve"/>
      <point x="765" y="756" type="line"/>
      <point x="1005" y="789"/>
      <point x="1089" y="935"/>
      <point x="1089" y="1110" type="curve" smooth="yes"/>
      <point x="1089" y="1369"/>
      <point x="931" y="1494"/>
      <point x="557" y="1494" type="curve" smooth="yes"/>
      <point x="408" y="1494"/>
      <point x="303" y="1482"/>
      <point x="190" y="1460" type="curve"/>
      <point x="190" y="10" type="line"/>
      <point x="314" y="-5"/>
      <point x="409" y="-10"/>
    </contour>
    <contour>
      <point x="527" y="56" type="curve" smooth="yes"/>
      <point x="426" y="56"/>
      <point x="342" y="60"/>
      <point x="258" y="72" type="curve"/>
      <point x="258" y="1405" type="line"/>
      <point x="341" y="1420"/>
      <point x="428" y="1428"/>
      <point x="556" y="1428" type="curve" smooth="yes"/>
      <point x="890" y="1428"/>
      <point x="1020" y="1337"/>
      <point x="1020" y="1110" type="curve" smooth="yes"/>
      <point x="1020" y="899"/>
      <point x="899" y="794"/>
      <point x="593" y="794" type="curve" smooth="yes"/>
      <point x="242" y="794" type="line"/>
      <point x="242" y="728" type="line"/>
      <point x="620" y="728" type="line" smooth="yes"/>
      <point x="922" y="728"/>
      <point x="1062" y="621"/>
      <point x="1062" y="395" type="curve" smooth="yes"/>
      <point x="1062" y="167"/>
      <point x="929" y="56"/>
    </contour>
  </outline>
</glyph>
<glyph name="C" format="2">
  <advance width="1101"/>
  <unicode hex="0043"/>
  <anchor x="689" y="0" name="bottom"/>
  <anchor x="674" y="1520" name="top"/>
  <outline>
    <contour>
      <point x="729" y="-18" type="curve" smooth="yes"/>
      <point x="855" y="-18"/>
      <point x="964" y="3"/>
      <point x="1065" y="40" type="curve"/>
      <point x="1065" y="108" type="line"/>
      <point x="940" y="64"/>
      <point x="843" y="48"/>
      <point x="729" y="48" type="curve" smooth="yes"/>
      <point x="403" y="48"/>
      <point x="190" y="209"/>
      <point x="190" y="742" type="curve" smooth="yes"/>
      <point x="190" y="1254"/>
      <point x="393" y="1432"/>
      <point x="740" y="1432" type="curve" smooth="yes"/>
      <point x="850" y="1432"/>
      <point x="955" y="1418"/>
      <point x="1065" y="1383" type="curve"/>
      <point x="1065" y="1451" type="line"/>
      <point x="961" y="1482"/>
      <point x="859" y="1498"/>
      <point x="745" y="1498" type="curve" smooth="yes"/>
      <point x="358" y="1498"/>
      <point x="118" y="1288"/>
      <point x="118" y="738" type="curve" smooth="yes"/>
      <point x="118" y="170"/>
      <point x="368" y="-18"/>
    </contour>
  </outline>
</glyph>
<glyph name="D" format="2">
  <advance width="1343"/>
  <unicode hex="0044"/>
  <anchor x="611" y="0" name="bottom"/>
  <anchor x="671" y="740" name="center"/>
  <anchor x="190" y="762" name="stroke"/>
  <anchor x="611" y="1520" name="top"/>
  <outline>
    <contour>
      <point x="508" y="-10" type="curve" smooth="yes"/>
      <point x="979" y="-10"/>
      <point x="1225" y="222"/>
      <point x="1225" y="740" type="curve" smooth="yes"/>
      <point x="1225" y="1250"/>
      <point x="988" y="1494"/>
      <point x="529" y="1494" type="curve" smooth="yes"/>
      <point x="421" y="1494"/>
      <point x="300" y="1482"/>
      <point x="190" y="1461" type="curve"/>
      <point x="190" y="10" type="line"/>
      <point x="319" y="-5"/>
      <point x="403" y="-10"/>
    </contour>
    <contour>
      <point x="510" y="56" type="curve" smooth="yes"/>
      <point x="409" y="56"/>
      <point x="334" y="61"/>
      <point x="258" y="72" type="curve"/>
      <point x="258" y="1406" type="line"/>
      <point x="352" y="1420"/>
      <point x="440" y="1428"/>
      <point x="524" y="1428" type="curve" smooth="yes"/>
      <point x="948" y="1428"/>
      <point x="1153" y="1216"/>
      <point x="1153" y="740" type="curve" smooth="yes"/>
      <point x="1153" y="259"/>
      <point x="939" y="56"/>
    </contour>
  </outline>
</glyph>
<glyph name="E" format="2">
  <advance width="1115"/>
  <unicode hex="0045"/>
  <anchor x="636" y="0" name="bottom"/>
  <anchor x="1044" y="0" name="ogonek"/>
  <anchor x="634" y="1520" name="top"/>
  <anchor x="41" y="1480" name="topleft"/>
  <outline>
    <contour>
      <point x="190" y="0" type="line"/>
      <point x="1044" y="0" type="line"/>
      <point x="1044" y="66" type="line"/>
      <point x="258" y="66" type="line"/>
      <point x="258" y="1414" type="line"/>
      <point x="1034" y="1414" type="line"/>
      <point x="1034" y="1480" type="line"/>
      <point x="190" y="1480" type="line"/>
    </contour>
    <contour>
      <point x="240" y="728" type="line"/>
      <point x="939" y="728" type="line"/>
      <point x="939" y="794" type="line"/>
      <point x="240" y="794" type="line"/>
    </contour>
  </outline>
</glyph>
<glyph name="F" format="2">
  <advance width="1074"/>
  <unicode hex="0046"/>
  <outline>
    <contour>
      <point x="190" y="0" type="line"/>
      <point x="258" y="0" type="line"/>
      <point x="258" y="1414" type="line"/>
      <point x="1024" y="1414" type="line"/>
      <point x="1024" y="1480" type="line"/>
      <point x="190" y="1480" type="line"/>
    </contour>
    <contour>
      <point x="250" y="728" type="line"/>
      <point x="929" y="728" type="line"/>
      <point x="929" y="794" type="line"/>
      <point x="250" y="794" type="line"/>
    </contour>
  </outline>
</glyph>
<glyph name="G" format="2">
  <advance width="1301"/>
  <unicode hex="0047"/>
  <anchor x="709" y="0" name="bottom"/>
  <anchor x="709" y="1520" name="top"/>
  <outline>
    <contour>
      <point x="827" y="-10" type="curve" smooth="yes"/>
      <point x="928" y="-10"/>
      <point x="1012" y="-4"/>
      <point x="1136" y="17" type="curve"/>
      <point x="1136" y="720" type="line"/>
      <point x="1068" y="720" type="line"/>
      <point x="1068" y="45" type="line"/>
      <point x="1090" y="80" type="line"/>
      <point x="1013" y="64"/>
      <point x="930" y="56"/>
      <point x="827" y="56" type="curve" smooth="yes"/>
      <point x="406" y="56"/>
      <point x="190" y="248"/>
      <point x="190" y="740" type="curve" smooth="yes"/>
      <point x="190" y="1255"/>
      <point x="428" y="1432"/>
      <point x="776" y="1432" type="curve" smooth="yes"/>
      <point x="876" y="1432"/>
      <point x="978" y="1421"/>
      <point x="1107" y="1383" type="curve"/>
      <point x="1107" y="1451" type="line"/>
      <point x="995" y="1482"/>
      <point x="888" y="1498"/>
      <point x="777" y="1498" type="curve" smooth="yes"/>
      <point x="390" y="1498"/>
      <point x="118" y="1291"/>
      <point x="118" y="738" type="curve" smooth="yes"/>
      <point x="118" y="209"/>
      <point x="365" y="-10"/>
    </contour>
  </outline>
</glyph>
<glyph name="H" format="2">
  <advance width="1398"/>
  <unicode hex="0048"/>
  <anchor x="699" y="0" name="bottom"/>
  <anchor x="699" y="1140" name="center"/>
  <anchor x="699" y="1520" name="top"/>
  <anchor x="41" y="1480" name="topleft"/>
  <outline>
    <contour>
      <point x="190" y="0" type="line"/>
      <point x="258" y="0" type="line"/>
      <point x="258" y="728" type="line"/>
      <point x="1140" y="728" type="line"/>
      <point x="1140" y="0" type="line"/>
      <point x="1208" y="0" type="line"/>
      <point x="1208" y="1480" type="line"/>
      <point x="1140" y="1480" type="line"/>
      <point x="1140" y="794" type="line"/>
      <point x="258" y="794" type="line"/>
      <point x="258" y="1480" type="line"/>
      <point x="190" y="1480" type="line"/>
    </contour>
  </outline>
</glyph>
<glyph name="I" format="2">
  <advance width="448"/>
  <unicode hex="0049"/>
  <anchor x="224" y="0" name="bottom"/>
  <anchor x="258" y="0" name="ogonek"/>
  <anchor x="224" y="1520" name="top"/>
  <outline>
    <contour>
      <point x="190" y="0" type="line"/>
      <point x="258" y="0" type="line"/>
      <point x="258" y="1480" type="line"/>
      <point x="190" y="1480" type="line"/>
    </contour>
  </outline>
</glyph>
<glyph name="J" format="2">
  <advance width="448"/>
  <unicode hex="004A"/>
  <anchor x="310" y="0" name="bottom"/>
  <anchor x="224" y="1520" name="top"/>
  <outline>
    <contour>
      <point x="48" y="-340" type="line"/>
      <point x="193" y="-142"/>
      <point x="258" y="11"/>
      <point x="258" y="253" type="curve" smooth="yes"/>
      <point x="258" y="1480" type="line"/>
      <point x="190" y="1480" type="line"/>
      <point x="190" y="286" type="line" smooth="yes"/>
      <point x="190" y="29"/>
      <point x="131" y="-120.5"/>
      <point x="-1" y="-305" type="curve"/>
    </contour>
  </outline>
</glyph>
<glyph name="K" format="2">
  <advance width="1183"/>
  <unicode hex="004B"/>
  <anchor x="616" y="0" name="bottom"/>
  <anchor x="616" y="1480" name="top"/>
  <outline>
    <contour>
      <point x="1108" y="0" type="line"/>
      <point x="1193" y="0" type="line"/>
      <point x="561" y="774" type="line"/>
      <point x="561" y="750" type="line"/>
      <point x="1151" y="1480" type="line"/>
      <point x="1068" y="1480" type="line"/>
      <point x="488" y="758" type="line"/>
    </contour>
    <contour>
      <point x="190" y="0" type="line"/>
      <point x="258" y="0" type="line"/>
      <point x="258" y="1480" type="line"/>
      <point x="190" y="1480" type="line"/>
    </contour>
    <contour>
      <point x="242" y="728" type="line"/>
      <point x="532" y="728" type="line"/>
      <point x="532" y="793" type="line"/>
      <point x="242" y="793" type="line"/>
    </contour>
  </outline>
</glyph>
<glyph name="L" format="2">
  <advance width="1027"/>
  <unicode hex="004C"/>
  <anchor x="603" y="0" name="bottom"/>
  <anchor x="666" y="1616" name="caronalt"/>
  <anchor x="727" y="774" name="periodcentered"/>
  <anchor x="224" y="774" name="slash"/>
  <anchor x="224" y="1520" name="top"/>
  <outline>
    <contour>
      <point x="190" y="0" type="line"/>
      <point x="1014" y="0" type="line"/>
      <point x="1014" y="66" type="line"/>
      <point x="258" y="66" type="line"/>
      <point x="258" y="1480" type="line"/>
      <point x="190" y="1480" type="line"/>
    </contour>
  </outline>
</glyph>
<glyph name="M" format="2">
  <advance width="1692"/>
  <unicode hex="004D"/>
  <anchor x="846" y="0" name="bottom"/>
  <anchor x="846" y="1480" name="top"/>
  <outline>
    <contour>
      <point x="194" y="0" type="line"/>
      <point x="260" y="0" type="line"/>
      <point x="260" y="1422" type="line"/>
      <point x="222" y="1422" type="line"/>
      <point x="808" y="200" type="line"/>
      <point x="884" y="200" type="line"/>
      <point x="1468" y="1422" type="line"/>
      <point x="1432" y="1422" type="line"/>
      <point x="1432" y="0" type="line"/>
      <point x="1498" y="0" type="line"/>
      <point x="1498" y="1480" type="line"/>
      <point x="1423" y="1480" type="line"/>
      <point x="832" y="232" type="line"/>
      <point x="864" y="232" type="line"/>
      <point x="269" y="1480" type="line"/>
      <point x="194" y="1480" type="line"/>
    </contour>
  </outline>
</glyph>
<glyph name="N" format="2">
  <advance width="1427"/>
  <unicode hex="004E"/>
  <anchor x="714" y="0" name="bottom"/>
  <anchor x="714" y="1520" name="top"/>
  <outline>
    <contour>
      <point x="190" y="0" type="line"/>
      <point x="256" y="0" type="line"/>
      <point x="256" y="1420" type="line"/>
      <point x="225" y="1420" type="line"/>
      <point x="1162" y="0" type="line"/>
      <point x="1237" y="0" type="line"/>
      <point x="1237" y="1480" type="line"/>
      <point x="1171" y="1480" type="line"/>
      <point x="1171" y="60" type="line"/>
      <point x="1202" y="60" type="line"/>
      <point x="265" y="1480" type="line"/>
      <point x="190" y="1480" type="line"/>
    </contour>
  </outline>
</glyph>
<glyph name="O" format="2">
  <advance width="1368"/>
  <unicode hex="004F"/>
  <anchor x="684" y="0" name="bottom"/>
  <anchor x="684" y="740" name="center"/>
  <anchor x="844" y="0" name="ogonek"/>
  <anchor x="684" y="1520" name="top"/>
  <anchor x="44" y="1480" name="topleft"/>
  <anchor x="843" y="1480" name="topright"/>
  <outline>
    <contour>
      <point x="684" y="-18" type="curve" smooth="yes"/>
      <point x="1020" y="-18"/>
      <point x="1250" y="195"/>
      <point x="1250" y="740" type="curve" smooth="yes"/>
      <point x="1250" y="1285"/>
      <point x="1023" y="1498"/>
      <point x="684" y="1498" type="curve" smooth="yes"/>
      <point x="348" y="1498"/>
      <point x="118" y="1285"/>
      <point x="118" y="740" type="curve" smooth="yes"/>
      <point x="118" y="195"/>
      <point x="345" y="-18"/>
    </contour>
    <contour>
      <point x="684" y="49" type="curve" smooth="yes"/>
      <point x="390" y="49"/>
      <point x="190" y="224"/>
      <point x="190" y="744" type="curve" smooth="yes"/>
      <point x="190" y="1256"/>
      <point x="390" y="1431"/>
      <point x="684" y="1431" type="curve" smooth="yes"/>
      <point x="978" y="1431"/>
      <point x="1178" y="1256"/>
      <point x="1178" y="736" type="curve" smooth="yes"/>
      <point x="1178" y="224"/>
      <point x="978" y="49"/>
    </contour>
  </outline>
</glyph>
<glyph name="P" format="2">
  <advance width="1184"/>
  <unicode hex="0050"/>
  <outline>
    <contour>
      <point x="190" y="0" type="line"/>
      <point x="258" y="0" type="line"/>
      <point x="258" y="529" type="line"/>
      <point x="337" y="521"/>
      <point x="403" y="518"/>
      <point x="482" y="518" type="curve" smooth="yes"/>
      <point x="904" y="518"/>
      <point x="1085" y="691"/>
      <point x="1085" y="1007" type="curve" smooth="yes"/>
      <point x="1085" y="1343"/>
      <point x="892" y="1494"/>
      <point x="530" y="1494" type="curve" smooth="yes"/>
      <point x="408" y="1494"/>
      <point x="303" y="1482"/>
      <point x="190" y="1461" type="curve"/>
    </contour>
    <contour>
      <point x="485" y="584" type="curve" smooth="yes"/>
      <point x="402" y="584"/>
      <point x="331" y="588"/>
      <point x="258" y="598" type="curve"/>
      <point x="258" y="1406" type="line"/>
      <point x="341" y="1420"/>
      <point x="428" y="1428"/>
      <point x="530" y="1428" type="curve" smooth="yes"/>
      <point x="854" y="1428"/>
      <point x="1013" y="1300"/>
      <point x="1013" y="1004" type="curve" smooth="yes"/>
      <point x="1013" y="724"/>
      <point x="858" y="584"/>
    </contour>
  </outline>
</glyph>
<glyph name="Q" format="2">
  <advance width="1368"/>
  <unicode hex="0051"/>
  <outline>
    <contour>
      <point x="1213" y="-180" type="curve"/>
      <point x="1223" y="-114" type="line"/>
      <point x="1009" y="-97"/>
      <point x="760" y="-59"/>
      <point x="595" y="16" type="curve"/>
      <point x="600" y="-8" type="line"/>
      <point x="634.5" y="-12"/>
      <point x="668" y="-14"/>
      <point x="700" y="-14" type="curve" smooth="yes"/>
      <point x="1060" y="-14"/>
      <point x="1250" y="243.5"/>
      <point x="1250" y="740" type="curve" smooth="yes"/>
      <point x="1250" y="1291"/>
      <point x="1020" y="1498"/>
      <point x="684" y="1498" type="curve" smooth="yes"/>
      <point x="348" y="1498"/>
      <point x="118" y="1285"/>
      <point x="118" y="740" type="curve" smooth="yes"/>
      <point x="118" y="127"/>
      <point x="369" y="-94"/>
    </contour>
    <contour>
      <point x="684" y="49" type="curve" smooth="yes"/>
      <point x="390" y="49"/>
      <point x="190" y="224"/>
      <point x="190" y="744" type="curve" smooth="yes"/>
      <point x="190" y="1256"/>
      <point x="390" y="1431"/>
      <point x="684" y="1431" type="curve" smooth="yes"/>
      <point x="978" y="1431"/>
      <point x="1178" y="1256"/>
      <point x="1178" y="736" type="curve" smooth="yes"/>
      <point x="1178" y="224"/>
      <point x="978" y="49"/>
    </contour>
  </outline>
</glyph>
<glyph name="R" format="2">
  <advance width="1266"/>
  <unicode hex="0052"/>
  <anchor x="660" y="0" name="bottom"/>
  <anchor x="602" y="1520" name="top"/>
  <outline>
    <contour>
      <point x="190" y="0" type="line"/>
      <point x="258" y="0" type="line"/>
      <point x="258" y="661" type="line"/>
      <point x="332" y="655"/>
      <point x="395" y="651"/>
      <point x="491" y="651" type="curve" smooth="yes"/>
      <point x="892" y="651"/>
      <point x="1087" y="794"/>
      <point x="1087" y="1077" type="curve" smooth="yes"/>
      <point x="1087" y="1364"/>
      <point x="914" y="1494"/>
      <point x="545" y="1494" type="curve" smooth="yes"/>
      <point x="397" y="1494"/>
      <point x="291" y="1479"/>
      <point x="190" y="1461" type="curve"/>
    </contour>
    <contour>
      <point x="1109.5" y="0" type="line"/>
      <point x="1197" y="0" type="line"/>
      <point x="646" y="703" type="line"/>
      <point x="561" y="703" type="line"/>
    </contour>
    <contour>
      <point x="489" y="716" type="curve" smooth="yes"/>
      <point x="395" y="716"/>
      <point x="346" y="719"/>
      <point x="258" y="726" type="curve"/>
      <point x="258" y="1404" type="line"/>
      <point x="346" y="1419"/>
      <point x="422" y="1428"/>
      <point x="541" y="1428" type="curve" smooth="yes"/>
      <point x="880" y="1428"/>
      <point x="1019" y="1327"/>
      <point x="1019" y="1075" type="curve" smooth="yes"/>
      <point x="1019" y="834"/>
      <point x="865" y="716"/>
    </contour>
  </outline>
</glyph>
<glyph name="S" format="2">
  <advance width="1010"/>
  <unicode hex="0053"/>
  <anchor x="512" y="0" name="bottom"/>
  <anchor x="512" y="1520" name="top"/>
  <outline>
    <contour>
      <point x="438" y="-18" type="curve" smooth="yes"/>
      <point x="750" y="-18"/>
      <point x="925" y="123"/>
      <point x="925" y="380" type="curve" smooth="yes"/>
      <point x="925" y="587"/>
      <point x="805" y="706"/>
      <point x="539" y="774" type="curve" smooth="yes"/>
      <point x="477" y="790" type="line" smooth="yes"/>
      <point x="245" y="851"/>
      <point x="157" y="937"/>
      <point x="157" y="1116" type="curve" smooth="yes"/>
      <point x="157" y="1319"/>
      <point x="290" y="1432"/>
      <point x="557" y="1432" type="curve" smooth="yes"/>
      <point x="661" y="1432"/>
      <point x="762" y="1418"/>
      <point x="867" y="1385" type="curve"/>
      <point x="867" y="1453" type="line"/>
      <point x="776" y="1483"/>
      <point x="663" y="1498"/>
      <point x="561" y="1498" type="curve" smooth="yes"/>
      <point x="247" y="1498"/>
      <point x="85" y="1350"/>
      <point x="85" y="1112" type="curve" smooth="yes"/>
      <point x="85" y="906"/>
      <point x="205" y="786"/>
      <point x="452" y="722" type="curve" smooth="yes"/>
      <point x="514" y="706" type="line" smooth="yes"/>
      <point x="754" y="643"/>
      <point x="853" y="561"/>
      <point x="853" y="377" type="curve" smooth="yes"/>
      <point x="853" y="160"/>
      <point x="714" y="48"/>
      <point x="442" y="48" type="curve" smooth="yes"/>
      <point x="339" y="48"/>
      <point x="225" y="65"/>
      <point x="101" y="107" type="curve"/>
      <point x="101" y="39" type="line"/>
      <point x="212" y="0"/>
      <point x="335" y="-18"/>
    </contour>
  </outline>
</glyph>
<glyph name="T" format="2">
  <advance width="1112"/>
  <unicode hex="0054"/>
  <anchor x="556" y="0" name="bottom"/>
  <anchor x="556" y="800" name="center"/>
  <anchor x="556" y="1520" name="top"/>
  <outline>
    <contour>
      <point x="522" y="0" type="line"/>
      <point x="590" y="0" type="line"/>
      <point x="590" y="1414" type="line"/>
      <point x="1098" y="1414" type="line"/>
      <point x="1098" y="1480" type="line"/>
      <point x="14" y="1480" type="line"/>
      <point x="14" y="1414" type="line"/>
      <point x="522" y="1414" type="line"/>
    </contour>
  </outline>
</glyph>
<glyph name="U" format="2">
  <advance width="1372"/>
  <unicode hex="0055"/>
  <anchor x="687" y="0" name="bottom"/>
  <anchor x="822" y="2" name="ogonek"/>
  <anchor x="687" y="1520" name="top"/>
  <anchor x="1124" y="1480" name="topright"/>
  <outline>
    <contour>
      <point x="687" y="-18" type="curve" smooth="yes"/>
      <point x="1034" y="-18"/>
      <point x="1190" y="150"/>
      <point x="1190" y="529" type="curve" smooth="yes"/>
      <point x="1190" y="1480" type="line"/>
      <point x="1124" y="1480" type="line"/>
      <point x="1124" y="519" type="line" smooth="yes"/>
      <point x="1124" y="194"/>
      <point x="992" y="48"/>
      <point x="687" y="48" type="curve" smooth="yes"/>
      <point x="382" y="48"/>
      <point x="250" y="194"/>
      <point x="250" y="519" type="curve" smooth="yes"/>
      <point x="250" y="1480" type="line"/>
      <point x="182" y="1480" type="line"/>
      <point x="182" y="529" type="line" smooth="yes"/>
      <point x="182" y="150"/>
      <point x="340" y="-18"/>
    </contour>
  </outline>
</glyph>
<glyph name="V" format="2">
  <advance width="1246"/>
  <unicode hex="0056"/>
  <outline>
    <contour>
      <point x="576" y="0" type="line"/>
      <point x="670" y="0" type="line"/>
      <point x="1229" y="1480" type="line"/>
      <point x="1158" y="1480" type="line"/>
      <point x="617" y="40" type="line"/>
      <point x="633" y="40" type="line"/>
      <point x="92" y="1480" type="line"/>
      <point x="17" y="1480" type="line"/>
    </contour>
  </outline>
</glyph>
<glyph name="W" format="2">
  <advance width="2021"/>
  <unicode hex="0057"/>
  <anchor x="1012" y="0" name="bottom"/>
  <anchor x="1012" y="1520" name="top"/>
  <outline>
    <contour>
      <point x="502" y="0" type="line"/>
      <point x="596" y="0" type="line"/>
      <point x="1019" y="1432" type="line"/>
      <point x="1002" y="1432" type="line"/>
      <point x="1425" y="0" type="line"/>
      <point x="1519" y="0" type="line"/>
      <point x="1951" y="1480" type="line"/>
      <point x="1882" y="1480" type="line"/>
      <point x="1465" y="40" type="line"/>
      <point x="1481" y="40" type="line"/>
      <point x="1058" y="1480" type="line"/>
      <point x="964" y="1480" type="line"/>
      <point x="542" y="40" type="line"/>
      <point x="558" y="40" type="line"/>
      <point x="142" y="1480" type="line"/>
      <point x="69" y="1480" type="line"/>
    </contour>
  </outline>
</glyph>
<glyph name="X" format="2">
  <advance width="1222"/>
  <unicode hex="0058"/>
  <outline>
    <contour>
      <point x="1100" y="0" type="line"/>
      <point x="1186" y="0" type="line"/>
      <point x="652" y="748" type="line"/>
      <point x="611" y="806" type="line"/>
      <point x="130" y="1480" type="line"/>
      <point x="45" y="1480" type="line"/>
      <point x="569" y="747" type="line"/>
      <point x="610" y="688" type="line"/>
    </contour>
    <contour>
      <point x="35" y="0" type="line"/>
      <point x="119" y="0" type="line"/>
      <point x="610" y="688" type="line"/>
      <point x="652" y="748" type="line"/>
      <point x="1176" y="1480" type="line"/>
      <point x="1093" y="1480" type="line"/>
      <point x="611" y="806" type="line"/>
      <point x="569" y="747" type="line"/>
    </contour>
  </outline>
</glyph>
<glyph name="Y" format="2">
  <advance width="1112"/>
  <unicode hex="0059"/>
  <anchor x="556" y="0" name="bottom"/>
  <anchor x="556" y="1520" name="top"/>
  <anchor x="14" y="1480" name="topleft"/>
  <outline>
    <contour>
      <point x="522" y="0" type="line"/>
      <point x="590" y="0" type="line"/>
      <point x="590" y="707" type="line"/>
      <point x="572" y="652" type="line"/>
      <point x="1123" y="1480" type="line"/>
      <point x="1043" y="1480" type="line"/>
      <point x="540" y="720" type="line"/>
      <point x="574" y="720" type="line"/>
      <point x="64" y="1480" type="line"/>
      <point x="-19" y="1480" type="line"/>
      <point x="540" y="652" type="line"/>
      <point x="522" y="707" type="line"/>
    </contour>
  </outline>
</glyph>
<glyph name="Z" format="2">
  <advance width="1103"/>
  <unicode hex="005A"/>
  <anchor x="552" y="0" name="bottom"/>
  <anchor x="552" y="1520" name="top"/>
  <outline>
    <contour>
      <point x="63" y="0" type="line"/>
      <point x="1040" y="0" type="line"/>
      <point x="1040" y="64" type="line"/>
      <point x="127" y="64" type="line"/>
      <point x="141" y="39" type="line"/>
      <point x="1028" y="1440" type="line"/>
      <point x="1028" y="1480" type="line"/>
      <point x="75" y="1480" type="line"/>
      <point x="75" y="1416" type="line"/>
      <point x="964" y="1416" type="line"/>
      <point x="950" y="1441" type="line"/>
      <point x="63" y="40" type="line"/>
    </contour>
  </outline>
</glyph>
<glyph name="bracketleft" format="2">
  <advance width="626"/>
  <unicode hex="005B"/>
  <outline>
    <contour>
      <point x="210" y="-440" type="line"/>
      <point x="666" y="-440" type="line"/>
      <point x="666" y="-376" type="line"/>
      <point x="278" y="-376" type="line"/>
      <point x="278" y="1552" type="line"/>
      <point x="666" y="1552" type="line"/>
      <point x="666" y="1616" type="line"/>
      <point x="210" y="1616" type="line"/>
    </contour>
  </outline>
</glyph>
<glyph name="backslash" format="2">
  <advance width="521"/>
  <unicode hex="005C"/>
  <outline>
    <contour>
      <point x="450" y="-240" type="line"/>
      <point x="521" y="-240" type="line"/>
      <point x="71" y="1616" type="line"/>
      <point x="0" y="1616" type="line"/>
    </contour>
  </outline>
</glyph>
<glyph name="bracketright" format="2">
  <advance width="626"/>
  <unicode hex="005D"/>
  <outline>
    <contour>
      <point x="-40" y="-440" type="line"/>
      <point x="416" y="-440" type="line"/>
      <point x="416" y="1616" type="line"/>
      <point x="-40" y="1616" type="line"/>
      <point x="-40" y="1552" type="line"/>
      <point x="348" y="1552" type="line"/>
      <point x="348" y="-376" type="line"/>
      <point x="-40" y="-376" type="line"/>
    </contour>
  </outline>
</glyph>
<glyph name="asciicircum" format="2">
  <advance width="1100"/>
  <unicode hex="005E"/>
  <outline>
    <contour>
      <point x="114" y="740" type="line"/>
      <point x="193" y="740" type="line"/>
      <point x="554" y="1436" type="line"/>
      <point x="546" y="1436" type="line"/>
      <point x="907" y="740" type="line"/>
      <point x="986" y="740" type="line"/>
      <point x="596" y="1480" type="line"/>
      <point x="502" y="1480" type="line"/>
    </contour>
  </outline>
</glyph>
<glyph name="underscore" format="2">
  <advance width="1072"/>
  <unicode hex="005F"/>
  <outline>
    <contour>
      <point x="95" y="-64" type="line"/>
      <point x="977" y="-64" type="line"/>
      <point x="977" y="0" type="line"/>
      <point x="95" y="0" type="line"/>
    </contour>
  </outline>
</glyph>
<glyph name="b" format="2">
  <advance width="1071"/>
  <unicode hex="0062"/>
  <anchor x="538" y="0" name="bottom"/>
  <anchor x="204" y="1616" name="top"/>
  <outline>
    <contour>
      <point x="454" y="-18" type="curve" smooth="yes"/>
      <point x="782" y="-18"/>
      <point x="963" y="163"/>
      <point x="963" y="560" type="curve" smooth="yes"/>
      <point x="963" y="962"/>
      <point x="779" y="1096"/>
      <point x="554" y="1096" type="curve" smooth="yes"/>
      <point x="418" y="1096"/>
      <point x="311" y="1039"/>
      <point x="244" y="965" type="curve"/>
      <point x="238" y="965" type="line"/>
      <point x="238" y="1616" type="line"/>
      <point x="170" y="1616" type="line"/>
      <point x="170" y="24" type="line"/>
      <point x="256" y="-3"/>
      <point x="357" y="-18"/>
    </contour>
    <contour>
      <point x="458" y="48" type="curve" smooth="yes"/>
      <point x="375" y="48"/>
      <point x="294" y="61"/>
      <point x="238" y="78" type="curve"/>
      <point x="238" y="869" type="line"/>
      <point x="312" y="979"/>
      <point x="431" y="1030"/>
      <point x="550" y="1030" type="curve" smooth="yes"/>
      <point x="742" y="1030"/>
      <point x="891" y="925"/>
      <point x="891" y="552" type="curve" smooth="yes"/>
      <point x="891" y="196"/>
      <point x="740" y="48"/>
    </contour>
  </outline>
</glyph>
<glyph name="c" format="2">
  <advance width="826"/>
  <unicode hex="0063"/>
  <anchor x="497" y="0" name="bottom"/>
  <anchor x="500" y="1200" name="top"/>
  <outline>
    <contour>
      <point x="538" y="-18" type="curve" smooth="yes"/>
      <point x="621" y="-18"/>
      <point x="706" y="-3"/>
      <point x="793" y="29" type="curve"/>
      <point x="793" y="97" type="line"/>
      <point x="695" y="62"/>
      <point x="615" y="48"/>
      <point x="545" y="48" type="curve" smooth="yes"/>
      <point x="307" y="48"/>
      <point x="180" y="177"/>
      <point x="180" y="544" type="curve" smooth="yes"/>
      <point x="180" y="905"/>
      <point x="315" y="1030"/>
      <point x="585" y="1030" type="curve" smooth="yes"/>
      <point x="650" y="1030"/>
      <point x="721" y="1020"/>
      <point x="793" y="999" type="curve"/>
      <point x="793" y="1067" type="line"/>
      <point x="727" y="1087"/>
      <point x="651" y="1096"/>
      <point x="583" y="1096" type="curve" smooth="yes"/>
      <point x="275" y="1096"/>
      <point x="108" y="938"/>
      <point x="108" y="540" type="curve" smooth="yes"/>
      <point x="108" y="141"/>
      <point x="264" y="-18"/>
    </contour>
  </outline>
</glyph>
<glyph name="d" format="2">
  <advance width="1071"/>
  <unicode hex="0064"/>
  <anchor x="533" y="0" name="bottom"/>
  <anchor x="1021" y="1616" name="caronalt"/>
  <anchor x="533" y="540" name="center"/>
  <anchor x="901" y="1356" name="stroke"/>
  <anchor x="533" y="1200" name="top"/>
  <anchor x="1020" y="1080" name="topright"/>
  <outline>
    <contour>
      <point x="523" y="-18" type="curve" smooth="yes"/>
      <point x="653" y="-18"/>
      <point x="761" y="39"/>
      <point x="827" y="119" type="curve"/>
      <point x="835" y="119" type="line"/>
      <point x="841" y="0" type="line"/>
      <point x="901" y="0" type="line"/>
      <point x="901" y="1616" type="line"/>
      <point x="833" y="1616" type="line"/>
      <point x="833" y="1078" type="line"/>
      <point x="773" y="1088"/>
      <point x="698" y="1096"/>
      <point x="627" y="1096" type="curve" smooth="yes"/>
      <point x="289" y="1096"/>
      <point x="108" y="915"/>
      <point x="108" y="518" type="curve" smooth="yes"/>
      <point x="108" y="123"/>
      <point x="289" y="-18"/>
    </contour>
    <contour>
      <point x="526" y="48" type="curve" smooth="yes"/>
      <point x="324" y="48"/>
      <point x="180" y="157"/>
      <point x="180" y="526" type="curve" smooth="yes"/>
      <point x="180" y="882"/>
      <point x="331" y="1030"/>
      <point x="624" y="1030" type="curve" smooth="yes"/>
      <point x="696" y="1030"/>
      <point x="777" y="1021"/>
      <point x="833" y="1007" type="curve"/>
      <point x="833" y="217" type="line"/>
      <point x="759" y="99"/>
      <point x="641" y="48"/>
    </contour>
  </outline>
</glyph>
<glyph name="e" format="2">
  <advance width="984"/>
  <unicode hex="0065"/>
  <anchor x="508" y="0" name="bottom"/>
  <anchor x="740" y="0" name="ogonek"/>
  <anchor x="508" y="1200" name="top"/>
  <outline>
    <contour>
      <point x="572" y="-18" type="curve" smooth="yes"/>
      <point x="659" y="-18"/>
      <point x="745" y="-4"/>
      <point x="843" y="29" type="curve"/>
      <point x="843" y="97" type="line"/>
      <point x="740" y="64"/>
      <point x="656" y="48"/>
      <point x="576" y="48" type="curve" smooth="yes"/>
      <point x="323" y="48"/>
      <point x="180" y="178"/>
      <point x="180" y="535" type="curve" smooth="yes"/>
      <point x="180" y="550" type="line" smooth="yes"/>
      <point x="180" y="905"/>
      <point x="309" y="1030"/>
      <point x="507" y="1030" type="curve" smooth="yes"/>
      <point x="704" y="1030"/>
      <point x="822" y="904"/>
      <point x="822" y="550" type="curve"/>
      <point x="849" y="576" type="line"/>
      <point x="141" y="576" type="line"/>
      <point x="141" y="510" type="line"/>
      <point x="893" y="510" type="line"/>
      <point x="893" y="540" type="line" smooth="yes"/>
      <point x="893" y="934"/>
      <point x="747" y="1096"/>
      <point x="507" y="1096" type="curve" smooth="yes"/>
      <point x="269" y="1096"/>
      <point x="108" y="933"/>
      <point x="108" y="540" type="curve" smooth="yes"/>
      <point x="108" y="141"/>
      <point x="277" y="-18"/>
    </contour>
  </outline>
</glyph>
<glyph name="f" format="2">
  <advance width="667"/>
  <unicode hex="0066"/>
  <outline>
    <contour>
      <point x="235" y="0" type="line"/>
      <point x="303" y="0" type="line"/>
      <point x="303" y="1296" type="line" smooth="yes"/>
      <point x="303" y="1496"/>
      <point x="392" y="1570"/>
      <point x="569" y="1570" type="curve" smooth="yes"/>
      <point x="618" y="1570"/>
      <point x="665" y="1565"/>
      <point x="713" y="1556" type="curve"/>
      <point x="713" y="1624" type="line"/>
      <point x="668" y="1632"/>
      <point x="616" y="1636"/>
      <point x="573" y="1636" type="curve" smooth="yes"/>
      <point x="348" y="1636"/>
      <point x="235" y="1524"/>
      <point x="235" y="1293" type="curve" smooth="yes"/>
    </contour>
    <contour>
      <point x="15" y="1016" type="line"/>
      <point x="674" y="1016" type="line"/>
      <point x="674" y="1080" type="line"/>
      <point x="15" y="1080" type="line"/>
    </contour>
  </outline>
</glyph>
<glyph name="g" format="2">
  <advance width="1071"/>
  <unicode hex="0067"/>
  <anchor x="553" y="-440" name="bottom"/>
  <anchor x="553" y="1200" name="top"/>
  <outline>
    <contour>
      <point x="466" y="-460" type="curve" smooth="yes"/>
      <point x="752" y="-460"/>
      <point x="901" y="-334"/>
      <point x="901" y="-7" type="curve" smooth="yes"/>
      <point x="901" y="1054" type="line"/>
      <point x="817" y="1080"/>
      <point x="714" y="1096"/>
      <point x="617" y="1096" type="curve" smooth="yes"/>
      <point x="289" y="1096"/>
      <point x="108" y="915"/>
      <point x="108" y="518" type="curve" smooth="yes"/>
      <point x="108" y="116"/>
      <point x="292" y="-18"/>
      <point x="517" y="-18" type="curve" smooth="yes"/>
      <point x="653" y="-18"/>
      <point x="760" y="39"/>
      <point x="827" y="113" type="curve"/>
      <point x="833" y="113" type="line"/>
      <point x="833" y="-12" type="line" smooth="yes"/>
      <point x="833" y="-296"/>
      <point x="713" y="-394"/>
      <point x="467" y="-394" type="curve" smooth="yes"/>
      <point x="375" y="-394"/>
      <point x="280" y="-378"/>
      <point x="173" y="-341" type="curve"/>
      <point x="173" y="-409" type="line"/>
      <point x="259" y="-442"/>
      <point x="376" y="-460"/>
    </contour>
    <contour>
      <point x="521" y="48" type="curve" smooth="yes"/>
      <point x="329" y="48"/>
      <point x="180" y="153"/>
      <point x="180" y="526" type="curve" smooth="yes"/>
      <point x="180" y="882"/>
      <point x="331" y="1030"/>
      <point x="613" y="1030" type="curve" smooth="yes"/>
      <point x="696" y="1030"/>
      <point x="777" y="1018"/>
      <point x="833" y="1003" type="curve"/>
      <point x="833" y="209" type="line"/>
      <point x="759" y="99"/>
      <point x="638" y="48"/>
    </contour>
  </outline>
</glyph>
<glyph name="h" format="2">
  <advance width="1087"/>
  <unicode hex="0068"/>
  <anchor x="551" y="0" name="bottom"/>
  <anchor x="551" y="540" name="center"/>
  <anchor x="170" y="1356" name="stroke"/>
  <anchor x="551" y="1616" name="top"/>
  <outline>
    <contour>
      <point x="170" y="0" type="line"/>
      <point x="238" y="0" type="line"/>
      <point x="238" y="852" type="line"/>
      <point x="332" y="981"/>
      <point x="476" y="1028"/>
      <point x="594" y="1028" type="curve" smooth="yes"/>
      <point x="755" y="1028"/>
      <point x="863" y="957"/>
      <point x="863" y="740" type="curve" smooth="yes"/>
      <point x="863" y="0" type="line"/>
      <point x="931" y="0" type="line"/>
      <point x="931" y="739" type="line" smooth="yes"/>
      <point x="931" y="1004"/>
      <point x="793" y="1096"/>
      <point x="597" y="1096" type="curve" smooth="yes"/>
      <point x="464" y="1096"/>
      <point x="339" y="1049"/>
      <point x="244" y="953" type="curve"/>
      <point x="238" y="953" type="line"/>
      <point x="238" y="1616" type="line"/>
      <point x="170" y="1616" type="line"/>
    </contour>
  </outline>
</glyph>
<glyph name="k" format="2">
  <advance width="957"/>
  <unicode hex="006B"/>
  <anchor x="519" y="0" name="bottom"/>
  <anchor x="204" y="1616" name="top"/>
  <outline>
    <contour>
      <point x="887" y="0" type="line"/>
      <point x="972" y="0" type="line"/>
      <point x="500" y="563" type="line"/>
      <point x="500" y="541" type="line"/>
      <point x="940" y="1080" type="line"/>
      <point x="856" y="1080" type="line"/>
      <point x="423" y="552" type="line"/>
    </contour>
    <contour>
      <point x="222" y="520" type="line"/>
      <point x="466" y="520" type="line"/>
      <point x="466" y="584" type="line"/>
      <point x="222" y="584" type="line"/>
    </contour>
    <contour>
      <point x="170" y="0" type="line"/>
      <point x="238" y="0" type="line"/>
      <point x="238" y="1616" type="line"/>
      <point x="170" y="1616" type="line"/>
    </contour>
  </outline>
</glyph>
<glyph name="l" format="2">
  <advance width="408"/>
  <unicode hex="006C"/>
  <anchor x="204" y="0" name="bottom"/>
  <anchor x="358" y="1616" name="caronalt"/>
  <anchor x="397" y="794" name="periodcentered"/>
  <anchor x="204" y="714" name="slash"/>
  <anchor x="204" y="1616" name="top"/>
  <outline>
    <contour>
      <point x="170" y="0" type="line"/>
      <point x="238" y="0" type="line"/>
      <point x="238" y="1616" type="line"/>
      <point x="170" y="1616" type="line"/>
    </contour>
  </outline>
</glyph>
<glyph name="m" format="2">
  <advance width="1632"/>
  <unicode hex="006D"/>
  <anchor x="826" y="0" name="bottom"/>
  <anchor x="826" y="1200" name="top"/>
  <outline>
    <contour>
      <point x="170" y="0" type="line"/>
      <point x="238" y="0" type="line"/>
      <point x="238" y="847" type="line"/>
      <point x="323" y="981"/>
      <point x="452" y="1030"/>
      <point x="555" y="1030" type="curve" smooth="yes"/>
      <point x="695" y="1030"/>
      <point x="792" y="957"/>
      <point x="792" y="738" type="curve" smooth="yes"/>
      <point x="792" y="0" type="line"/>
      <point x="860" y="0" type="line"/>
      <point x="860" y="739" type="line" smooth="yes"/>
      <point x="860" y="1004"/>
      <point x="735" y="1096"/>
      <point x="562" y="1096" type="curve" smooth="yes"/>
      <point x="444" y="1096"/>
      <point x="330" y="1048"/>
      <point x="244" y="950" type="curve"/>
      <point x="236" y="950" type="line"/>
      <point x="230" y="1080" type="line"/>
      <point x="170" y="1080" type="line"/>
    </contour>
    <contour>
      <point x="1408" y="0" type="line"/>
      <point x="1476" y="0" type="line"/>
      <point x="1476" y="739" type="line" smooth="yes"/>
      <point x="1476" y="1004"/>
      <point x="1346" y="1096"/>
      <point x="1170" y="1096" type="curve" smooth="yes"/>
      <point x="1054" y="1096"/>
      <point x="914" y="1049"/>
      <point x="805" y="901" type="curve"/>
      <point x="831" y="817" type="line"/>
      <point x="917" y="981"/>
      <point x="1063" y="1030"/>
      <point x="1166" y="1030" type="curve" smooth="yes"/>
      <point x="1307" y="1030"/>
      <point x="1408" y="957"/>
      <point x="1408" y="738" type="curve" smooth="yes"/>
    </contour>
  </outline>
</glyph>
<glyph name="n" format="2">
  <advance width="1087"/>
  <unicode hex="006E"/>
  <anchor x="13" y="1200" name="apostrophe"/>
  <anchor x="551" y="0" name="bottom"/>
  <anchor x="551" y="1200" name="top"/>
  <outline>
    <contour>
      <point x="170" y="0" type="line"/>
      <point x="238" y="0" type="line"/>
      <point x="238" y="853" type="line"/>
      <point x="334" y="985"/>
      <point x="482" y="1030"/>
      <point x="594" y="1030" type="curve" smooth="yes"/>
      <point x="758" y="1030"/>
      <point x="863" y="955"/>
      <point x="863" y="738" type="curve" smooth="yes"/>
      <point x="863" y="0" type="line"/>
      <point x="931" y="0" type="line"/>
      <point x="931" y="738" type="line" smooth="yes"/>
      <point x="931" y="1003"/>
      <point x="793" y="1096"/>
      <point x="596" y="1096" type="curve" smooth="yes"/>
      <point x="462" y="1096"/>
      <point x="337" y="1044"/>
      <point x="244" y="951" type="curve"/>
      <point x="236" y="951" type="line"/>
      <point x="230" y="1080" type="line"/>
      <point x="170" y="1080" type="line"/>
    </contour>
  </outline>
</glyph>
<glyph name="o" format="2">
  <advance width="1058"/>
  <unicode hex="006F"/>
  <anchor x="529" y="0" name="bottom"/>
  <anchor x="529" y="540" name="center"/>
  <anchor x="663" y="0" name="ogonek"/>
  <anchor x="529" y="1200" name="top"/>
  <anchor x="655" y="1080" name="topright"/>
  <outline>
    <contour>
      <point x="529" y="-18" type="curve" smooth="yes"/>
      <point x="781" y="-18"/>
      <point x="950" y="143"/>
      <point x="950" y="540" type="curve" smooth="yes"/>
      <point x="950" y="941"/>
      <point x="781" y="1096"/>
      <point x="529" y="1096" type="curve" smooth="yes"/>
      <point x="277" y="1096"/>
      <point x="108" y="937"/>
      <point x="108" y="540" type="curve" smooth="yes"/>
      <point x="108" y="139"/>
      <point x="277" y="-18"/>
    </contour>
    <contour>
      <point x="529" y="48" type="curve" smooth="yes"/>
      <point x="317" y="48"/>
      <point x="180" y="172"/>
      <point x="180" y="543" type="curve" smooth="yes"/>
      <point x="180" y="908"/>
      <point x="317" y="1030"/>
      <point x="529" y="1030" type="curve" smooth="yes"/>
      <point x="741" y="1030"/>
      <point x="878" y="908"/>
      <point x="878" y="537" type="curve" smooth="yes"/>
      <point x="878" y="172"/>
      <point x="741" y="48"/>
    </contour>
  </outline>
</glyph>
<glyph name="p" format="2">
  <advance width="1071"/>
  <unicode hex="0070"/>
  <outline>
    <contour>
      <point x="170" y="-440" type="line"/>
      <point x="238" y="-440" type="line"/>
      <point x="238" y="-1" type="line"/>
      <point x="298" y="-10"/>
      <point x="373" y="-18"/>
      <point x="444" y="-18" type="curve" smooth="yes"/>
      <point x="783" y="-18"/>
      <point x="963" y="163"/>
      <point x="963" y="560" type="curve" smooth="yes"/>
      <point x="963" y="962"/>
      <point x="778" y="1096"/>
      <point x="548" y="1096" type="curve" smooth="yes"/>
      <point x="418" y="1096"/>
      <point x="310" y="1039"/>
      <point x="244" y="959" type="curve"/>
      <point x="237" y="959" type="line"/>
      <point x="230" y="1080" type="line"/>
      <point x="170" y="1080" type="line"/>
    </contour>
    <contour>
      <point x="447" y="48" type="curve" smooth="yes"/>
      <point x="375" y="48"/>
      <point x="294" y="57"/>
      <point x="238" y="71" type="curve"/>
      <point x="238" y="861" type="line"/>
      <point x="312" y="979"/>
      <point x="430" y="1030"/>
      <point x="545" y="1030" type="curve" smooth="yes"/>
      <point x="742" y="1030"/>
      <point x="891" y="925"/>
      <point x="891" y="552" type="curve" smooth="yes"/>
      <point x="891" y="196"/>
      <point x="740" y="48"/>
    </contour>
  </outline>
</glyph>
<glyph name="q" format="2">
  <advance width="1071"/>
  <unicode hex="0071"/>
  <outline>
    <contour>
      <point x="833" y="-440" type="line"/>
      <point x="901" y="-440" type="line"/>
      <point x="901" y="1054" type="line"/>
      <point x="817" y="1080"/>
      <point x="714" y="1096"/>
      <point x="617" y="1096" type="curve" smooth="yes"/>
      <point x="289" y="1096"/>
      <point x="108" y="915"/>
      <point x="108" y="518" type="curve" smooth="yes"/>
      <point x="108" y="116"/>
      <point x="292" y="-18"/>
      <point x="517" y="-18" type="curve" smooth="yes"/>
      <point x="653" y="-18"/>
      <point x="760" y="39"/>
      <point x="827" y="113" type="curve"/>
      <point x="833" y="113" type="line"/>
    </contour>
    <contour>
      <point x="521" y="48" type="curve" smooth="yes"/>
      <point x="329" y="48"/>
      <point x="180" y="153"/>
      <point x="180" y="526" type="curve" smooth="yes"/>
      <point x="180" y="882"/>
      <point x="331" y="1030"/>
      <point x="613" y="1030" type="curve" smooth="yes"/>
      <point x="696" y="1030"/>
      <point x="777" y="1018"/>
      <point x="833" y="1003" type="curve"/>
      <point x="833" y="209" type="line"/>
      <point x="759" y="99"/>
      <point x="638" y="48"/>
    </contour>
  </outline>
</glyph>
<glyph name="r" format="2">
  <advance width="673"/>
  <unicode hex="0072"/>
  <anchor x="204" y="0" name="bottom"/>
  <anchor x="402" y="1200" name="top"/>
  <outline>
    <contour>
      <point x="170" y="0" type="line"/>
      <point x="238" y="0" type="line"/>
      <point x="238" y="836" type="line"/>
      <point x="319" y="960"/>
      <point x="461" y="1018"/>
      <point x="575" y="1018" type="curve" smooth="yes"/>
      <point x="608" y="1018"/>
      <point x="632" y="1017"/>
      <point x="660" y="1013" type="curve"/>
      <point x="660" y="1081" type="line"/>
      <point x="633" y="1086"/>
      <point x="609" y="1088"/>
      <point x="576" y="1088" type="curve" smooth="yes"/>
      <point x="454" y="1088"/>
      <point x="325" y="1032"/>
      <point x="244" y="933" type="curve"/>
      <point x="236" y="933" type="line"/>
      <point x="230" y="1080" type="line"/>
      <point x="170" y="1080" type="line"/>
    </contour>
  </outline>
</glyph>
<glyph name="s" format="2">
  <advance width="856"/>
  <unicode hex="0073"/>
  <anchor x="434" y="0" name="bottom"/>
  <anchor x="434" y="1200" name="top"/>
  <outline>
    <contour>
      <point x="392" y="-18" type="curve" smooth="yes"/>
      <point x="648" y="-18"/>
      <point x="776" y="96"/>
      <point x="776" y="280" type="curve" smooth="yes"/>
      <point x="776" y="426"/>
      <point x="706" y="518"/>
      <point x="503" y="564" type="curve" smooth="yes"/>
      <point x="374" y="592" type="line" smooth="yes"/>
      <point x="226" y="625"/>
      <point x="175" y="697"/>
      <point x="175" y="806" type="curve" smooth="yes"/>
      <point x="175" y="933"/>
      <point x="263" y="1030"/>
      <point x="485" y="1030" type="curve" smooth="yes"/>
      <point x="566" y="1030"/>
      <point x="631" y="1022"/>
      <point x="720" y="998" type="curve"/>
      <point x="720" y="1066" type="line"/>
      <point x="644" y="1086"/>
      <point x="570" y="1096"/>
      <point x="485" y="1096" type="curve" smooth="yes"/>
      <point x="226" y="1096"/>
      <point x="104" y="970"/>
      <point x="104" y="803" type="curve" smooth="yes"/>
      <point x="104" y="659"/>
      <point x="175" y="565"/>
      <point x="369" y="520" type="curve" smooth="yes"/>
      <point x="498" y="492" type="line" smooth="yes"/>
      <point x="646" y="459"/>
      <point x="705" y="399"/>
      <point x="705" y="274" type="curve" smooth="yes"/>
      <point x="705" y="130"/>
      <point x="608" y="48"/>
      <point x="395" y="48" type="curve" smooth="yes"/>
      <point x="306" y="48"/>
      <point x="226" y="59"/>
      <point x="120" y="91" type="curve"/>
      <point x="120" y="23" type="line"/>
      <point x="206" y="-5"/>
      <point x="293" y="-18"/>
    </contour>
  </outline>
</glyph>
<glyph name="t" format="2">
  <advance width="694"/>
  <unicode hex="0074"/>
  <anchor x="458" y="0" name="bottom"/>
  <anchor x="496" y="1616" name="caronalt"/>
  <anchor x="227" y="660" name="stroke"/>
  <anchor x="261" y="1480" name="top"/>
  <anchor x="659" y="1616" name="topright"/>
  <outline>
    <contour>
      <point x="542" y="-18" type="curve" smooth="yes"/>
      <point x="591" y="-18"/>
      <point x="636" y="-13"/>
      <point x="688" y="-1" type="curve"/>
      <point x="688" y="67" type="line"/>
      <point x="633" y="54"/>
      <point x="590" y="48"/>
      <point x="546" y="48" type="curve" smooth="yes"/>
      <point x="383" y="48"/>
      <point x="295" y="121"/>
      <point x="295" y="322" type="curve" smooth="yes"/>
      <point x="295" y="1480" type="line"/>
      <point x="235" y="1480" type="line"/>
      <point x="227" y="1080" type="line"/>
      <point x="227" y="310" type="line" smooth="yes"/>
      <point x="227" y="79"/>
      <point x="345" y="-18"/>
    </contour>
    <contour>
      <point x="7" y="1016" type="line"/>
      <point x="666" y="1016" type="line"/>
      <point x="666" y="1080" type="line"/>
      <point x="7" y="1080" type="line"/>
    </contour>
  </outline>
</glyph>
<glyph name="v" format="2">
  <advance width="995"/>
  <unicode hex="0076"/>
  <anchor x="499" y="0" name="bottom"/>
  <anchor x="499" y="1200" name="top"/>
  <outline>
    <contour>
      <point x="451" y="0" type="line"/>
      <point x="544" y="0" type="line"/>
      <point x="970" y="1080" type="line"/>
      <point x="897" y="1080" type="line"/>
      <point x="490" y="36" type="line"/>
      <point x="508" y="36" type="line"/>
      <point x="101" y="1080" type="line"/>
      <point x="25" y="1080" type="line"/>
    </contour>
  </outline>
</glyph>
<glyph name="w" format="2">
  <advance width="1624"/>
  <unicode hex="0077"/>
  <anchor x="813" y="0" name="bottom"/>
  <anchor x="814" y="1200" name="top"/>
  <outline>
    <contour>
      <point x="401" y="0" type="line"/>
      <point x="495" y="0" type="line"/>
      <point x="821" y="1034" type="line"/>
      <point x="804" y="1034" type="line"/>
      <point x="1130" y="0" type="line"/>
      <point x="1224" y="0" type="line"/>
      <point x="1554" y="1080" type="line"/>
      <point x="1483" y="1080" type="line"/>
      <point x="1170" y="40" type="line"/>
      <point x="1186" y="40" type="line"/>
      <point x="860" y="1080" type="line"/>
      <point x="766" y="1080" type="line"/>
      <point x="441" y="40" type="line"/>
      <point x="457" y="40" type="line"/>
      <point x="143" y="1080" type="line"/>
      <point x="70" y="1080" type="line"/>
    </contour>
  </outline>
</glyph>
<glyph name="x" format="2">
  <advance width="941"/>
  <unicode hex="0078"/>
  <anchor x="472" y="0" name="bottom"/>
  <anchor x="472" y="1200" name="top"/>
  <outline>
    <contour>
      <point x="829" y="0" type="line"/>
      <point x="915" y="0" type="line"/>
      <point x="513" y="546" type="line"/>
      <point x="472" y="601" type="line"/>
      <point x="122" y="1080" type="line"/>
      <point x="36" y="1080" type="line"/>
      <point x="429" y="544" type="line"/>
      <point x="470" y="490" type="line"/>
    </contour>
    <contour>
      <point x="29" y="0" type="line"/>
      <point x="114" y="0" type="line"/>
      <point x="470" y="490" type="line"/>
      <point x="513" y="546" type="line"/>
      <point x="906" y="1080" type="line"/>
      <point x="823" y="1080" type="line"/>
      <point x="472" y="601" type="line"/>
      <point x="429" y="544" type="line"/>
    </contour>
  </outline>
</glyph>
<glyph name="y" format="2">
  <advance width="995"/>
  <unicode hex="0079"/>
  <anchor x="723" y="0" name="bottom"/>
  <anchor x="499" y="1200" name="top"/>
  <outline>
    <contour>
      <point x="299" y="-440" type="line"/>
      <point x="371" y="-440" type="line"/>
      <point x="970" y="1080" type="line"/>
      <point x="897" y="1080" type="line"/>
      <point x="490" y="36" type="line"/>
      <point x="473" y="0" type="line"/>
    </contour>
    <contour>
      <point x="451" y="0" type="line"/>
      <point x="521" y="0" type="line"/>
      <point x="101" y="1080" type="line"/>
      <point x="25" y="1080" type="line"/>
    </contour>
  </outline>
</glyph>
<glyph name="z" format="2">
  <advance width="865"/>
  <unicode hex="007A"/>
  <anchor x="435" y="0" name="bottom"/>
  <anchor x="435" y="1200" name="top"/>
  <outline>
    <contour>
      <point x="61" y="0" type="line"/>
      <point x="808" y="0" type="line"/>
      <point x="808" y="64" type="line"/>
      <point x="138" y="64" type="line"/>
      <point x="138" y="39" type="line"/>
      <point x="796" y="1040" type="line"/>
      <point x="796" y="1080" type="line"/>
      <point x="73" y="1080" type="line"/>
      <point x="73" y="1016" type="line"/>
      <point x="719" y="1016" type="line"/>
      <point x="719" y="1041" type="line"/>
      <point x="61" y="40" type="line"/>
    </contour>
  </outline>
</glyph>
<glyph name="braceleft" format="2">
  <advance width="666"/>
  <unicode hex="007B"/>
  <outline>
    <contour>
      <point x="586" y="-460" type="curve" smooth="yes"/>
      <point x="630" y="-460"/>
      <point x="676" y="-456"/>
      <point x="706" y="-450" type="curve"/>
      <point x="706" y="-394" type="line"/>
      <point x="582" y="-394" type="line" smooth="yes"/>
      <point x="405" y="-394"/>
      <point x="318" y="-319"/>
      <point x="318" y="-141" type="curve" smooth="yes"/>
      <point x="318" y="394" type="line" smooth="yes"/>
      <point x="318" y="530"/>
      <point x="272" y="602"/>
      <point x="174" y="628" type="curve"/>
      <point x="174" y="616" type="line"/>
      <point x="272" y="642"/>
      <point x="318" y="714"/>
      <point x="318" y="850" type="curve" smooth="yes"/>
      <point x="318" y="1317" type="line" smooth="yes"/>
      <point x="318" y="1495"/>
      <point x="405" y="1570"/>
      <point x="582" y="1570" type="curve" smooth="yes"/>
      <point x="706" y="1570" type="line"/>
      <point x="706" y="1626" type="line"/>
      <point x="676" y="1632"/>
      <point x="630" y="1636"/>
      <point x="586" y="1636" type="curve" smooth="yes"/>
      <point x="364" y="1636"/>
      <point x="250" y="1529"/>
      <point x="250" y="1310" type="curve" smooth="yes"/>
      <point x="250" y="840" type="line" smooth="yes"/>
      <point x="250" y="708"/>
      <point x="188" y="654"/>
      <point x="66" y="654" type="curve" smooth="yes"/>
      <point x="51" y="654" type="line"/>
      <point x="51" y="590" type="line"/>
      <point x="66" y="590" type="line" smooth="yes"/>
      <point x="188" y="590"/>
      <point x="250" y="536"/>
      <point x="250" y="404" type="curve" smooth="yes"/>
      <point x="250" y="-134" type="line" smooth="yes"/>
      <point x="250" y="-353"/>
      <point x="364" y="-460"/>
    </contour>
  </outline>
</glyph>
<glyph name="bar" format="2">
  <advance width="448"/>
  <unicode hex="007C"/>
  <outline>
    <contour>
      <point x="190" y="-440" type="line"/>
      <point x="258" y="-440" type="line"/>
      <point x="258" y="1616" type="line"/>
      <point x="190" y="1616" type="line"/>
    </contour>
  </outline>
</glyph>
<glyph name="braceright" format="2">
  <advance width="666"/>
  <unicode hex="007D"/>
  <outline>
    <contour>
      <point x="80" y="-460" type="curve" smooth="yes"/>
      <point x="302" y="-460"/>
      <point x="416" y="-353"/>
      <point x="416" y="-134" type="curve" smooth="yes"/>
      <point x="416" y="404" type="line" smooth="yes"/>
      <point x="416" y="536"/>
      <point x="478" y="590"/>
      <point x="600" y="590" type="curve" smooth="yes"/>
      <point x="615" y="590" type="line"/>
      <point x="615" y="654" type="line"/>
      <point x="600" y="654" type="line" smooth="yes"/>
      <point x="478" y="654"/>
      <point x="416" y="708"/>
      <point x="416" y="840" type="curve" smooth="yes"/>
      <point x="416" y="1310" type="line" smooth="yes"/>
      <point x="416" y="1529"/>
      <point x="302" y="1636"/>
      <point x="80" y="1636" type="curve" smooth="yes"/>
      <point x="36" y="1636"/>
      <point x="-10" y="1632"/>
      <point x="-40" y="1626" type="curve"/>
      <point x="-40" y="1570" type="line"/>
      <point x="84" y="1570" type="line" smooth="yes"/>
      <point x="261" y="1570"/>
      <point x="348" y="1495"/>
      <point x="348" y="1317" type="curve" smooth="yes"/>
      <point x="348" y="850" type="line" smooth="yes"/>
      <point x="348" y="714"/>
      <point x="394" y="642"/>
      <point x="492" y="616" type="curve"/>
      <point x="492" y="628" type="line"/>
      <point x="394" y="602"/>
      <point x="348" y="530"/>
      <point x="348" y="394" type="curve" smooth="yes"/>
      <point x="348" y="-141" type="line" smooth="yes"/>
      <point x="348" y="-319"/>
      <point x="261" y="-394"/>
      <point x="84" y="-394" type="curve" smooth="yes"/>
      <point x="-40" y="-394" type="line"/>
      <point x="-40" y="-450" type="line"/>
      <point x="-10" y="-456"/>
      <point x="36" y="-460"/>
    </contour>
  </outline>
</glyph>
<glyph name="asciitilde" format="2">
  <advance width="1062"/>
  <unicode hex="007E"/>
  <outline>
    <contour>
      <point x="703" y="664" type="curve" smooth="yes"/>
      <point x="781" y="664"/>
      <point x="851" y="696"/>
      <point x="895" y="754" type="curve"/>
      <point x="895" y="836" type="line"/>
      <point x="841" y="764"/>
      <point x="777" y="728"/>
      <point x="701" y="728" type="curve" smooth="yes"/>
      <point x="652" y="728"/>
      <point x="603" y="754"/>
      <point x="550" y="781" type="curve" smooth="yes"/>
      <point x="492" y="811"/>
      <point x="429" y="844"/>
      <point x="359" y="844" type="curve" smooth="yes"/>
      <point x="281" y="844"/>
      <point x="211" y="812"/>
      <point x="167" y="754" type="curve"/>
      <point x="167" y="672" type="line"/>
      <point x="221" y="744"/>
      <point x="285" y="780"/>
      <point x="361" y="780" type="curve" smooth="yes"/>
      <point x="410" y="780"/>
      <point x="459" y="754"/>
      <point x="512" y="727" type="curve" smooth="yes"/>
      <point x="570" y="697"/>
      <point x="633" y="664"/>
    </contour>
  </outline>
</glyph>
<glyph name="exclamdown" format="2">
  <advance width="446"/>
  <unicode hex="00A1"/>
  <outline>
    <contour>
      <point x="199" y="764" type="line"/>
      <point x="187" y="190" type="line"/>
      <point x="187" y="-380" type="line"/>
      <point x="259" y="-380" type="line"/>
      <point x="259" y="190" type="line"/>
      <point x="247" y="764" type="line"/>
    </contour>
    <contour>
      <point x="223" y="1090" type="curve" smooth="yes"/>
      <point x="187" y="1090"/>
      <point x="161" y="1066"/>
      <point x="161" y="1028" type="curve" smooth="yes"/>
      <point x="161" y="990"/>
      <point x="187" y="964"/>
      <point x="223" y="964" type="curve" smooth="yes"/>
      <point x="259" y="964"/>
      <point x="285" y="990"/>
      <point x="285" y="1028" type="curve" smooth="yes"/>
      <point x="285" y="1066"/>
      <point x="259" y="1090"/>
    </contour>
  </outline>
</glyph>
<glyph name="cent" format="2">
  <advance width="831"/>
  <unicode hex="00A2"/>
  <outline>
    <contour>
      <point x="538" y="-18" type="curve" smooth="yes"/>
      <point x="621" y="-18"/>
      <point x="706" y="-3"/>
      <point x="793" y="29" type="curve"/>
      <point x="793" y="97" type="line"/>
      <point x="695" y="62"/>
      <point x="615" y="48"/>
      <point x="545" y="48" type="curve" smooth="yes"/>
      <point x="307" y="48"/>
      <point x="180" y="177"/>
      <point x="180" y="544" type="curve" smooth="yes"/>
      <point x="180" y="905"/>
      <point x="312" y="1030"/>
      <point x="581" y="1030" type="curve" smooth="yes"/>
      <point x="649" y="1030"/>
      <point x="719" y="1020"/>
      <point x="793" y="999" type="curve"/>
      <point x="793" y="1067" type="line"/>
      <point x="723" y="1087"/>
      <point x="653" y="1096"/>
      <point x="584" y="1096" type="curve" smooth="yes"/>
      <point x="274" y="1096"/>
      <point x="108" y="938"/>
      <point x="108" y="540" type="curve" smooth="yes"/>
      <point x="108" y="141"/>
      <point x="263" y="-18"/>
    </contour>
    <contour>
      <point x="506" y="-240" type="line"/>
      <point x="570" y="-240" type="line"/>
      <point x="570" y="0" type="line"/>
      <point x="506" y="0" type="line"/>
    </contour>
    <contour>
      <point x="506" y="1080" type="line"/>
      <point x="570" y="1080" type="line"/>
      <point x="570" y="1320" type="line"/>
      <point x="506" y="1320" type="line"/>
    </contour>
  </outline>
</glyph>
<glyph name="yen" format="2">
  <advance width="1164"/>
  <unicode hex="00A5"/>
  <outline>
    <contour>
      <point x="548" y="0" type="line"/>
      <point x="616" y="0" type="line"/>
      <point x="616" y="707" type="line"/>
      <point x="598" y="652" type="line"/>
      <point x="1153" y="1480" type="line"/>
      <point x="1073" y="1480" type="line"/>
      <point x="566" y="720" type="line"/>
      <point x="600" y="720" type="line"/>
      <point x="94" y="1480" type="line"/>
      <point x="11" y="1480" type="line"/>
      <point x="566" y="652" type="line"/>
      <point x="548" y="707" type="line"/>
    </contour>
    <contour>
      <point x="228" y="320" type="line"/>
      <point x="936" y="320" type="line"/>
      <point x="936" y="384" type="line"/>
      <point x="228" y="384" type="line"/>
    </contour>
    <contour>
      <point x="228" y="664" type="line"/>
      <point x="936" y="664" type="line"/>
      <point x="936" y="728" type="line"/>
      <point x="228" y="728" type="line"/>
    </contour>
  </outline>
</glyph>
<glyph name="brokenbar" format="2">
  <advance width="448"/>
  <unicode hex="00A6"/>
  <outline>
    <contour>
      <point x="190" y="836" type="line"/>
      <point x="258" y="836" type="line"/>
      <point x="258" y="1616" type="line"/>
      <point x="190" y="1616" type="line"/>
    </contour>
    <contour>
      <point x="190" y="-440" type="line"/>
      <point x="258" y="-440" type="line"/>
      <point x="258" y="340" type="line"/>
      <point x="190" y="340" type="line"/>
    </contour>
  </outline>
</glyph>
<glyph name="section" format="2">
  <advance width="960"/>
  <unicode hex="00A7"/>
  <outline>
    <contour>
      <point x="422" y="-18" type="curve" smooth="yes"/>
      <point x="678" y="-18"/>
      <point x="806" y="96"/>
      <point x="806" y="280" type="curve" smooth="yes"/>
      <point x="806" y="426"/>
      <point x="736" y="516"/>
      <point x="533" y="562" type="curve" smooth="yes"/>
      <point x="404" y="590" type="line" smooth="yes"/>
      <point x="256" y="623"/>
      <point x="201" y="697"/>
      <point x="201" y="806" type="curve" smooth="yes"/>
      <point x="201" y="880"/>
      <point x="235" y="944"/>
      <point x="305" y="985" type="curve"/>
      <point x="254" y="1028" type="line"/>
      <point x="177" y="975"/>
      <point x="134" y="895"/>
      <point x="134" y="803" type="curve" smooth="yes"/>
      <point x="134" y="659"/>
      <point x="205" y="564"/>
      <point x="399" y="520" type="curve" smooth="yes"/>
      <point x="528" y="492" type="line" smooth="yes"/>
      <point x="676" y="459"/>
      <point x="735" y="399"/>
      <point x="735" y="274" type="curve" smooth="yes"/>
      <point x="735" y="130"/>
      <point x="638" y="48"/>
      <point x="425" y="48" type="curve" smooth="yes"/>
      <point x="336" y="48"/>
      <point x="256" y="59"/>
      <point x="150" y="91" type="curve"/>
      <point x="150" y="23" type="line"/>
      <point x="236" y="-5"/>
      <point x="323" y="-18"/>
    </contour>
    <contour>
      <point x="712" y="453" type="line"/>
      <point x="784" y="505"/>
      <point x="826" y="582"/>
      <point x="826" y="680" type="curve" smooth="yes"/>
      <point x="826" y="826"/>
      <point x="756" y="918"/>
      <point x="553" y="964" type="curve" smooth="yes"/>
      <point x="424" y="992" type="line" smooth="yes"/>
      <point x="276" y="1025"/>
      <point x="225" y="1097"/>
      <point x="225" y="1206" type="curve" smooth="yes"/>
      <point x="225" y="1333"/>
      <point x="313" y="1430"/>
      <point x="535" y="1430" type="curve" smooth="yes"/>
      <point x="616" y="1430"/>
      <point x="681" y="1422"/>
      <point x="770" y="1398" type="curve"/>
      <point x="770" y="1466" type="line"/>
      <point x="694" y="1486"/>
      <point x="620" y="1496"/>
      <point x="535" y="1496" type="curve" smooth="yes"/>
      <point x="276" y="1496"/>
      <point x="154" y="1370"/>
      <point x="154" y="1203" type="curve" smooth="yes"/>
      <point x="154" y="1059"/>
      <point x="225" y="966"/>
      <point x="419" y="922" type="curve" smooth="yes"/>
      <point x="548" y="894" type="line" smooth="yes"/>
      <point x="696" y="861"/>
      <point x="759" y="799"/>
      <point x="759" y="674" type="curve" smooth="yes"/>
      <point x="759" y="593"/>
      <point x="725" y="532"/>
      <point x="659" y="494" type="curve"/>
    </contour>
  </outline>
</glyph>
<glyph name="copyright" format="2">
  <advance width="1724"/>
  <unicode hex="00A9"/>
  <outline>
    <contour>
      <point x="862" y="-22" type="curve" smooth="yes"/>
      <point x="1308" y="-22"/>
      <point x="1606" y="282"/>
      <point x="1606" y="740" type="curve" smooth="yes"/>
      <point x="1606" y="1198"/>
      <point x="1308" y="1502"/>
      <point x="862" y="1502" type="curve" smooth="yes"/>
      <point x="416" y="1502"/>
      <point x="118" y="1198"/>
      <point x="118" y="740" type="curve" smooth="yes"/>
      <point x="118" y="282"/>
      <point x="416" y="-22"/>
    </contour>
    <contour>
      <point x="896" y="324" type="curve" smooth="yes"/>
      <point x="974" y="324"/>
      <point x="1046" y="336"/>
      <point x="1114" y="366" type="curve"/>
      <point x="1114" y="432" type="line"/>
      <point x="1032" y="400"/>
      <point x="960" y="390"/>
      <point x="902" y="390" type="curve" smooth="yes"/>
      <point x="706" y="390"/>
      <point x="584" y="500"/>
      <point x="584" y="738" type="curve" smooth="yes"/>
      <point x="584" y="970"/>
      <point x="706" y="1078"/>
      <point x="924" y="1078" type="curve" smooth="yes"/>
      <point x="994" y="1078"/>
      <point x="1052" y="1068"/>
      <point x="1114" y="1050" type="curve"/>
      <point x="1114" y="1116" type="line"/>
      <point x="1050" y="1136"/>
      <point x="990" y="1144"/>
      <point x="922" y="1144" type="curve" smooth="yes"/>
      <point x="658" y="1144"/>
      <point x="512" y="996"/>
      <point x="512" y="734" type="curve" smooth="yes"/>
      <point x="512" y="462"/>
      <point x="666" y="324"/>
    </contour>
    <contour>
      <point x="862" y="46" type="curve" smooth="yes"/>
      <point x="456" y="46"/>
      <point x="186" y="322"/>
      <point x="186" y="740" type="curve" smooth="yes"/>
      <point x="186" y="1158"/>
      <point x="456" y="1434"/>
      <point x="862" y="1434" type="curve" smooth="yes"/>
      <point x="1268" y="1434"/>
      <point x="1538" y="1158"/>
      <point x="1538" y="740" type="curve" smooth="yes"/>
      <point x="1538" y="322"/>
      <point x="1268" y="46"/>
    </contour>
  </outline>
</glyph>
<glyph name="ordfeminine" format="2">
  <advance width="828"/>
  <unicode hex="00AA"/>
  <outline>
    <contour>
      <point x="352" y="596" type="curve" smooth="yes"/>
      <point x="463" y="596"/>
      <point x="566" y="640"/>
      <point x="630" y="712" type="curve"/>
      <point x="636" y="712" type="line"/>
      <point x="642" y="610" type="line"/>
      <point x="698" y="610" type="line"/>
      <point x="698" y="1203" type="line" smooth="yes"/>
      <point x="698" y="1422"/>
      <point x="586" y="1492"/>
      <point x="383" y="1492" type="curve" smooth="yes"/>
      <point x="302" y="1492"/>
      <point x="209" y="1478"/>
      <point x="137" y="1451" type="curve"/>
      <point x="137" y="1387" type="line"/>
      <point x="225" y="1417"/>
      <point x="311" y="1430"/>
      <point x="380" y="1430" type="curve" smooth="yes"/>
      <point x="543" y="1430"/>
      <point x="634" y="1382"/>
      <point x="634" y="1205" type="curve" smooth="yes"/>
      <point x="634" y="790" type="line"/>
      <point x="558" y="697"/>
      <point x="456" y="658"/>
      <point x="359" y="658" type="curve" smooth="yes"/>
      <point x="222" y="658"/>
      <point x="154" y="720"/>
      <point x="154" y="833" type="curve" smooth="yes"/>
      <point x="154" y="940"/>
      <point x="223" y="999"/>
      <point x="392" y="1017" type="curve" smooth="yes"/>
      <point x="671" y="1047" type="line"/>
      <point x="668" y="1106" type="line"/>
      <point x="391" y="1076" type="line" smooth="yes"/>
      <point x="177" y="1053"/>
      <point x="86" y="971"/>
      <point x="86" y="827" type="curve" smooth="yes"/>
      <point x="86" y="683"/>
      <point x="189" y="596"/>
    </contour>
  </outline>
</glyph>
<glyph name="logicalnot" format="2">
  <advance width="1334"/>
  <unicode hex="00AC"/>
  <outline>
    <contour>
      <point x="1110" y="192" type="line"/>
      <point x="1178" y="192" type="line"/>
      <point x="1178" y="792" type="line"/>
      <point x="167" y="792" type="line"/>
      <point x="167" y="728" type="line"/>
      <point x="1110" y="728" type="line"/>
    </contour>
  </outline>
</glyph>
<glyph name="registered" format="2">
  <advance width="1540"/>
  <unicode hex="00AE"/>
  <outline>
    <contour>
      <point x="770" y="268" type="curve" smooth="yes"/>
      <point x="1132" y="268"/>
      <point x="1380" y="518"/>
      <point x="1380" y="882" type="curve" smooth="yes"/>
      <point x="1380" y="1246"/>
      <point x="1132" y="1498"/>
      <point x="770" y="1498" type="curve" smooth="yes"/>
      <point x="408" y="1498"/>
      <point x="160" y="1246"/>
      <point x="160" y="882" type="curve" smooth="yes"/>
      <point x="160" y="518"/>
      <point x="408" y="268"/>
    </contour>
    <contour>
      <point x="948" y="600" type="line"/>
      <point x="1024" y="600" type="line"/>
      <point x="848" y="860" type="line"/>
      <point x="788" y="834" type="line"/>
    </contour>
    <contour>
      <point x="770" y="334" type="curve" smooth="yes"/>
      <point x="442" y="334"/>
      <point x="228" y="550"/>
      <point x="228" y="882" type="curve" smooth="yes"/>
      <point x="228" y="1214"/>
      <point x="442" y="1432"/>
      <point x="770" y="1432" type="curve" smooth="yes"/>
      <point x="1098" y="1432"/>
      <point x="1312" y="1214"/>
      <point x="1312" y="882" type="curve" smooth="yes"/>
      <point x="1312" y="550"/>
      <point x="1098" y="334"/>
    </contour>
    <contour>
      <point x="562" y="600" type="line"/>
      <point x="628" y="600" type="line"/>
      <point x="628" y="826" type="line"/>
      <point x="756" y="826" type="line" smooth="yes"/>
      <point x="918" y="826"/>
      <point x="1000" y="892"/>
      <point x="1000" y="1008" type="curve" smooth="yes"/>
      <point x="1000" y="1124"/>
      <point x="916" y="1192"/>
      <point x="756" y="1192" type="curve" smooth="yes"/>
      <point x="562" y="1192" type="line"/>
    </contour>
    <contour>
      <point x="628" y="888" type="line"/>
      <point x="628" y="1130" type="line"/>
      <point x="768" y="1130" type="line" smooth="yes"/>
      <point x="880" y="1130"/>
      <point x="934" y="1090"/>
      <point x="934" y="1008" type="curve" smooth="yes"/>
      <point x="934" y="926"/>
      <point x="882" y="888"/>
      <point x="768" y="888" type="curve" smooth="yes"/>
    </contour>
  </outline>
</glyph>
<glyph name="degree" format="2">
  <advance width="984"/>
  <unicode hex="00B0"/>
  <outline>
    <contour>
      <point x="492" y="832" type="curve" smooth="yes"/>
      <point x="686" y="832"/>
      <point x="824" y="972"/>
      <point x="824" y="1164" type="curve" smooth="yes"/>
      <point x="824" y="1356"/>
      <point x="686" y="1496"/>
      <point x="492" y="1496" type="curve" smooth="yes"/>
      <point x="298" y="1496"/>
      <point x="160" y="1356"/>
      <point x="160" y="1164" type="curve" smooth="yes"/>
      <point x="160" y="972"/>
      <point x="298" y="832"/>
    </contour>
    <contour>
      <point x="492" y="896" type="curve" smooth="yes"/>
      <point x="337" y="896"/>
      <point x="227" y="1000"/>
      <point x="227" y="1164" type="curve" smooth="yes"/>
      <point x="227" y="1328"/>
      <point x="337" y="1432"/>
      <point x="492" y="1432" type="curve" smooth="yes"/>
      <point x="647" y="1432"/>
      <point x="757" y="1328"/>
      <point x="757" y="1164" type="curve" smooth="yes"/>
      <point x="757" y="1000"/>
      <point x="647" y="896"/>
    </contour>
  </outline>
</glyph>
<glyph name="plusminus" format="2">
  <advance width="1062"/>
  <unicode hex="00B1"/>
  <outline>
    <contour>
      <point x="497" y="316" type="line"/>
      <point x="565" y="316" type="line"/>
      <point x="565" y="666" type="line"/>
      <point x="895" y="666" type="line"/>
      <point x="895" y="730" type="line"/>
      <point x="565" y="730" type="line"/>
      <point x="565" y="1080" type="line"/>
      <point x="497" y="1080" type="line"/>
      <point x="497" y="730" type="line"/>
      <point x="167" y="730" type="line"/>
      <point x="167" y="666" type="line"/>
      <point x="497" y="666" type="line"/>
    </contour>
    <contour>
      <point x="167" y="0" type="line"/>
      <point x="895" y="0" type="line"/>
      <point x="895" y="64" type="line"/>
      <point x="167" y="64" type="line"/>
    </contour>
  </outline>
</glyph>
<glyph name="micro" format="2">
  <advance width="1077"/>
  <unicode hex="00B5"/>
  <outline>
    <contour>
      <point x="486" y="-18" type="curve" smooth="yes"/>
      <point x="614" y="-18"/>
      <point x="739" y="29"/>
      <point x="833" y="124" type="curve"/>
      <point x="841" y="124" type="line"/>
      <point x="847" y="0" type="line"/>
      <point x="907" y="0" type="line"/>
      <point x="907" y="1080" type="line"/>
      <point x="839" y="1080" type="line"/>
      <point x="839" y="225" type="line"/>
      <point x="746" y="97"/>
      <point x="602" y="48"/>
      <point x="488" y="48" type="curve" smooth="yes"/>
      <point x="332" y="48"/>
      <point x="224" y="121"/>
      <point x="224" y="338" type="curve" smooth="yes"/>
      <point x="224" y="470" type="line"/>
      <point x="176" y="470" type="line"/>
      <point x="176" y="339" type="line" smooth="yes"/>
      <point x="176" y="74"/>
      <point x="294" y="-18"/>
    </contour>
    <contour>
      <point x="156" y="-440" type="line"/>
      <point x="224" y="-440" type="line"/>
      <point x="224" y="1080" type="line"/>
      <point x="156" y="1080" type="line"/>
    </contour>
  </outline>
</glyph>
<glyph name="paragraph" format="2">
  <advance width="1184"/>
  <unicode hex="00B6"/>
  <outline>
    <contour>
      <point x="728" y="0" type="line"/>
      <point x="796" y="0" type="line"/>
      <point x="796" y="1480" type="line"/>
      <point x="717" y="1488"/>
      <point x="626" y="1494"/>
      <point x="530" y="1494" type="curve" smooth="yes"/>
      <point x="250" y="1494"/>
      <point x="99" y="1343"/>
      <point x="99" y="1007" type="curve" smooth="yes"/>
      <point x="99" y="691"/>
      <point x="240" y="518"/>
      <point x="568" y="518" type="curve" smooth="yes"/>
      <point x="627" y="518"/>
      <point x="674" y="521"/>
      <point x="728" y="528" type="curve"/>
    </contour>
    <contour>
      <point x="926" y="0" type="line"/>
      <point x="994" y="0" type="line"/>
      <point x="994" y="1480" type="line"/>
      <point x="926" y="1480" type="line"/>
    </contour>
  </outline>
</glyph>
<glyph name="periodcentered" format="2">
  <advance width="406"/>
  <unicode hex="00B7"/>
  <anchor x="203" y="560" name="_periodcentered"/>
  <outline>
    <contour>
      <point x="203" y="496" type="curve" smooth="yes"/>
      <point x="239" y="496"/>
      <point x="265" y="520"/>
      <point x="265" y="558" type="curve" smooth="yes"/>
      <point x="265" y="596"/>
      <point x="239" y="622"/>
      <point x="203" y="622" type="curve" smooth="yes"/>
      <point x="167" y="622"/>
      <point x="141" y="596"/>
      <point x="141" y="558" type="curve" smooth="yes"/>
      <point x="141" y="520"/>
      <point x="167" y="496"/>
    </contour>
  </outline>
</glyph>
<glyph name="ordmasculine" format="2">
  <advance width="904"/>
  <unicode hex="00BA"/>
  <outline>
    <contour>
      <point x="452" y="596" type="curve" smooth="yes"/>
      <point x="665" y="596"/>
      <point x="812" y="728"/>
      <point x="812" y="1046" type="curve" smooth="yes"/>
      <point x="812" y="1364"/>
      <point x="665" y="1492"/>
      <point x="452" y="1492" type="curve" smooth="yes"/>
      <point x="239" y="1492"/>
      <point x="92" y="1364"/>
      <point x="92" y="1046" type="curve" smooth="yes"/>
      <point x="92" y="728"/>
      <point x="239" y="596"/>
    </contour>
    <contour>
      <point x="452" y="659" type="curve" smooth="yes"/>
      <point x="275" y="659"/>
      <point x="160" y="758"/>
      <point x="160" y="1046" type="curve" smooth="yes"/>
      <point x="160" y="1334"/>
      <point x="275" y="1429"/>
      <point x="452" y="1429" type="curve" smooth="yes"/>
      <point x="629" y="1429"/>
      <point x="744" y="1334"/>
      <point x="744" y="1046" type="curve" smooth="yes"/>
      <point x="744" y="758"/>
      <point x="629" y="659"/>
    </contour>
  </outline>
</glyph>
<glyph name="questiondown" format="2">
  <advance width="853"/>
  <unicode hex="00BF"/>
  <outline>
    <contour>
      <point x="493" y="780" type="line"/>
      <point x="445" y="780" type="line"/>
      <point x="435" y="395" type="line"/>
      <point x="154" y="280"/>
      <point x="64" y="155"/>
      <point x="64" y="-47" type="curve" smooth="yes"/>
      <point x="64" y="-267"/>
      <point x="217" y="-400"/>
      <point x="490" y="-400" type="curve" smooth="yes"/>
      <point x="603" y="-400"/>
      <point x="717" y="-381"/>
      <point x="809" y="-346" type="curve"/>
      <point x="809" y="-278" type="line"/>
      <point x="703" y="-317"/>
      <point x="600" y="-334"/>
      <point x="491" y="-334" type="curve" smooth="yes"/>
      <point x="259" y="-334"/>
      <point x="134" y="-230"/>
      <point x="134" y="-47" type="curve" smooth="yes"/>
      <point x="134" y="136"/>
      <point x="227" y="249"/>
      <point x="505" y="350" type="curve"/>
    </contour>
    <contour>
      <point x="469" y="1090" type="curve" smooth="yes"/>
      <point x="431" y="1090"/>
      <point x="407" y="1064"/>
      <point x="407" y="1028" type="curve" smooth="yes"/>
      <point x="407" y="990"/>
      <point x="433" y="964"/>
      <point x="469" y="964" type="curve" smooth="yes"/>
      <point x="505" y="964"/>
      <point x="531" y="990"/>
      <point x="531" y="1028" type="curve" smooth="yes"/>
      <point x="531" y="1064"/>
      <point x="505" y="1090"/>
    </contour>
  </outline>
</glyph>
<glyph name="AE" format="2">
  <advance width="1755"/>
  <unicode hex="00C6"/>
  <anchor x="951" y="0" name="bottom"/>
  <anchor x="860" y="1520" name="top"/>
  <outline>
    <contour>
      <point x="37" y="0" type="line"/>
      <point x="110" y="0" type="line"/>
      <point x="655" y="1414" type="line"/>
      <point x="857" y="1414" type="line"/>
      <point x="859" y="1480" type="line"/>
      <point x="611" y="1480" type="line"/>
    </contour>
    <contour>
      <point x="290" y="528" type="line"/>
      <point x="919" y="528" type="line"/>
      <point x="919" y="594" type="line"/>
      <point x="310" y="594" type="line"/>
    </contour>
    <contour>
      <point x="918" y="0" type="line"/>
      <point x="1684" y="0" type="line"/>
      <point x="1684" y="66" type="line"/>
      <point x="983" y="66" type="line"/>
      <point x="895" y="1414" type="line"/>
      <point x="1674" y="1414" type="line"/>
      <point x="1674" y="1480" type="line"/>
      <point x="824" y="1480" type="line"/>
    </contour>
    <contour>
      <point x="921" y="728" type="line"/>
      <point x="1579" y="728" type="line"/>
      <point x="1579" y="794" type="line"/>
      <point x="921" y="794" type="line"/>
    </contour>
  </outline>
</glyph>
<glyph name="multiply" format="2">
  <advance width="976"/>
  <unicode hex="00D7"/>
  <outline>
    <contour>
      <point x="180" y="408" type="line"/>
      <point x="488" y="716" type="line"/>
      <point x="796" y="408" type="line"/>
      <point x="840" y="452" type="line"/>
      <point x="532" y="760" type="line"/>
      <point x="840" y="1068" type="line"/>
      <point x="796" y="1112" type="line"/>
      <point x="488" y="804" type="line"/>
      <point x="180" y="1112" type="line"/>
      <point x="136" y="1068" type="line"/>
      <point x="444" y="760" type="line"/>
      <point x="136" y="452" type="line"/>
    </contour>
  </outline>
</glyph>
<glyph name="Thorn" format="2">
  <advance width="1194"/>
  <unicode hex="00DE"/>
  <outline>
    <contour>
      <point x="190" y="0" type="line"/>
      <point x="258" y="0" type="line"/>
      <point x="258" y="283" type="line"/>
      <point x="337" y="275"/>
      <point x="403" y="272"/>
      <point x="482" y="272" type="curve" smooth="yes"/>
      <point x="904" y="272"/>
      <point x="1085" y="445"/>
      <point x="1085" y="761" type="curve" smooth="yes"/>
      <point x="1085" y="1097"/>
      <point x="892" y="1248"/>
      <point x="530" y="1248" type="curve" smooth="yes"/>
      <point x="418" y="1248"/>
      <point x="328" y="1238"/>
      <point x="258" y="1226" type="curve"/>
      <point x="258" y="1481" type="line"/>
      <point x="190" y="1481" type="line"/>
    </contour>
    <contour>
      <point x="485" y="338" type="curve" smooth="yes"/>
      <point x="402" y="338"/>
      <point x="331" y="342"/>
      <point x="258" y="352" type="curve"/>
      <point x="258" y="1160" type="line"/>
      <point x="341" y="1174"/>
      <point x="428" y="1182"/>
      <point x="530" y="1182" type="curve" smooth="yes"/>
      <point x="854" y="1182"/>
      <point x="1013" y="1054"/>
      <point x="1013" y="758" type="curve" smooth="yes"/>
      <point x="1013" y="478"/>
      <point x="858" y="338"/>
    </contour>
  </outline>
</glyph>
<glyph name="germandbls" format="2">
  <advance width="1288"/>
  <unicode hex="00DF"/>
  <outline>
    <contour>
      <point x="826" y="-18" type="curve" smooth="yes"/>
      <point x="1080" y="-18"/>
      <point x="1208" y="96"/>
      <point x="1208" y="280" type="curve" smooth="yes"/>
      <point x="1208" y="426"/>
      <point x="1140" y="517"/>
      <point x="935" y="564" type="curve" smooth="yes"/>
      <point x="806" y="592" type="line" smooth="yes"/>
      <point x="660" y="625"/>
      <point x="607" y="697"/>
      <point x="607" y="806" type="curve" smooth="yes"/>
      <point x="607" y="933"/>
      <point x="695" y="1030"/>
      <point x="917" y="1030" type="curve" smooth="yes"/>
      <point x="985" y="1030"/>
      <point x="1024" y="1023"/>
      <point x="1062" y="1015" type="curve"/>
      <point x="1074" y="1061"/>
      <point x="1086" y="1144"/>
      <point x="1086" y="1209" type="curve" smooth="yes"/>
      <point x="1086" y="1513"/>
      <point x="908" y="1636"/>
      <point x="674" y="1636" type="curve" smooth="yes"/>
      <point x="399" y="1636"/>
      <point x="235" y="1485"/>
      <point x="235" y="1152" type="curve" smooth="yes"/>
      <point x="235" y="0" type="line"/>
      <point x="303" y="0" type="line"/>
      <point x="303" y="1146" type="line" smooth="yes"/>
      <point x="303" y="1455"/>
      <point x="442" y="1570"/>
      <point x="674" y="1570" type="curve" smooth="yes"/>
      <point x="871" y="1570"/>
      <point x="1021" y="1479"/>
      <point x="1021" y="1206" type="curve" smooth="yes"/>
      <point x="1021" y="1161"/>
      <point x="1015" y="1108"/>
      <point x="1005" y="1063" type="curve"/>
      <point x="1042" y="1084" type="line"/>
      <point x="998" y="1091"/>
      <point x="956" y="1094"/>
      <point x="917" y="1094" type="curve" smooth="yes"/>
      <point x="658" y="1094"/>
      <point x="536" y="969"/>
      <point x="536" y="801" type="curve" smooth="yes"/>
      <point x="536" y="659"/>
      <point x="607" y="564"/>
      <point x="801" y="520" type="curve" smooth="yes"/>
      <point x="930" y="492" type="line" smooth="yes"/>
      <point x="1078" y="459"/>
      <point x="1137" y="399"/>
      <point x="1137" y="274" type="curve" smooth="yes"/>
      <point x="1137" y="130"/>
      <point x="1040" y="48"/>
      <point x="827" y="48" type="curve" smooth="yes"/>
      <point x="738" y="48"/>
      <point x="658" y="58"/>
      <point x="552" y="90" type="curve"/>
      <point x="552" y="22" type="line"/>
      <point x="638" y="-6"/>
      <point x="725" y="-18"/>
    </contour>
    <contour>
      <point x="15" y="1014" type="line"/>
      <point x="284" y="1014" type="line"/>
      <point x="284" y="1080" type="line"/>
      <point x="15" y="1080" type="line"/>
    </contour>
  </outline>
</glyph>
<glyph name="ae" format="2">
  <advance width="1619"/>
  <unicode hex="00E6"/>
  <anchor x="789" y="0" name="bottom"/>
  <anchor x="789" y="1200" name="top"/>
  <outline>
    <contour>
      <point x="1211" y="-18" type="curve" smooth="yes"/>
      <point x="1296" y="-18"/>
      <point x="1382" y="-4"/>
      <point x="1478" y="29" type="curve"/>
      <point x="1478" y="97" type="line"/>
      <point x="1377" y="64"/>
      <point x="1293" y="48"/>
      <point x="1215" y="48" type="curve" smooth="yes"/>
      <point x="966" y="48"/>
      <point x="823" y="178"/>
      <point x="823" y="535" type="curve" smooth="yes"/>
      <point x="823" y="550" type="line" smooth="yes"/>
      <point x="823" y="905"/>
      <point x="949" y="1031"/>
      <point x="1144" y="1031" type="curve" smooth="yes"/>
      <point x="1339" y="1031"/>
      <point x="1457" y="907"/>
      <point x="1457" y="544" type="curve"/>
      <point x="1484" y="576" type="line"/>
      <point x="796" y="576" type="line"/>
      <point x="796" y="510" type="line"/>
      <point x="1528" y="510" type="line"/>
      <point x="1528" y="542" type="line" smooth="yes"/>
      <point x="1528" y="936"/>
      <point x="1382" y="1097"/>
      <point x="1144" y="1097" type="curve" smooth="yes"/>
      <point x="909" y="1097"/>
      <point x="761" y="938"/>
      <point x="761" y="551" type="curve"/>
      <point x="755" y="542" type="line"/>
      <point x="755" y="141"/>
      <point x="920" y="-18"/>
    </contour>
    <contour>
      <point x="424" y="-16" type="curve" smooth="yes"/>
      <point x="565" y="-16"/>
      <point x="707" y="35"/>
      <point x="834" y="218" type="curve"/>
      <point x="795" y="280" type="line"/>
      <point x="696" y="106"/>
      <point x="555" y="50"/>
      <point x="427" y="50" type="curve" smooth="yes"/>
      <point x="267" y="50"/>
      <point x="182" y="127"/>
      <point x="182" y="272" type="curve" smooth="yes"/>
      <point x="182" y="409"/>
      <point x="262" y="510"/>
      <point x="495" y="510" type="curve" smooth="yes"/>
      <point x="785" y="510" type="line"/>
      <point x="785" y="576" type="line"/>
      <point x="500" y="576" type="line" smooth="yes"/>
      <point x="215" y="576"/>
      <point x="108" y="446"/>
      <point x="108" y="266" type="curve" smooth="yes"/>
      <point x="108" y="85"/>
      <point x="234" y="-16"/>
    </contour>
    <contour>
      <point x="755" y="542" type="line"/>
      <point x="817" y="522" type="line"/>
      <point x="817" y="749" type="line" smooth="yes"/>
      <point x="817" y="1012"/>
      <point x="686" y="1096"/>
      <point x="457" y="1096" type="curve" smooth="yes"/>
      <point x="362" y="1096"/>
      <point x="249" y="1079"/>
      <point x="166" y="1047" type="curve"/>
      <point x="166" y="979" type="line"/>
      <point x="270" y="1016"/>
      <point x="375" y="1030"/>
      <point x="457" y="1030" type="curve" smooth="yes"/>
      <point x="647" y="1030"/>
      <point x="755" y="972"/>
      <point x="755" y="749" type="curve" smooth="yes"/>
    </contour>
  </outline>
</glyph>
<glyph name="eth" format="2">
  <advance width="1058"/>
  <unicode hex="00F0"/>
  <outline>
    <contour>
      <point x="531" y="-18" type="curve" smooth="yes"/>
      <point x="781" y="-18"/>
      <point x="948" y="158"/>
      <point x="948" y="570" type="curve" smooth="yes"/>
      <point x="948" y="978"/>
      <point x="722" y="1410"/>
      <point x="439" y="1616" type="curve"/>
      <point x="344" y="1616" type="line"/>
      <point x="614" y="1413"/>
      <point x="748" y="1177"/>
      <point x="822" y="937" type="curve"/>
      <point x="865" y="894" type="line"/>
      <point x="783" y="1051"/>
      <point x="663" y="1096"/>
      <point x="529" y="1096" type="curve" smooth="yes"/>
      <point x="277" y="1096"/>
      <point x="108" y="937"/>
      <point x="108" y="540" type="curve" smooth="yes"/>
      <point x="108" y="139"/>
      <point x="277" y="-18"/>
    </contour>
    <contour>
      <point x="531" y="48" type="curve" smooth="yes"/>
      <point x="317" y="48"/>
      <point x="180" y="172"/>
      <point x="180" y="543" type="curve" smooth="yes"/>
      <point x="180" y="908"/>
      <point x="317" y="1030"/>
      <point x="529" y="1030" type="curve" smooth="yes"/>
      <point x="741" y="1030"/>
      <point x="878" y="908"/>
      <point x="878" y="537" type="curve" smooth="yes"/>
      <point x="878" y="187"/>
      <point x="739" y="48"/>
    </contour>
    <contour>
      <point x="214" y="1248" type="line"/>
      <point x="927" y="1363" type="line"/>
      <point x="918" y="1421" type="line"/>
      <point x="205" y="1306" type="line"/>
    </contour>
  </outline>
</glyph>
<glyph name="divide" format="2">
  <advance width="1062"/>
  <unicode hex="00F7"/>
  <outline>
    <contour>
      <point x="167" y="728" type="line"/>
      <point x="895" y="728" type="line"/>
      <point x="895" y="792" type="line"/>
      <point x="167" y="792" type="line"/>
    </contour>
    <contour>
      <point x="531" y="368" type="curve" smooth="yes"/>
      <point x="567" y="368"/>
      <point x="593" y="392"/>
      <point x="593" y="430" type="curve" smooth="yes"/>
      <point x="593" y="468"/>
      <point x="567" y="494"/>
      <point x="531" y="494" type="curve" smooth="yes"/>
      <point x="495" y="494"/>
      <point x="469" y="468"/>
      <point x="469" y="430" type="curve" smooth="yes"/>
      <point x="469" y="392"/>
      <point x="495" y="368"/>
    </contour>
    <contour>
      <point x="531" y="1026" type="curve" smooth="yes"/>
      <point x="567" y="1026"/>
      <point x="593" y="1050"/>
      <point x="593" y="1088" type="curve" smooth="yes"/>
      <point x="593" y="1126"/>
      <point x="567" y="1152"/>
      <point x="531" y="1152" type="curve" smooth="yes"/>
      <point x="495" y="1152"/>
      <point x="469" y="1126"/>
      <point x="469" y="1088" type="curve" smooth="yes"/>
      <point x="469" y="1050"/>
      <point x="495" y="1026"/>
    </contour>
  </outline>
</glyph>
<glyph name="oslash" format="2">
  <advance width="1058"/>
  <unicode hex="00F8"/>
  <anchor x="529" y="540" name="_center"/>
  <anchor x="529" y="0" name="bottom"/>
  <anchor x="529" y="540" name="center"/>
  <anchor x="663" y="0" name="ogonek"/>
  <anchor x="523" y="1200" name="top"/>
  <anchor x="655" y="1080" name="topright"/>
  <outline>
    <contour>
      <point x="852.5" y="943" type="curve"/>
      <point x="949.5" y="1080" type="line"/>
      <point x="872.5" y="1080" type="line"/>
      <point x="811" y="993" type="line"/>
      <point x="739" y="1064.5"/>
      <point x="642.5" y="1096"/>
      <point x="529" y="1096" type="curve" smooth="yes"/>
      <point x="277" y="1096"/>
      <point x="108" y="937"/>
      <point x="108" y="540" type="curve" smooth="yes"/>
      <point x="108" y="358"/>
      <point x="143" y="226.5"/>
      <point x="205.5" y="137" type="curve"/>
      <point x="108.5" y="0" type="line"/>
      <point x="185.5" y="0" type="line"/>
      <point x="246.5" y="86" type="line"/>
      <point x="318.5" y="14"/>
      <point x="415" y="-18"/>
      <point x="529" y="-18" type="curve" smooth="yes"/>
      <point x="781" y="-18"/>
      <point x="950" y="143"/>
      <point x="950" y="540" type="curve" smooth="yes"/>
      <point x="950" y="722"/>
      <point x="914.5" y="853.5"/>
    </contour>
    <contour>
      <point x="529" y="1030" type="curve" smooth="yes"/>
      <point x="628" y="1030"/>
      <point x="711" y="1003"/>
      <point x="771" y="936" type="curve"/>
      <point x="248.5" y="199" type="line"/>
      <point x="204.5" y="276.5"/>
      <point x="180" y="388.5"/>
      <point x="180" y="543" type="curve" smooth="yes"/>
      <point x="180" y="908"/>
      <point x="317" y="1030"/>
    </contour>
    <contour>
      <point x="529" y="48" type="curve" smooth="yes"/>
      <point x="429.5" y="48"/>
      <point x="347" y="75.5"/>
      <point x="287" y="143.5" type="curve"/>
      <point x="809" y="881" type="line"/>
      <point x="853.5" y="803.5"/>
      <point x="878" y="691.5"/>
      <point x="878" y="537" type="curve" smooth="yes"/>
      <point x="878" y="172"/>
      <point x="741" y="48"/>
    </contour>
  </outline>
</glyph>
<glyph name="thorn" format="2">
  <advance width="1071"/>
  <unicode hex="00FE"/>
  <outline>
    <contour>
      <point x="170" y="-440" type="line"/>
      <point x="238" y="-440" type="line"/>
      <point x="238" y="-1" type="line"/>
      <point x="298" y="-10"/>
      <point x="373" y="-18"/>
      <point x="444" y="-18" type="curve" smooth="yes"/>
      <point x="783" y="-18"/>
      <point x="963" y="163"/>
      <point x="963" y="560" type="curve" smooth="yes"/>
      <point x="963" y="962"/>
      <point x="779" y="1096"/>
      <point x="555" y="1096" type="curve" smooth="yes"/>
      <point x="418" y="1096"/>
      <point x="312" y="1040"/>
      <point x="244" y="963" type="curve"/>
      <point x="238" y="963" type="line"/>
      <point x="238" y="1616" type="line"/>
      <point x="170" y="1616" type="line"/>
    </contour>
    <contour>
      <point x="447" y="48" type="curve" smooth="yes"/>
      <point x="375" y="48"/>
      <point x="294" y="57"/>
      <point x="238" y="71" type="curve"/>
      <point x="238" y="864" type="line"/>
      <point x="312" y="979"/>
      <point x="433" y="1030"/>
      <point x="550" y="1030" type="curve" smooth="yes"/>
      <point x="742" y="1030"/>
      <point x="891" y="925"/>
      <point x="891" y="552" type="curve" smooth="yes"/>
      <point x="891" y="196"/>
      <point x="740" y="48"/>
    </contour>
  </outline>
</glyph>
<glyph name="aogonek" format="2">
  <advance width="979"/>
  <unicode hex="0105"/>
  <anchor x="499" y="0" name="bottom"/>
  <anchor x="823" y="0" name="ogonek"/>
  <anchor x="485" y="1200" name="top"/>
  <outline>
    <contour>
      <point x="422" y="-16" type="curve" smooth="yes"/>
      <point x="554" y="-16"/>
      <point x="675" y="38"/>
      <point x="749" y="128" type="curve"/>
      <point x="757" y="128" type="line"/>
      <point x="763" y="0" type="line"/>
      <point x="823" y="0" type="line"/>
      <point x="823" y="746" type="line" smooth="yes"/>
      <point x="823" y="1012"/>
      <point x="689" y="1096"/>
      <point x="457" y="1096" type="curve" smooth="yes"/>
      <point x="362" y="1096"/>
      <point x="249" y="1079"/>
      <point x="166" y="1047" type="curve"/>
      <point x="166" y="979" type="line"/>
      <point x="270" y="1016"/>
      <point x="375" y="1030"/>
      <point x="457" y="1030" type="curve" smooth="yes"/>
      <point x="647" y="1030"/>
      <point x="755" y="972"/>
      <point x="755" y="746" type="curve" smooth="yes"/>
      <point x="755" y="220" type="line"/>
      <point x="664" y="98"/>
      <point x="542" y="50"/>
      <point x="425" y="50" type="curve" smooth="yes"/>
      <point x="263" y="50"/>
      <point x="182" y="127"/>
      <point x="182" y="273" type="curve" smooth="yes"/>
      <point x="182" y="410"/>
      <point x="264" y="485"/>
      <point x="465" y="508" type="curve" smooth="yes"/>
      <point x="797" y="547" type="line"/>
      <point x="794" y="613" type="line"/>
      <point x="467" y="574" type="line" smooth="yes"/>
      <point x="217" y="545"/>
      <point x="108" y="447"/>
      <point x="108" y="267" type="curve" smooth="yes"/>
      <point x="108" y="86"/>
      <point x="229" y="-16"/>
    </contour>
    <component base="ogonekcomb" xOffset="223"/>
  </outline>
</glyph>
<glyph name="eogonek" format="2">
  <advance width="984"/>
  <unicode hex="0119"/>
  <outline>
    <contour>
      <point x="693" y="-400" type="curve" smooth="yes"/>
      <point x="742" y="-400"/>
      <point x="800" y="-385"/>
      <point x="843" y="-359" type="curve"/>
      <point x="843" y="-303" type="line"/>
      <point x="793" y="-333"/>
      <point x="742" y="-348"/>
      <point x="690" y="-348" type="curve" smooth="yes"/>
      <point x="609" y="-348"/>
      <point x="560" y="-304"/>
      <point x="560" y="-227" type="curve" smooth="yes"/>
      <point x="560" y="-144"/>
      <point x="612" y="-45"/>
      <point x="843" y="29" type="curve"/>
      <point x="843" y="97" type="line"/>
      <point x="740" y="64"/>
      <point x="656" y="48"/>
      <point x="576" y="48" type="curve" smooth="yes"/>
      <point x="323" y="48"/>
      <point x="180" y="178"/>
      <point x="180" y="535" type="curve" smooth="yes"/>
      <point x="180" y="550" type="line" smooth="yes"/>
      <point x="180" y="905"/>
      <point x="309" y="1030"/>
      <point x="507" y="1030" type="curve" smooth="yes"/>
      <point x="704" y="1030"/>
      <point x="822" y="904"/>
      <point x="822" y="550" type="curve"/>
      <point x="849" y="576" type="line"/>
      <point x="141" y="576" type="line"/>
      <point x="141" y="510" type="line"/>
      <point x="893" y="510" type="line"/>
      <point x="893" y="540" type="line" smooth="yes"/>
      <point x="893" y="934"/>
      <point x="747" y="1096"/>
      <point x="507" y="1096" type="curve" smooth="yes"/>
      <point x="269" y="1096"/>
      <point x="108" y="933"/>
      <point x="108" y="540" type="curve" smooth="yes"/>
      <point x="108" y="141"/>
      <point x="277" y="-18"/>
      <point x="572" y="-18" type="curve" smooth="yes"/>
      <point x="600" y="-18"/>
      <point x="630" y="-16"/>
      <point x="657" y="-12" type="curve"/>
      <point x="654" y="-1" type="line"/>
      <point x="557" y="-56"/>
      <point x="504" y="-138"/>
      <point x="504" y="-231" type="curve" smooth="yes"/>
      <point x="504" y="-336"/>
      <point x="575" y="-400"/>
    </contour>
  </outline>
</glyph>
<glyph name="idotless" format="2">
  <advance width="408"/>
  <unicode hex="0131"/>
  <anchor x="204" y="0" name="bottom"/>
  <anchor x="238" y="0" name="ogonek"/>
  <anchor x="204" y="1200" name="top"/>
  <outline>
    <contour>
      <point x="170" y="0" type="line"/>
      <point x="238" y="0" type="line"/>
      <point x="238" y="1080" type="line"/>
      <point x="170" y="1080" type="line"/>
    </contour>
  </outline>
</glyph>
<glyph name="kgreenlandic" format="2">
  <advance width="957"/>
  <unicode hex="0138"/>
  <outline>
    <contour>
      <point x="887" y="0" type="line"/>
      <point x="972" y="0" type="line"/>
      <point x="500" y="563" type="line"/>
      <point x="500" y="541" type="line"/>
      <point x="940" y="1080" type="line"/>
      <point x="856" y="1080" type="line"/>
      <point x="423" y="552" type="line"/>
    </contour>
    <contour>
      <point x="170" y="0" type="line"/>
      <point x="238" y="0" type="line"/>
      <point x="238" y="1080" type="line"/>
      <point x="170" y="1080" type="line"/>
    </contour>
    <contour>
      <point x="222" y="520" type="line"/>
      <point x="466" y="520" type="line"/>
      <point x="466" y="584" type="line"/>
      <point x="222" y="584" type="line"/>
    </contour>
  </outline>
</glyph>
<glyph name="ldot" format="2">
  <advance width="408"/>
  <unicode hex="0140"/>
  <outline>
    <contour>
      <point x="170" y="0" type="line"/>
      <point x="238" y="0" type="line"/>
      <point x="238" y="1616" type="line"/>
      <point x="170" y="1616" type="line"/>
    </contour>
    <contour>
      <point x="397" y="730" type="curve" smooth="yes"/>
      <point x="433" y="730"/>
      <point x="459" y="754"/>
      <point x="459" y="792" type="curve" smooth="yes"/>
      <point x="459" y="830"/>
      <point x="433" y="856"/>
      <point x="397" y="856" type="curve" smooth="yes"/>
      <point x="361" y="856"/>
      <point x="335" y="830"/>
      <point x="335" y="792" type="curve" smooth="yes"/>
      <point x="335" y="754"/>
      <point x="361" y="730"/>
    </contour>
  </outline>
</glyph>
<glyph name="Eng" format="2">
  <advance width="1427"/>
  <unicode hex="014A"/>
  <outline>
    <contour>
      <point x="1175" y="-21" type="line"/>
      <point x="1216" y="39" type="line"/>
      <point x="265" y="1480" type="line"/>
      <point x="190" y="1480" type="line"/>
      <point x="190" y="0" type="line"/>
      <point x="256" y="0" type="line"/>
      <point x="256" y="1420" type="line"/>
      <point x="224" y="1420" type="line"/>
    </contour>
    <contour>
      <point x="1027" y="-460" type="line"/>
      <point x="1172" y="-262"/>
      <point x="1237" y="-88"/>
      <point x="1237" y="173" type="curve" smooth="yes"/>
      <point x="1237" y="1480" type="line"/>
      <point x="1171" y="1480" type="line"/>
      <point x="1171" y="166" type="line" smooth="yes"/>
      <point x="1171" y="-74"/>
      <point x="1111" y="-242"/>
      <point x="978" y="-425" type="curve"/>
    </contour>
  </outline>
</glyph>
<glyph name="eng" format="2">
  <advance width="1087"/>
  <unicode hex="014B"/>
  <outline>
    <contour>
      <point x="721" y="-460" type="line"/>
      <point x="866" y="-262"/>
      <point x="931" y="-98"/>
      <point x="931" y="133" type="curve" smooth="yes"/>
      <point x="931" y="739" type="line" smooth="yes"/>
      <point x="931" y="1004"/>
      <point x="793" y="1096"/>
      <point x="597" y="1096" type="curve" smooth="yes"/>
      <point x="464" y="1096"/>
      <point x="339" y="1049"/>
      <point x="244" y="951" type="curve"/>
      <point x="236" y="951" type="line"/>
      <point x="230" y="1080" type="line"/>
      <point x="170" y="1080" type="line"/>
      <point x="170" y="0" type="line"/>
      <point x="238" y="0" type="line"/>
      <point x="238" y="852" type="line"/>
      <point x="332" y="981"/>
      <point x="476" y="1030"/>
      <point x="594" y="1030" type="curve" smooth="yes"/>
      <point x="755" y="1030"/>
      <point x="863" y="957"/>
      <point x="863" y="740" type="curve" smooth="yes"/>
      <point x="863" y="166" type="line" smooth="yes"/>
      <point x="863" y="-74"/>
      <point x="805" y="-242"/>
      <point x="672" y="-425" type="curve"/>
    </contour>
  </outline>
</glyph>
<glyph name="OE" format="2">
  <advance width="1946"/>
  <unicode hex="0152"/>
  <anchor x="1087" y="0" name="bottom"/>
  <anchor x="1087" y="1520" name="top"/>
  <outline>
    <contour>
      <point x="818" y="-10" type="curve" smooth="yes"/>
      <point x="927" y="-10"/>
      <point x="1037" y="0"/>
      <point x="1116" y="0" type="curve" smooth="yes"/>
      <point x="1875" y="0" type="line"/>
      <point x="1875" y="66" type="line"/>
      <point x="1121" y="66" type="line"/>
      <point x="1121" y="1414" type="line"/>
      <point x="1865" y="1414" type="line"/>
      <point x="1865" y="1480" type="line"/>
      <point x="1103" y="1480" type="line" smooth="yes"/>
      <point x="1018" y="1480"/>
      <point x="912" y="1494"/>
      <point x="800" y="1494" type="curve" smooth="yes"/>
      <point x="355" y="1494"/>
      <point x="118" y="1250"/>
      <point x="118" y="740" type="curve" smooth="yes"/>
      <point x="118" y="222"/>
      <point x="364" y="-10"/>
    </contour>
    <contour>
      <point x="816" y="56" type="curve" smooth="yes"/>
      <point x="404" y="56"/>
      <point x="190" y="259"/>
      <point x="190" y="740" type="curve" smooth="yes"/>
      <point x="190" y="1216"/>
      <point x="395" y="1428"/>
      <point x="805" y="1428" type="curve" smooth="yes"/>
      <point x="896" y="1428"/>
      <point x="971" y="1423"/>
      <point x="1053" y="1413" type="curve"/>
      <point x="1053" y="67" type="line"/>
      <point x="992" y="59"/>
      <point x="917" y="56"/>
    </contour>
    <contour>
      <point x="1113" y="728" type="line"/>
      <point x="1770" y="728" type="line"/>
      <point x="1770" y="794" type="line"/>
      <point x="1113" y="794" type="line"/>
    </contour>
  </outline>
</glyph>
<glyph name="oe" format="2">
  <advance width="1738"/>
  <unicode hex="0153"/>
  <anchor x="906" y="0" name="bottom"/>
  <anchor x="906" y="1200" name="top"/>
  <outline>
    <contour>
      <point x="525" y="-18" type="curve" smooth="yes"/>
      <point x="772" y="-18"/>
      <point x="935" y="143"/>
      <point x="935" y="540" type="curve" smooth="yes"/>
      <point x="935" y="941"/>
      <point x="772" y="1096"/>
      <point x="525" y="1096" type="curve" smooth="yes"/>
      <point x="277" y="1096"/>
      <point x="108" y="937"/>
      <point x="108" y="540" type="curve" smooth="yes"/>
      <point x="108" y="139"/>
      <point x="277" y="-18"/>
    </contour>
    <contour>
      <point x="525" y="48" type="curve" smooth="yes"/>
      <point x="317" y="48"/>
      <point x="180" y="172"/>
      <point x="180" y="543" type="curve" smooth="yes"/>
      <point x="180" y="908"/>
      <point x="317" y="1030"/>
      <point x="525" y="1030" type="curve" smooth="yes"/>
      <point x="733" y="1030"/>
      <point x="870" y="908"/>
      <point x="870" y="537" type="curve" smooth="yes"/>
      <point x="870" y="172"/>
      <point x="733" y="48"/>
    </contour>
    <contour>
      <point x="1330" y="-18" type="curve" smooth="yes"/>
      <point x="1415" y="-18"/>
      <point x="1501" y="-4"/>
      <point x="1597" y="29" type="curve"/>
      <point x="1597" y="97" type="line"/>
      <point x="1496" y="64"/>
      <point x="1413" y="48"/>
      <point x="1334" y="48" type="curve" smooth="yes"/>
      <point x="1085" y="48"/>
      <point x="942" y="178"/>
      <point x="942" y="535" type="curve" smooth="yes"/>
      <point x="942" y="550" type="line" smooth="yes"/>
      <point x="942" y="905"/>
      <point x="1068" y="1031"/>
      <point x="1263" y="1031" type="curve" smooth="yes"/>
      <point x="1458" y="1031"/>
      <point x="1576" y="907"/>
      <point x="1576" y="544" type="curve"/>
      <point x="1603" y="576" type="line"/>
      <point x="915" y="576" type="line"/>
      <point x="915" y="510" type="line"/>
      <point x="1647" y="510" type="line"/>
      <point x="1647" y="542" type="line" smooth="yes"/>
      <point x="1647" y="936"/>
      <point x="1501" y="1097"/>
      <point x="1263" y="1097" type="curve" smooth="yes"/>
      <point x="1028" y="1097"/>
      <point x="880" y="938"/>
      <point x="880" y="551" type="curve"/>
      <point x="874" y="542" type="line"/>
      <point x="874" y="143"/>
      <point x="1038" y="-18"/>
    </contour>
  </outline>
</glyph>
<glyph name="Uogonek" format="2">
  <advance width="1372"/>
  <unicode hex="0172"/>
  <outline>
    <contour>
      <point x="780" y="-398" type="curve" smooth="yes"/>
      <point x="835" y="-398"/>
      <point x="891" y="-385"/>
      <point x="947" y="-359" type="curve"/>
      <point x="947" y="-305" type="line"/>
      <point x="877" y="-334"/>
      <point x="829" y="-346"/>
      <point x="777" y="-346" type="curve" smooth="yes"/>
      <point x="679" y="-346"/>
      <point x="627" y="-305"/>
      <point x="627" y="-224" type="curve" smooth="yes"/>
      <point x="627" y="-137"/>
      <point x="689" y="-51"/>
      <point x="882" y="5" type="curve" smooth="yes"/>
      <point x="1103" y="68"/>
      <point x="1190" y="245"/>
      <point x="1190" y="529" type="curve" smooth="yes"/>
      <point x="1190" y="1480" type="line"/>
      <point x="1124" y="1480" type="line"/>
      <point x="1124" y="519" type="line" smooth="yes"/>
      <point x="1124" y="194"/>
      <point x="992" y="48"/>
      <point x="687" y="48" type="curve" smooth="yes"/>
      <point x="382" y="48"/>
      <point x="250" y="194"/>
      <point x="250" y="519" type="curve" smooth="yes"/>
      <point x="250" y="1480" type="line"/>
      <point x="182" y="1480" type="line"/>
      <point x="182" y="529" type="line" smooth="yes"/>
      <point x="182" y="150"/>
      <point x="340" y="-18"/>
      <point x="687" y="-18" type="curve" smooth="yes"/>
      <point x="732" y="-18" type="line"/>
      <point x="725" y="-5" type="line"/>
      <point x="613" y="-62"/>
      <point x="571" y="-143"/>
      <point x="571" y="-225" type="curve" smooth="yes"/>
      <point x="571" y="-337"/>
      <point x="644" y="-398"/>
    </contour>
  </outline>
</glyph>
<glyph name="uogonek" format="2">
  <advance width="1077"/>
  <unicode hex="0173"/>
  <anchor x="532" y="0" name="bottom"/>
  <anchor x="907" y="0" name="ogonek"/>
  <anchor x="532" y="1200" name="top"/>
  <anchor x="839" y="1080" name="topright"/>
  <outline>
    <contour>
      <point x="486" y="-18" type="curve" smooth="yes"/>
      <point x="614" y="-18"/>
      <point x="739" y="29"/>
      <point x="833" y="124" type="curve"/>
      <point x="841" y="124" type="line"/>
      <point x="847" y="0" type="line"/>
      <point x="907" y="0" type="line"/>
      <point x="907" y="1080" type="line"/>
      <point x="839" y="1080" type="line"/>
      <point x="839" y="225" type="line"/>
      <point x="746" y="97"/>
      <point x="602" y="48"/>
      <point x="488" y="48" type="curve" smooth="yes"/>
      <point x="332" y="48"/>
      <point x="224" y="121"/>
      <point x="224" y="338" type="curve" smooth="yes"/>
      <point x="224" y="1080" type="line"/>
      <point x="156" y="1080" type="line"/>
      <point x="156" y="339" type="line" smooth="yes"/>
      <point x="156" y="74"/>
      <point x="294" y="-18"/>
    </contour>
    <component base="ogonekcomb" xOffset="307"/>
  </outline>
</glyph>
<glyph name="Schwa" format="2">
  <advance width="1370"/>
  <unicode hex="018F"/>
  <anchor x="686" y="0" name="bottom"/>
  <anchor x="686" y="1520" name="top"/>
  <outline>
    <contour>
      <point x="684" y="-18" type="curve" smooth="yes"/>
      <point x="1023" y="-18"/>
      <point x="1252" y="189"/>
      <point x="1252" y="739" type="curve" smooth="yes"/>
      <point x="1252" y="1288"/>
      <point x="993" y="1498"/>
      <point x="561" y="1498" type="curve" smooth="yes"/>
      <point x="432" y="1498"/>
      <point x="309" y="1485"/>
      <point x="181" y="1451" type="curve"/>
      <point x="181" y="1383" type="line"/>
      <point x="307" y="1419"/>
      <point x="446" y="1432"/>
      <point x="559" y="1432" type="curve" smooth="yes"/>
      <point x="961" y="1432"/>
      <point x="1180" y="1258"/>
      <point x="1180" y="737" type="curve" smooth="yes"/>
      <point x="1180" y="224"/>
      <point x="980" y="49"/>
      <point x="684" y="49" type="curve" smooth="yes"/>
      <point x="374" y="49"/>
      <point x="180" y="224"/>
      <point x="180" y="738" type="curve"/>
      <point x="150" y="714" type="line"/>
      <point x="1209" y="714" type="line"/>
      <point x="1209" y="780" type="line"/>
      <point x="108" y="780" type="line"/>
      <point x="108" y="730" type="line" smooth="yes"/>
      <point x="108" y="191"/>
      <point x="334" y="-18"/>
    </contour>
  </outline>
</glyph>
<glyph name="florin" format="2">
  <advance width="667"/>
  <unicode hex="0192"/>
  <outline>
    <contour>
      <point x="-33" y="-460" type="curve" smooth="yes"/>
      <point x="189" y="-460"/>
      <point x="303" y="-353"/>
      <point x="303" y="-134" type="curve" smooth="yes"/>
      <point x="303" y="1317" type="line" smooth="yes"/>
      <point x="303" y="1498"/>
      <point x="393" y="1570"/>
      <point x="567" y="1570" type="curve" smooth="yes"/>
      <point x="616" y="1570"/>
      <point x="655" y="1565"/>
      <point x="713" y="1556" type="curve"/>
      <point x="713" y="1624" type="line"/>
      <point x="664" y="1633"/>
      <point x="613" y="1636"/>
      <point x="571" y="1636" type="curve" smooth="yes"/>
      <point x="349" y="1636"/>
      <point x="235" y="1529"/>
      <point x="235" y="1310" type="curve" smooth="yes"/>
      <point x="235" y="-141" type="line" smooth="yes"/>
      <point x="235" y="-322"/>
      <point x="145" y="-394"/>
      <point x="-29" y="-394" type="curve" smooth="yes"/>
      <point x="-78" y="-394"/>
      <point x="-117" y="-389"/>
      <point x="-175" y="-380" type="curve"/>
      <point x="-175" y="-448" type="line"/>
      <point x="-126" y="-457"/>
      <point x="-75" y="-460"/>
    </contour>
    <contour>
      <point x="15" y="1014" type="line"/>
      <point x="674" y="1014" type="line"/>
      <point x="674" y="1080" type="line"/>
      <point x="15" y="1080" type="line"/>
    </contour>
  </outline>
</glyph>
<glyph name="Ohorn" format="2">
  <advance width="1368"/>
  <unicode hex="01A0"/>
  <anchor x="684" y="0" name="bottom"/>
  <anchor x="684" y="1520" name="top"/>
  <outline>
    <contour>
      <point x="684" y="-18" type="curve" smooth="yes"/>
      <point x="1021" y="-18"/>
      <point x="1250" y="189"/>
      <point x="1250" y="740" type="curve" smooth="yes"/>
      <point x="1250" y="1104"/>
      <point x="1149" y="1319"/>
      <point x="984" y="1421" type="curve"/>
      <point x="981" y="1407" type="line"/>
      <point x="1149" y="1407"/>
      <point x="1250" y="1491"/>
      <point x="1250" y="1632" type="curve" smooth="yes"/>
      <point x="1250" y="1692"/>
      <point x="1242" y="1730"/>
      <point x="1225" y="1776" type="curve"/>
      <point x="1159" y="1776" type="line"/>
      <point x="1174" y="1730"/>
      <point x="1184" y="1690"/>
      <point x="1184" y="1634" type="curve" smooth="yes"/>
      <point x="1184" y="1525"/>
      <point x="1106" y="1474"/>
      <point x="985" y="1474" type="curve" smooth="yes"/>
      <point x="868" y="1474"/>
      <point x="798" y="1498"/>
      <point x="684" y="1498" type="curve" smooth="yes"/>
      <point x="348" y="1498"/>
      <point x="118" y="1285"/>
      <point x="118" y="740" type="curve" smooth="yes"/>
      <point x="118" y="195"/>
      <point x="347" y="-18"/>
    </contour>
    <contour>
      <point x="684" y="49" type="curve" smooth="yes"/>
      <point x="390" y="49"/>
      <point x="190" y="224"/>
      <point x="190" y="744" type="curve" smooth="yes"/>
      <point x="190" y="1256"/>
      <point x="390" y="1431"/>
      <point x="684" y="1431" type="curve" smooth="yes"/>
      <point x="978" y="1431"/>
      <point x="1178" y="1256"/>
      <point x="1178" y="736" type="curve" smooth="yes"/>
      <point x="1178" y="224"/>
      <point x="978" y="49"/>
    </contour>
  </outline>
</glyph>
<glyph name="ohorn" format="2">
  <advance width="1058"/>
  <unicode hex="01A1"/>
  <anchor x="526" y="0" name="bottom"/>
  <anchor x="529" y="540" name="center"/>
  <anchor x="663" y="0" name="ogonek"/>
  <anchor x="526" y="1200" name="top"/>
  <outline>
    <contour>
      <point x="529" y="-18" type="curve" smooth="yes"/>
      <point x="781" y="-18"/>
      <point x="950" y="143"/>
      <point x="950" y="540" type="curve" smooth="yes"/>
      <point x="950" y="801"/>
      <point x="881" y="966"/>
      <point x="738" y="1048" type="curve"/>
      <point x="711" y="1020" type="line"/>
      <point x="870" y="1020"/>
      <point x="970" y="1104"/>
      <point x="970" y="1252" type="curve" smooth="yes"/>
      <point x="970" y="1312"/>
      <point x="962" y="1350"/>
      <point x="945" y="1396" type="curve"/>
      <point x="879" y="1396" type="line"/>
      <point x="894" y="1350"/>
      <point x="904" y="1310"/>
      <point x="904" y="1254" type="curve" smooth="yes"/>
      <point x="904" y="1138"/>
      <point x="826" y="1087"/>
      <point x="705" y="1087" type="curve" smooth="yes"/>
      <point x="660" y="1087"/>
      <point x="599" y="1096"/>
      <point x="529" y="1096" type="curve" smooth="yes"/>
      <point x="277" y="1096"/>
      <point x="108" y="937"/>
      <point x="108" y="540" type="curve" smooth="yes"/>
      <point x="108" y="139"/>
      <point x="277" y="-18"/>
    </contour>
    <contour>
      <point x="529" y="48" type="curve" smooth="yes"/>
      <point x="317" y="48"/>
      <point x="180" y="172"/>
      <point x="180" y="543" type="curve" smooth="yes"/>
      <point x="180" y="908"/>
      <point x="317" y="1030"/>
      <point x="529" y="1030" type="curve" smooth="yes"/>
      <point x="741" y="1030"/>
      <point x="878" y="908"/>
      <point x="878" y="537" type="curve" smooth="yes"/>
      <point x="878" y="172"/>
      <point x="741" y="48"/>
    </contour>
  </outline>
</glyph>
<glyph name="Uhorn" format="2">
  <advance width="1372"/>
  <unicode hex="01AF"/>
  <anchor x="687" y="0" name="bottom"/>
  <anchor x="687" y="1520" name="top"/>
  <outline>
    <contour>
      <point x="687" y="-18" type="curve" smooth="yes"/>
      <point x="1034" y="-18"/>
      <point x="1190" y="150"/>
      <point x="1190" y="529" type="curve" smooth="yes"/>
      <point x="1190" y="1417" type="line"/>
      <point x="1332" y="1423"/>
      <point x="1422" y="1499"/>
      <point x="1422" y="1632" type="curve" smooth="yes"/>
      <point x="1422" y="1692"/>
      <point x="1414" y="1730"/>
      <point x="1397" y="1776" type="curve"/>
      <point x="1331" y="1776" type="line"/>
      <point x="1346" y="1730"/>
      <point x="1356" y="1690"/>
      <point x="1356" y="1634" type="curve" smooth="yes"/>
      <point x="1356" y="1525"/>
      <point x="1278" y="1480"/>
      <point x="1157" y="1480" type="curve" smooth="yes"/>
      <point x="1124" y="1480" type="line"/>
      <point x="1124" y="519" type="line" smooth="yes"/>
      <point x="1124" y="194"/>
      <point x="992" y="48"/>
      <point x="687" y="48" type="curve" smooth="yes"/>
      <point x="382" y="48"/>
      <point x="250" y="194"/>
      <point x="250" y="519" type="curve" smooth="yes"/>
      <point x="250" y="1480" type="line"/>
      <point x="182" y="1480" type="line"/>
      <point x="182" y="529" type="line" smooth="yes"/>
      <point x="182" y="150"/>
      <point x="340" y="-18"/>
    </contour>
  </outline>
</glyph>
<glyph name="uhorn" format="2">
  <advance width="1097"/>
  <unicode hex="01B0"/>
  <anchor x="532" y="0" name="bottom"/>
  <anchor x="907" y="0" name="ogonek"/>
  <anchor x="532" y="1200" name="top"/>
  <outline>
    <contour>
      <point x="486" y="-18" type="curve" smooth="yes"/>
      <point x="614" y="-18"/>
      <point x="739" y="29"/>
      <point x="833" y="124" type="curve"/>
      <point x="841" y="124" type="line"/>
      <point x="847" y="0" type="line"/>
      <point x="907" y="0" type="line"/>
      <point x="907" y="1044" type="line"/>
      <point x="878" y="1013" type="line"/>
      <point x="1037" y="1013"/>
      <point x="1137" y="1098"/>
      <point x="1137" y="1245" type="curve" smooth="yes"/>
      <point x="1137" y="1305"/>
      <point x="1129" y="1343"/>
      <point x="1112" y="1389" type="curve"/>
      <point x="1046" y="1389" type="line"/>
      <point x="1061" y="1343"/>
      <point x="1071" y="1303"/>
      <point x="1071" y="1247" type="curve" smooth="yes"/>
      <point x="1071" y="1131"/>
      <point x="993" y="1080"/>
      <point x="872" y="1080" type="curve" smooth="yes"/>
      <point x="839" y="1080" type="line"/>
      <point x="839" y="225" type="line"/>
      <point x="746" y="97"/>
      <point x="602" y="48"/>
      <point x="488" y="48" type="curve" smooth="yes"/>
      <point x="332" y="48"/>
      <point x="224" y="121"/>
      <point x="224" y="338" type="curve" smooth="yes"/>
      <point x="224" y="1080" type="line"/>
      <point x="156" y="1080" type="line"/>
      <point x="156" y="339" type="line" smooth="yes"/>
      <point x="156" y="74"/>
      <point x="294" y="-18"/>
    </contour>
  </outline>
</glyph>
<glyph name="Oogonek" format="2">
  <advance width="1368"/>
  <unicode hex="01EA"/>
  <outline>
    <contour>
      <point x="802" y="-400" type="curve" smooth="yes"/>
      <point x="857" y="-400"/>
      <point x="913" y="-387"/>
      <point x="969" y="-361" type="curve"/>
      <point x="969" y="-307" type="line"/>
      <point x="899" y="-336"/>
      <point x="851" y="-348"/>
      <point x="799" y="-348" type="curve" smooth="yes"/>
      <point x="701" y="-348"/>
      <point x="649" y="-307"/>
      <point x="649" y="-228" type="curve" smooth="yes"/>
      <point x="649" y="-141"/>
      <point x="706" y="-56"/>
      <point x="896" y="15" type="curve" smooth="yes"/>
      <point x="1106" y="95"/>
      <point x="1250" y="304"/>
      <point x="1250" y="740" type="curve" smooth="yes"/>
      <point x="1250" y="1291"/>
      <point x="1020" y="1498"/>
      <point x="684" y="1498" type="curve" smooth="yes"/>
      <point x="348" y="1498"/>
      <point x="118" y="1285"/>
      <point x="118" y="740" type="curve" smooth="yes"/>
      <point x="118" y="195"/>
      <point x="346" y="-18"/>
      <point x="688" y="-18" type="curve" smooth="yes"/>
      <point x="749" y="-18" type="line"/>
      <point x="749" y="-2" type="line"/>
      <point x="632" y="-67"/>
      <point x="591" y="-145"/>
      <point x="591" y="-231" type="curve" smooth="yes"/>
      <point x="591" y="-339"/>
      <point x="668" y="-400"/>
    </contour>
    <contour>
      <point x="684" y="49" type="curve" smooth="yes"/>
      <point x="390" y="49"/>
      <point x="190" y="224"/>
      <point x="190" y="744" type="curve" smooth="yes"/>
      <point x="190" y="1256"/>
      <point x="390" y="1431"/>
      <point x="684" y="1431" type="curve" smooth="yes"/>
      <point x="978" y="1431"/>
      <point x="1178" y="1256"/>
      <point x="1178" y="736" type="curve" smooth="yes"/>
      <point x="1178" y="224"/>
      <point x="978" y="49"/>
    </contour>
  </outline>
</glyph>
<glyph name="oogonek" format="2">
  <advance width="1058"/>
  <unicode hex="01EB"/>
  <anchor x="529" y="0" name="bottom"/>
  <anchor x="529" y="540" name="center"/>
  <anchor x="529" y="1200" name="top"/>
  <anchor x="655" y="1080" name="topright"/>
  <outline>
    <contour>
      <point x="576" y="-400" type="curve" smooth="yes"/>
      <point x="626" y="-400"/>
      <point x="680" y="-387"/>
      <point x="726" y="-361" type="curve"/>
      <point x="707" y="-314" type="line"/>
      <point x="663" y="-337"/>
      <point x="620" y="-348"/>
      <point x="573" y="-348" type="curve" smooth="yes"/>
      <point x="495" y="-348"/>
      <point x="443" y="-304"/>
      <point x="443" y="-224" type="curve" smooth="yes"/>
      <point x="443" y="-144"/>
      <point x="501" y="-50"/>
      <point x="663" y="0" type="curve" smooth="yes"/>
      <point x="841" y="54"/>
      <point x="950" y="218"/>
      <point x="950" y="540" type="curve" smooth="yes"/>
      <point x="950" y="941"/>
      <point x="781" y="1096"/>
      <point x="529" y="1096" type="curve" smooth="yes"/>
      <point x="277" y="1096"/>
      <point x="108" y="937"/>
      <point x="108" y="540" type="curve" smooth="yes"/>
      <point x="108" y="139"/>
      <point x="277" y="-18"/>
      <point x="532" y="-18" type="curve"/>
      <point x="538" y="-2" type="line"/>
      <point x="438.5" y="-53.5"/>
      <point x="387" y="-137"/>
      <point x="387" y="-227" type="curve" smooth="yes"/>
      <point x="387" y="-335"/>
      <point x="463" y="-400"/>
    </contour>
    <contour>
      <point x="529" y="48" type="curve" smooth="yes"/>
      <point x="317" y="48"/>
      <point x="180" y="172"/>
      <point x="180" y="543" type="curve" smooth="yes"/>
      <point x="180" y="908"/>
      <point x="317" y="1030"/>
      <point x="529" y="1030" type="curve" smooth="yes"/>
      <point x="741" y="1030"/>
      <point x="878" y="908"/>
      <point x="878" y="537" type="curve" smooth="yes"/>
      <point x="878" y="172"/>
      <point x="741" y="48"/>
    </contour>
  </outline>
</glyph>
<glyph name="jdotless" format="2">
  <advance width="408"/>
  <unicode hex="0237"/>
  <anchor x="204" y="1206" name="top"/>
  <outline>
    <contour>
      <point x="28" y="-460" type="line"/>
      <point x="173" y="-262"/>
      <point x="238" y="-88"/>
      <point x="238" y="173" type="curve" smooth="yes"/>
      <point x="238" y="1080" type="line"/>
      <point x="170" y="1080" type="line"/>
      <point x="170" y="166" type="line" smooth="yes"/>
      <point x="170" y="-74"/>
      <point x="112" y="-242"/>
      <point x="-21" y="-425" type="curve"/>
    </contour>
  </outline>
</glyph>
<glyph name="commaturnedmod" format="2">
  <advance width="1000"/>
  <unicode hex="02BB"/>
  <anchor x="500" y="1200" name="_top"/>
  <anchor x="500" y="1616" name="top"/>
  <outline>
    <contour>
      <point x="504" y="1360" type="curve" smooth="yes"/>
      <point x="538" y="1360"/>
      <point x="562" y="1386"/>
      <point x="562" y="1422" type="curve" smooth="yes"/>
      <point x="562" y="1460"/>
      <point x="536" y="1486"/>
      <point x="500" y="1486" type="curve" smooth="yes"/>
      <point x="488" y="1486" type="line"/>
      <point x="492" y="1454" type="line"/>
      <point x="492" y="1502"/>
      <point x="498" y="1552"/>
      <point x="526" y="1624" type="curve"/>
      <point x="482" y="1624" type="line"/>
      <point x="452" y="1562"/>
      <point x="438" y="1494"/>
      <point x="438" y="1446" type="curve" smooth="yes"/>
      <point x="438" y="1388"/>
      <point x="464" y="1360"/>
    </contour>
  </outline>
</glyph>
<glyph name="apostrophemod" format="2">
  <advance width="1000"/>
  <unicode hex="02BC"/>
  <anchor x="500" y="1200" name="_apostrophe"/>
  <outline>
    <contour>
      <point x="536" y="1360" type="curve"/>
      <point x="580" y="1360" type="line"/>
      <point x="610" y="1422"/>
      <point x="624" y="1490"/>
      <point x="624" y="1538" type="curve" smooth="yes"/>
      <point x="624" y="1596"/>
      <point x="598" y="1624"/>
      <point x="558" y="1624" type="curve" smooth="yes"/>
      <point x="524" y="1624"/>
      <point x="500" y="1598"/>
      <point x="500" y="1562" type="curve" smooth="yes"/>
      <point x="500" y="1524"/>
      <point x="526" y="1498"/>
      <point x="562" y="1498" type="curve" smooth="yes"/>
      <point x="574" y="1498" type="line"/>
      <point x="570" y="1530" type="line"/>
      <point x="570" y="1482"/>
      <point x="564" y="1432"/>
    </contour>
  </outline>
</glyph>
<glyph name="ringhalfright" format="2">
  <advance width="1000"/>
  <unicode hex="02BE"/>
  <anchor x="500" y="1200" name="_top"/>
  <anchor x="500" y="1556" name="top"/>
  <outline>
    <contour>
      <point x="500" y="1260" type="line"/>
      <point x="606" y="1260"/>
      <point x="684" y="1338"/>
      <point x="684" y="1444" type="curve" smooth="yes"/>
      <point x="684" y="1550"/>
      <point x="606" y="1628"/>
      <point x="500" y="1628" type="curve"/>
      <point x="500" y="1576" type="line"/>
      <point x="576" y="1576"/>
      <point x="630" y="1526"/>
      <point x="630" y="1444" type="curve" smooth="yes"/>
      <point x="630" y="1362"/>
      <point x="576" y="1312"/>
      <point x="500" y="1312" type="curve"/>
    </contour>
  </outline>
</glyph>
<glyph name="ringhalfleft" format="2">
  <advance width="1000"/>
  <unicode hex="02BF"/>
  <anchor x="500" y="1200" name="_top"/>
  <anchor x="500" y="1556" name="top"/>
  <outline>
    <contour>
      <point x="500" y="1260" type="curve"/>
      <point x="500" y="1312" type="line"/>
      <point x="424" y="1312"/>
      <point x="370" y="1362"/>
      <point x="370" y="1444" type="curve" smooth="yes"/>
      <point x="370" y="1526"/>
      <point x="424" y="1576"/>
      <point x="500" y="1576" type="curve"/>
      <point x="500" y="1628" type="line"/>
      <point x="394" y="1628"/>
      <point x="316" y="1550"/>
      <point x="316" y="1444" type="curve" smooth="yes"/>
      <point x="316" y="1338"/>
      <point x="394" y="1260"/>
    </contour>
  </outline>
</glyph>
<glyph name="verticallinemod" format="2">
  <advance width="1200"/>
  <unicode hex="02C8"/>
  <anchor x="600" y="1200" name="_top"/>
  <anchor x="600" y="1642" name="top"/>
  <outline>
    <contour>
      <point x="570" y="1218" type="line"/>
      <point x="630" y="1218" type="line"/>
      <point x="630" y="1618" type="line"/>
      <point x="570" y="1618" type="line"/>
    </contour>
  </outline>
</glyph>
<glyph name="firsttonechinese" format="2">
  <advance width="1000"/>
  <unicode hex="02C9"/>
  <anchor x="500" y="1200" name="_top"/>
  <anchor x="500" y="1556" name="top"/>
  <outline>
    <contour>
      <point x="217" y="1394" type="line"/>
      <point x="783" y="1394" type="line"/>
      <point x="783" y="1453" type="line"/>
      <point x="217" y="1453" type="line"/>
    </contour>
  </outline>
</glyph>
<glyph name="secondtonechinese" format="2">
  <advance width="1000"/>
  <unicode hex="02CA"/>
  <anchor x="500" y="1200" name="_top"/>
  <anchor x="500" y="1556" name="top"/>
  <outline>
    <contour>
      <point x="468" y="1264" type="line"/>
      <point x="532" y="1264" type="line"/>
      <point x="754" y="1616" type="line"/>
      <point x="676" y="1616" type="line"/>
    </contour>
  </outline>
</glyph>
<glyph name="verticallinelowmod" format="2">
  <advance width="1200"/>
  <unicode hex="02CC"/>
  <anchor x="600" y="0" name="_bottom"/>
  <anchor x="600" y="-480" name="bottom"/>
  <outline>
    <contour>
      <point x="570" y="-440" type="line"/>
      <point x="630" y="-440" type="line"/>
      <point x="630" y="-40" type="line"/>
      <point x="570" y="-40" type="line"/>
    </contour>
  </outline>
</glyph>
<glyph name="gravecomb" format="2">
  <unicode hex="0300"/>
  <anchor x="600" y="1200" name="_top"/>
  <anchor x="600" y="1556" name="top"/>
  <outline>
    <contour>
      <point x="568" y="1264" type="line"/>
      <point x="632" y="1264" type="line"/>
      <point x="424" y="1616" type="line"/>
      <point x="346" y="1616" type="line"/>
    </contour>
  </outline>
</glyph>
<glyph name="circumflexcomb" format="2">
  <unicode hex="0302"/>
  <anchor x="600" y="1200" name="_top"/>
  <anchor x="600" y="1616" name="top"/>
  <outline>
    <contour>
      <point x="344" y="1264" type="line"/>
      <point x="415" y="1264" type="line"/>
      <point x="613" y="1591" type="line"/>
      <point x="587" y="1591" type="line"/>
      <point x="785" y="1264" type="line"/>
      <point x="856" y="1264" type="line"/>
      <point x="638" y="1616" type="line"/>
      <point x="562" y="1616" type="line"/>
    </contour>
  </outline>
</glyph>
<glyph name="tildecomb" format="2">
  <unicode hex="0303"/>
  <anchor x="600" y="1200" name="_top"/>
  <anchor x="600" y="1556" name="top"/>
  <outline>
    <contour>
      <point x="734" y="1380" type="curve" smooth="yes"/>
      <point x="797" y="1380"/>
      <point x="848" y="1402"/>
      <point x="883" y="1441" type="curve"/>
      <point x="883" y="1508" type="line"/>
      <point x="840" y="1460"/>
      <point x="794" y="1437"/>
      <point x="734" y="1437" type="curve" smooth="yes"/>
      <point x="695" y="1437"/>
      <point x="656" y="1454"/>
      <point x="614.5" y="1472" type="curve" smooth="yes"/>
      <point x="569" y="1491.5"/>
      <point x="520" y="1513"/>
      <point x="466" y="1513" type="curve" smooth="yes"/>
      <point x="403" y="1513"/>
      <point x="352" y="1491"/>
      <point x="317" y="1452" type="curve"/>
      <point x="317" y="1385" type="line"/>
      <point x="360" y="1433"/>
      <point x="406" y="1456"/>
      <point x="466" y="1456" type="curve" smooth="yes"/>
      <point x="505" y="1456"/>
      <point x="544" y="1439"/>
      <point x="585.5" y="1421" type="curve" smooth="yes"/>
      <point x="631" y="1401.5"/>
      <point x="680" y="1380"/>
    </contour>
  </outline>
</glyph>
<glyph name="brevecomb" format="2">
  <unicode hex="0306"/>
  <anchor x="600" y="1200" name="_top"/>
  <anchor x="600" y="1556" name="top"/>
  <outline>
    <contour>
      <point x="602" y="1276" type="curve" smooth="yes"/>
      <point x="763" y="1276"/>
      <point x="855" y="1390"/>
      <point x="862" y="1588" type="curve"/>
      <point x="804" y="1588" type="line"/>
      <point x="796" y="1422"/>
      <point x="735" y="1333"/>
      <point x="602" y="1333" type="curve" smooth="yes"/>
      <point x="469" y="1333"/>
      <point x="406" y="1422"/>
      <point x="396" y="1588" type="curve"/>
      <point x="338" y="1588" type="line"/>
      <point x="345" y="1392"/>
      <point x="440" y="1276"/>
    </contour>
  </outline>
</glyph>
<glyph name="dotaccentcomb" format="2">
  <unicode hex="0307"/>
  <anchor x="600" y="1200" name="_top"/>
  <anchor x="600" y="1556" name="top"/>
  <outline>
    <contour>
      <point x="600" y="1360" type="curve" smooth="yes"/>
      <point x="636" y="1360"/>
      <point x="662" y="1384"/>
      <point x="662" y="1422" type="curve" smooth="yes"/>
      <point x="662" y="1460"/>
      <point x="636" y="1486"/>
      <point x="600" y="1486" type="curve" smooth="yes"/>
      <point x="564" y="1486"/>
      <point x="538" y="1460"/>
      <point x="538" y="1422" type="curve" smooth="yes"/>
      <point x="538" y="1384"/>
      <point x="564" y="1360"/>
    </contour>
  </outline>
</glyph>
<glyph name="dieresiscomb" format="2">
  <unicode hex="0308"/>
  <anchor x="600" y="1200" name="_top"/>
  <anchor x="600" y="1556" name="top"/>
  <outline>
    <contour>
      <point x="800" y="1360" type="curve" smooth="yes"/>
      <point x="836" y="1360"/>
      <point x="862" y="1384"/>
      <point x="862" y="1422" type="curve" smooth="yes"/>
      <point x="862" y="1460"/>
      <point x="836" y="1486"/>
      <point x="800" y="1486" type="curve" smooth="yes"/>
      <point x="764" y="1486"/>
      <point x="738" y="1460"/>
      <point x="738" y="1422" type="curve" smooth="yes"/>
      <point x="738" y="1384"/>
      <point x="764" y="1360"/>
    </contour>
    <contour>
      <point x="400" y="1360" type="curve" smooth="yes"/>
      <point x="436" y="1360"/>
      <point x="462" y="1384"/>
      <point x="462" y="1422" type="curve" smooth="yes"/>
      <point x="462" y="1460"/>
      <point x="436" y="1486"/>
      <point x="400" y="1486" type="curve" smooth="yes"/>
      <point x="364" y="1486"/>
      <point x="338" y="1460"/>
      <point x="338" y="1422" type="curve" smooth="yes"/>
      <point x="338" y="1384"/>
      <point x="364" y="1360"/>
    </contour>
  </outline>
</glyph>
<glyph name="hookabovecomb" format="2">
  <unicode hex="0309"/>
  <anchor x="607" y="1200" name="_top"/>
  <anchor x="607" y="1616" name="top"/>
  <outline>
    <contour>
      <point x="576" y="1264" type="curve"/>
      <point x="638" y="1264" type="line"/>
      <point x="641" y="1381"/>
      <point x="796" y="1368"/>
      <point x="796" y="1496" type="curve" smooth="yes"/>
      <point x="796" y="1578"/>
      <point x="737" y="1628"/>
      <point x="605" y="1628" type="curve" smooth="yes"/>
      <point x="552" y="1628"/>
      <point x="495" y="1618"/>
      <point x="456" y="1604" type="curve"/>
      <point x="456" y="1548" type="line"/>
      <point x="500" y="1564"/>
      <point x="561" y="1572"/>
      <point x="609" y="1572" type="curve" smooth="yes"/>
      <point x="699" y="1572"/>
      <point x="737" y="1547"/>
      <point x="737" y="1495" type="curve" smooth="yes"/>
      <point x="737" y="1407"/>
      <point x="579" y="1408"/>
    </contour>
  </outline>
</glyph>
<glyph name="ringcomb" format="2">
  <unicode hex="030A"/>
  <anchor x="600" y="1200" name="_top"/>
  <anchor x="600" y="1626" name="top"/>
  <outline>
    <contour>
      <point x="600" y="1260" type="curve" smooth="yes"/>
      <point x="706" y="1260"/>
      <point x="784" y="1338"/>
      <point x="784" y="1444" type="curve" smooth="yes"/>
      <point x="784" y="1550"/>
      <point x="706" y="1628"/>
      <point x="600" y="1628" type="curve" smooth="yes"/>
      <point x="494" y="1628"/>
      <point x="416" y="1550"/>
      <point x="416" y="1444" type="curve" smooth="yes"/>
      <point x="416" y="1338"/>
      <point x="494" y="1260"/>
    </contour>
    <contour>
      <point x="600" y="1312" type="curve" smooth="yes"/>
      <point x="524" y="1312"/>
      <point x="470" y="1362"/>
      <point x="470" y="1444" type="curve" smooth="yes"/>
      <point x="470" y="1526"/>
      <point x="524" y="1576"/>
      <point x="600" y="1576" type="curve" smooth="yes"/>
      <point x="676" y="1576"/>
      <point x="730" y="1526"/>
      <point x="730" y="1444" type="curve" smooth="yes"/>
      <point x="730" y="1362"/>
      <point x="676" y="1312"/>
    </contour>
  </outline>
</glyph>
<glyph name="hungarumlautcomb" format="2">
  <unicode hex="030B"/>
  <anchor x="600" y="1200" name="_top"/>
  <anchor x="600" y="1616" name="top"/>
  <outline>
    <contour>
      <point x="717" y="1264" type="line"/>
      <point x="775" y="1264" type="line"/>
      <point x="917" y="1616" type="line"/>
      <point x="851" y="1616" type="line"/>
    </contour>
    <contour>
      <point x="425" y="1264" type="line"/>
      <point x="483" y="1264" type="line"/>
      <point x="625" y="1616" type="line"/>
      <point x="559" y="1616" type="line"/>
    </contour>
  </outline>
</glyph>
<glyph name="caroncomb" format="2">
  <unicode hex="030C"/>
  <anchor x="600" y="1200" name="_top"/>
  <anchor x="600" y="1556" name="top"/>
  <outline>
    <contour>
      <point x="562" y="1264" type="line"/>
      <point x="638" y="1264" type="line"/>
      <point x="860" y="1616" type="line"/>
      <point x="789" y="1616" type="line"/>
      <point x="587" y="1288" type="line"/>
      <point x="613" y="1288" type="line"/>
      <point x="411" y="1616" type="line"/>
      <point x="340" y="1616" type="line"/>
    </contour>
  </outline>
</glyph>
<glyph name="dblgravecomb" format="2">
  <unicode hex="030F"/>
  <anchor x="600" y="1200" name="_top"/>
  <anchor x="600" y="1616" name="top"/>
  <outline>
    <contour>
      <point x="717" y="1264" type="line"/>
      <point x="778" y="1264" type="line"/>
      <point x="645" y="1616" type="line"/>
      <point x="575" y="1616" type="line"/>
    </contour>
    <contour>
      <point x="422" y="1264" type="line"/>
      <point x="483" y="1264" type="line"/>
      <point x="350" y="1616" type="line"/>
      <point x="280" y="1616" type="line"/>
    </contour>
  </outline>
</glyph>
<glyph name="breveinvertedcomb" format="2">
  <unicode hex="0311"/>
  <anchor x="600" y="1200" name="_top"/>
  <anchor x="600" y="1616" name="top"/>
  <outline>
    <contour>
      <point x="338" y="1292" type="curve"/>
      <point x="396" y="1292" type="line"/>
      <point x="404" y="1458"/>
      <point x="467" y="1545"/>
      <point x="598" y="1545" type="curve" smooth="yes"/>
      <point x="729" y="1545"/>
      <point x="794" y="1458"/>
      <point x="804" y="1292" type="curve"/>
      <point x="862" y="1292" type="line"/>
      <point x="855" y="1490"/>
      <point x="760" y="1604"/>
      <point x="598" y="1604" type="curve" smooth="yes"/>
      <point x="436" y="1604"/>
      <point x="345" y="1492"/>
    </contour>
  </outline>
</glyph>
<glyph name="commaturnedabovecomb" format="2">
  <unicode hex="0312"/>
  <anchor x="600" y="1200" name="_top"/>
  <anchor x="600" y="1616" name="top"/>
  <outline>
    <contour>
      <point x="604" y="1360" type="curve" smooth="yes"/>
      <point x="638" y="1360"/>
      <point x="662" y="1386"/>
      <point x="662" y="1422" type="curve" smooth="yes"/>
      <point x="662" y="1460"/>
      <point x="636" y="1486"/>
      <point x="600" y="1486" type="curve" smooth="yes"/>
      <point x="588" y="1486" type="line"/>
      <point x="592" y="1454" type="line"/>
      <point x="592" y="1502"/>
      <point x="598" y="1552"/>
      <point x="626" y="1624" type="curve"/>
      <point x="582" y="1624" type="line"/>
      <point x="552" y="1562"/>
      <point x="538" y="1494"/>
      <point x="538" y="1446" type="curve" smooth="yes"/>
      <point x="538" y="1388"/>
      <point x="564" y="1360"/>
    </contour>
  </outline>
</glyph>
<glyph name="horncomb" format="2">
  <unicode hex="031B"/>
  <anchor x="600" y="1480" name="_topright"/>
  <anchor x="700" y="1480" name="topright"/>
  <outline>
    <contour>
      <point x="600" y="1413" type="line"/>
      <point x="639" y="1413" type="line" smooth="yes"/>
      <point x="798" y="1413"/>
      <point x="898" y="1498"/>
      <point x="898" y="1645" type="curve" smooth="yes"/>
      <point x="898" y="1705"/>
      <point x="890" y="1743"/>
      <point x="873" y="1789" type="curve"/>
      <point x="807" y="1789" type="line"/>
      <point x="822" y="1743"/>
      <point x="832" y="1703"/>
      <point x="832" y="1647" type="curve" smooth="yes"/>
      <point x="832" y="1531"/>
      <point x="754" y="1480"/>
      <point x="633" y="1480" type="curve" smooth="yes"/>
      <point x="600" y="1480" type="line"/>
    </contour>
  </outline>
</glyph>
<glyph name="dotbelowcomb" format="2">
  <unicode hex="0323"/>
  <anchor x="600" y="0" name="_bottom"/>
  <anchor x="600" y="-440" name="bottom"/>
  <outline>
    <contour>
      <point x="600" y="-310" type="curve" smooth="yes"/>
      <point x="636" y="-310"/>
      <point x="662" y="-286"/>
      <point x="662" y="-248" type="curve" smooth="yes"/>
      <point x="662" y="-210"/>
      <point x="636" y="-184"/>
      <point x="600" y="-184" type="curve" smooth="yes"/>
      <point x="564" y="-184"/>
      <point x="538" y="-210"/>
      <point x="538" y="-248" type="curve" smooth="yes"/>
      <point x="538" y="-286"/>
      <point x="564" y="-310"/>
    </contour>
  </outline>
</glyph>
<glyph name="dieresisbelowcomb" format="2">
  <unicode hex="0324"/>
  <anchor x="600" y="0" name="_bottom"/>
  <anchor x="600" y="-440" name="bottom"/>
  <outline>
    <contour>
      <point x="800" y="-310" type="curve" smooth="yes"/>
      <point x="836" y="-310"/>
      <point x="862" y="-286"/>
      <point x="862" y="-248" type="curve" smooth="yes"/>
      <point x="862" y="-210"/>
      <point x="836" y="-184"/>
      <point x="800" y="-184" type="curve" smooth="yes"/>
      <point x="764" y="-184"/>
      <point x="738" y="-210"/>
      <point x="738" y="-248" type="curve" smooth="yes"/>
      <point x="738" y="-286"/>
      <point x="764" y="-310"/>
    </contour>
    <contour>
      <point x="400" y="-310" type="curve" smooth="yes"/>
      <point x="436" y="-310"/>
      <point x="462" y="-286"/>
      <point x="462" y="-248" type="curve" smooth="yes"/>
      <point x="462" y="-210"/>
      <point x="436" y="-184"/>
      <point x="400" y="-184" type="curve" smooth="yes"/>
      <point x="364" y="-184"/>
      <point x="338" y="-210"/>
      <point x="338" y="-248" type="curve" smooth="yes"/>
      <point x="338" y="-286"/>
      <point x="364" y="-310"/>
    </contour>
  </outline>
</glyph>
<glyph name="cedillacomb" format="2">
  <unicode hex="0327"/>
  <anchor x="703" y="0" name="_bottom"/>
  <anchor x="703" y="-440" name="bottom"/>
  <outline>
    <contour>
      <point x="608" y="-400" type="curve" smooth="yes"/>
      <point x="719" y="-400"/>
      <point x="784" y="-346"/>
      <point x="784" y="-257" type="curve" smooth="yes"/>
      <point x="784" y="-166"/>
      <point x="722" y="-113"/>
      <point x="610" y="-113" type="curve"/>
      <point x="633" y="-142" type="line"/>
      <point x="633" y="20" type="line"/>
      <point x="577" y="20" type="line"/>
      <point x="577" y="-164" type="line"/>
      <point x="609" y="-164" type="line" smooth="yes"/>
      <point x="688" y="-164"/>
      <point x="729" y="-193"/>
      <point x="729" y="-257" type="curve" smooth="yes"/>
      <point x="729" y="-318"/>
      <point x="690" y="-348"/>
      <point x="611" y="-348" type="curve" smooth="yes"/>
      <point x="559" y="-348"/>
      <point x="504" y="-338"/>
      <point x="445" y="-307" type="curve"/>
      <point x="445" y="-363" type="line"/>
      <point x="487" y="-387"/>
      <point x="553" y="-400"/>
    </contour>
  </outline>
</glyph>
<glyph name="ogonekcomb" format="2">
  <unicode hex="0328"/>
  <anchor x="600" y="0" name="_ogonek"/>
  <anchor x="600" y="-440" name="bottom"/>
  <outline>
    <contour>
      <point x="558" y="-400" type="curve" smooth="yes"/>
      <point x="607" y="-400"/>
      <point x="665" y="-385"/>
      <point x="708" y="-359" type="curve"/>
      <point x="708" y="-303" type="line"/>
      <point x="658" y="-333"/>
      <point x="607" y="-348"/>
      <point x="555" y="-348" type="curve" smooth="yes"/>
      <point x="474" y="-348"/>
      <point x="425" y="-304"/>
      <point x="425" y="-228" type="curve" smooth="yes"/>
      <point x="425" y="-144"/>
      <point x="476" y="-77"/>
      <point x="600" y="0" type="curve"/>
      <point x="574" y="47" type="line"/>
      <point x="432" y="-40"/>
      <point x="369" y="-126"/>
      <point x="369" y="-231" type="curve" smooth="yes"/>
      <point x="369" y="-336"/>
      <point x="440" y="-400"/>
    </contour>
  </outline>
</glyph>
<glyph name="brevebelowcomb" format="2">
  <unicode hex="032E"/>
  <anchor x="600" y="0" name="_bottom"/>
  <anchor x="600" y="-440" name="bottom"/>
  <outline>
    <contour>
      <point x="602" y="-400" type="curve" smooth="yes"/>
      <point x="768" y="-400"/>
      <point x="860" y="-306"/>
      <point x="862" y="-160" type="curve"/>
      <point x="804" y="-160" type="line"/>
      <point x="800" y="-275"/>
      <point x="737" y="-341"/>
      <point x="602" y="-341" type="curve" smooth="yes"/>
      <point x="467" y="-341"/>
      <point x="402" y="-275"/>
      <point x="396" y="-160" type="curve"/>
      <point x="338" y="-160" type="line"/>
      <point x="340" y="-304"/>
      <point x="436" y="-400"/>
    </contour>
  </outline>
</glyph>
<glyph name="slashshortcomb" format="2">
  <unicode hex="0337"/>
  <anchor x="482" y="764" name="_slash"/>
  <outline>
    <contour>
      <point x="305" y="571.5" type="line"/>
      <point x="652" y="875.5" type="line"/>
      <point x="652" y="954.5" type="line"/>
      <point x="305" y="650.5" type="line"/>
    </contour>
  </outline>
</glyph>
<glyph name="Delta" format="2">
  <advance width="1286"/>
  <unicode hex="0394"/>
  <outline>
    <contour>
      <point x="37" y="0" type="line"/>
      <point x="1249" y="0" type="line"/>
      <point x="686" y="1480" type="line"/>
      <point x="600" y="1480" type="line"/>
    </contour>
    <contour>
      <point x="124" y="37" type="line"/>
      <point x="653" y="1437" type="line"/>
      <point x="631" y="1437" type="line"/>
      <point x="1160" y="37" type="line"/>
      <point x="1179" y="66" type="line"/>
      <point x="105" y="66" type="line"/>
    </contour>
  </outline>
</glyph>
<glyph name="Omega" format="2">
  <advance width="1368"/>
  <unicode hex="03A9"/>
  <outline>
    <contour>
      <point x="118" y="0" type="line"/>
      <point x="577" y="0" type="line"/>
      <point x="577" y="64" type="line"/>
      <point x="314" y="232"/>
      <point x="190" y="456"/>
      <point x="190" y="790" type="curve" smooth="yes"/>
      <point x="190" y="1233"/>
      <point x="371" y="1431"/>
      <point x="684" y="1431" type="curve" smooth="yes"/>
      <point x="997" y="1431"/>
      <point x="1178" y="1233"/>
      <point x="1178" y="790" type="curve" smooth="yes"/>
      <point x="1178" y="456"/>
      <point x="1054" y="232"/>
      <point x="791" y="64" type="curve"/>
      <point x="791" y="0" type="line"/>
      <point x="1250" y="0" type="line"/>
      <point x="1250" y="66" type="line"/>
      <point x="871" y="66" type="line"/>
      <point x="889" y="56" type="line"/>
      <point x="1126" y="219"/>
      <point x="1250" y="461"/>
      <point x="1250" y="790" type="curve" smooth="yes"/>
      <point x="1250" y="1264"/>
      <point x="1041" y="1498"/>
      <point x="684" y="1498" type="curve" smooth="yes"/>
      <point x="327" y="1498"/>
      <point x="118" y="1264"/>
      <point x="118" y="790" type="curve" smooth="yes"/>
      <point x="118" y="461"/>
      <point x="242" y="219"/>
      <point x="479" y="56" type="curve"/>
      <point x="497" y="66" type="line"/>
      <point x="118" y="66" type="line"/>
    </contour>
  </outline>
</glyph>
<glyph name="pi" format="2">
  <advance width="1248"/>
  <unicode hex="03C0"/>
  <outline>
    <contour>
      <point x="1122" y="-18" type="curve" smooth="yes"/>
      <point x="1160" y="-18"/>
      <point x="1206" y="-12"/>
      <point x="1242" y="-4" type="curve"/>
      <point x="1242" y="64" type="line"/>
      <point x="1202" y="54"/>
      <point x="1162" y="48"/>
      <point x="1126" y="48" type="curve" smooth="yes"/>
      <point x="990" y="48"/>
      <point x="922" y="108"/>
      <point x="922" y="290" type="curve" smooth="yes"/>
      <point x="922" y="1046" type="line"/>
      <point x="852" y="1046" type="line"/>
      <point x="854" y="278" type="line" smooth="yes"/>
      <point x="855" y="64"/>
      <point x="956" y="-18"/>
    </contour>
    <contour>
      <point x="227" y="-2" type="line"/>
      <point x="295" y="-2" type="line"/>
      <point x="295" y="1046" type="line"/>
      <point x="227" y="1046" type="line"/>
    </contour>
    <contour>
      <point x="7" y="1016" type="line"/>
      <point x="1142" y="1016" type="line"/>
      <point x="1142" y="1080" type="line"/>
      <point x="7" y="1080" type="line"/>
    </contour>
  </outline>
</glyph>
<glyph name="Germandbls" format="2">
  <advance width="1304.5"/>
  <unicode hex="1E9E"/>
  <outline>
    <contour>
      <point x="1097.5" y="1368.5" type="line"/>
      <point x="987" y="1454"/>
      <point x="846" y="1498"/>
      <point x="677" y="1498" type="curve" smooth="yes"/>
      <point x="324.5" y="1498"/>
      <point x="155" y="1313.5"/>
      <point x="155" y="990" type="curve" smooth="yes"/>
      <point x="155" y="0" type="line"/>
      <point x="223" y="0" type="line"/>
      <point x="223" y="995" type="line" smooth="yes"/>
      <point x="223" y="1267.5"/>
      <point x="359.5" y="1433.5"/>
      <point x="674" y="1433.5" type="curve" smooth="yes"/>
      <point x="815" y="1433.5"/>
      <point x="943.5" y="1405.5"/>
      <point x="1039.5" y="1328" type="curve"/>
      <point x="1042" y="1362.5" type="line"/>
      <point x="563" y="748.5" type="line"/>
      <point x="563" y="708.5" type="line"/>
      <point x="640" y="720"/>
      <point x="701.5" y="723"/>
      <point x="778" y="723" type="curve" smooth="yes"/>
      <point x="1014" y="723"/>
      <point x="1147.5" y="612"/>
      <point x="1147.5" y="399.5" type="curve" smooth="yes"/>
      <point x="1147.5" y="176"/>
      <point x="1005.5" y="48"/>
      <point x="738.5" y="48" type="curve" smooth="yes"/>
      <point x="645" y="48"/>
      <point x="546" y="65"/>
      <point x="422.5" y="107" type="curve"/>
      <point x="422.5" y="39" type="line"/>
      <point x="532.5" y="0"/>
      <point x="640" y="-18"/>
      <point x="738.5" y="-18" type="curve" smooth="yes"/>
      <point x="1043.5" y="-18"/>
      <point x="1219.5" y="138.5"/>
      <point x="1219.5" y="401.5" type="curve" smooth="yes"/>
      <point x="1219.5" y="670"/>
      <point x="1034.5" y="789"/>
      <point x="792" y="789" type="curve" smooth="yes"/>
      <point x="734" y="789"/>
      <point x="698.5" y="788"/>
      <point x="653.5" y="781" type="curve"/>
      <point x="657" y="768" type="line"/>
      <point x="1097.5" y="1331.5" type="line"/>
    </contour>
  </outline>
</glyph>
<glyph name="Ohorntilde" format="2">
  <advance width="1368"/>
  <unicode hex="1EE0"/>
  <outline>
    <contour>
      <point x="684" y="-18" type="curve" smooth="yes"/>
      <point x="1021" y="-18"/>
      <point x="1250" y="189"/>
      <point x="1250" y="740" type="curve" smooth="yes"/>
      <point x="1250" y="1104"/>
      <point x="1149" y="1319"/>
      <point x="984" y="1421" type="curve"/>
      <point x="981" y="1407" type="line"/>
      <point x="1149" y="1407"/>
      <point x="1250" y="1491"/>
      <point x="1250" y="1632" type="curve" smooth="yes"/>
      <point x="1250" y="1692"/>
      <point x="1242" y="1730"/>
      <point x="1225" y="1776" type="curve"/>
      <point x="1159" y="1776" type="line"/>
      <point x="1174" y="1730"/>
      <point x="1184" y="1690"/>
      <point x="1184" y="1634" type="curve" smooth="yes"/>
      <point x="1184" y="1525"/>
      <point x="1106" y="1474"/>
      <point x="985" y="1474" type="curve" smooth="yes"/>
      <point x="868" y="1474"/>
      <point x="798" y="1498"/>
      <point x="684" y="1498" type="curve" smooth="yes"/>
      <point x="348" y="1498"/>
      <point x="118" y="1285"/>
      <point x="118" y="740" type="curve" smooth="yes"/>
      <point x="118" y="195"/>
      <point x="347" y="-18"/>
    </contour>
    <contour>
      <point x="684" y="49" type="curve" smooth="yes"/>
      <point x="390" y="49"/>
      <point x="190" y="224"/>
      <point x="190" y="744" type="curve" smooth="yes"/>
      <point x="190" y="1256"/>
      <point x="390" y="1431"/>
      <point x="684" y="1431" type="curve" smooth="yes"/>
      <point x="978" y="1431"/>
      <point x="1178" y="1256"/>
      <point x="1178" y="736" type="curve" smooth="yes"/>
      <point x="1178" y="224"/>
      <point x="978" y="49"/>
    </contour>
    <contour>
      <point x="828" y="1697" type="curve" smooth="yes"/>
      <point x="897" y="1697"/>
      <point x="948" y="1719"/>
      <point x="983" y="1758" type="curve"/>
      <point x="983" y="1825" type="line"/>
      <point x="940" y="1777"/>
      <point x="894" y="1754"/>
      <point x="828" y="1754" type="curve" smooth="yes"/>
      <point x="736" y="1754"/>
      <point x="652" y="1830"/>
      <point x="540" y="1830" type="curve" smooth="yes"/>
      <point x="471" y="1830"/>
      <point x="420" y="1808"/>
      <point x="385" y="1769" type="curve"/>
      <point x="385" y="1702" type="line"/>
      <point x="428" y="1750"/>
      <point x="474" y="1773"/>
      <point x="540" y="1773" type="curve" smooth="yes"/>
      <point x="632" y="1773"/>
      <point x="716" y="1697"/>
    </contour>
  </outline>
</glyph>
<glyph name="uhorntilde" format="2">
  <advance width="1097"/>
  <unicode hex="1EEF"/>
  <outline>
    <contour>
      <point x="486" y="-18" type="curve" smooth="yes"/>
      <point x="614" y="-18"/>
      <point x="739" y="29"/>
      <point x="833" y="124" type="curve"/>
      <point x="841" y="124" type="line"/>
      <point x="847" y="0" type="line"/>
      <point x="907" y="0" type="line"/>
      <point x="907" y="1044" type="line"/>
      <point x="878" y="1013" type="line"/>
      <point x="1037" y="1013"/>
      <point x="1137" y="1098"/>
      <point x="1137" y="1245" type="curve" smooth="yes"/>
      <point x="1137" y="1305"/>
      <point x="1129" y="1343"/>
      <point x="1112" y="1389" type="curve"/>
      <point x="1046" y="1389" type="line"/>
      <point x="1061" y="1343"/>
      <point x="1071" y="1303"/>
      <point x="1071" y="1247" type="curve" smooth="yes"/>
      <point x="1071" y="1131"/>
      <point x="993" y="1080"/>
      <point x="872" y="1080" type="curve" smooth="yes"/>
      <point x="839" y="1080" type="line"/>
      <point x="839" y="225" type="line"/>
      <point x="746" y="97"/>
      <point x="602" y="48"/>
      <point x="488" y="48" type="curve" smooth="yes"/>
      <point x="332" y="48"/>
      <point x="224" y="121"/>
      <point x="224" y="338" type="curve" smooth="yes"/>
      <point x="224" y="1080" type="line"/>
      <point x="156" y="1080" type="line"/>
      <point x="156" y="339" type="line" smooth="yes"/>
      <point x="156" y="74"/>
      <point x="294" y="-18"/>
    </contour>
    <contour>
      <point x="666" y="1380" type="curve" smooth="yes"/>
      <point x="729" y="1380"/>
      <point x="780" y="1402"/>
      <point x="815" y="1441" type="curve"/>
      <point x="815" y="1508" type="line"/>
      <point x="772" y="1460"/>
      <point x="726" y="1437"/>
      <point x="666" y="1437" type="curve" smooth="yes"/>
      <point x="584" y="1437"/>
      <point x="500" y="1513"/>
      <point x="398" y="1513" type="curve" smooth="yes"/>
      <point x="335" y="1513"/>
      <point x="284" y="1491"/>
      <point x="249" y="1452" type="curve"/>
      <point x="249" y="1385" type="line"/>
      <point x="292" y="1433"/>
      <point x="338" y="1456"/>
      <point x="398" y="1456" type="curve" smooth="yes"/>
      <point x="480" y="1456"/>
      <point x="564" y="1380"/>
    </contour>
  </outline>
</glyph>
<glyph name="figuredash" format="2">
  <advance width="1100"/>
  <unicode hex="2012"/>
  <outline>
    <contour>
      <point x="142" y="528" type="line"/>
      <point x="958" y="528" type="line"/>
      <point x="958" y="592" type="line"/>
      <point x="142" y="592" type="line"/>
    </contour>
  </outline>
</glyph>
<glyph name="quoteleft" format="2">
  <advance width="406"/>
  <unicode hex="2018"/>
  <outline>
    <contour>
      <point x="205" y="1200" type="curve" smooth="yes"/>
      <point x="241" y="1200"/>
      <point x="265" y="1226"/>
      <point x="265" y="1262" type="curve" smooth="yes"/>
      <point x="265" y="1300"/>
      <point x="239" y="1326"/>
      <point x="203" y="1326" type="curve" smooth="yes"/>
      <point x="191" y="1326" type="line"/>
      <point x="195" y="1304" type="line"/>
      <point x="195" y="1406"/>
      <point x="217" y="1502"/>
      <point x="253" y="1616" type="curve"/>
      <point x="209" y="1616" type="line"/>
      <point x="171" y="1522"/>
      <point x="141" y="1408"/>
      <point x="141" y="1284" type="curve" smooth="yes"/>
      <point x="141" y="1224"/>
      <point x="167" y="1200"/>
    </contour>
  </outline>
</glyph>
<glyph name="quoteright" format="2">
  <advance width="406"/>
  <unicode hex="2019"/>
  <outline>
    <contour>
      <point x="153" y="1210" type="curve"/>
      <point x="197" y="1210" type="line"/>
      <point x="235" y="1304"/>
      <point x="265" y="1418"/>
      <point x="265" y="1542" type="curve" smooth="yes"/>
      <point x="265" y="1602"/>
      <point x="239" y="1626"/>
      <point x="201" y="1626" type="curve" smooth="yes"/>
      <point x="165" y="1626"/>
      <point x="141" y="1600"/>
      <point x="141" y="1564" type="curve" smooth="yes"/>
      <point x="141" y="1526"/>
      <point x="167" y="1500"/>
      <point x="203" y="1500" type="curve" smooth="yes"/>
      <point x="215" y="1500" type="line"/>
      <point x="211" y="1522" type="line"/>
      <point x="211" y="1420"/>
      <point x="189" y="1324"/>
    </contour>
  </outline>
</glyph>
<glyph name="dagger" format="2">
  <advance width="954"/>
  <unicode hex="2020"/>
  <outline>
    <contour>
      <point x="455" y="160" type="line"/>
      <point x="499" y="160" type="line"/>
      <point x="511" y="380" type="line"/>
      <point x="511" y="1002" type="line"/>
      <point x="499" y="1224" type="line"/>
      <point x="719" y="1212" type="line"/>
      <point x="869" y="1212" type="line"/>
      <point x="869" y="1276" type="line"/>
      <point x="719" y="1276" type="line"/>
      <point x="499" y="1264" type="line"/>
      <point x="511" y="1486" type="line"/>
      <point x="511" y="1616" type="line"/>
      <point x="443" y="1616" type="line"/>
      <point x="443" y="1486" type="line"/>
      <point x="455" y="1264" type="line"/>
      <point x="235" y="1276" type="line"/>
      <point x="85" y="1276" type="line"/>
      <point x="85" y="1212" type="line"/>
      <point x="235" y="1212" type="line"/>
      <point x="455" y="1224" type="line"/>
      <point x="443" y="1002" type="line"/>
      <point x="443" y="380" type="line"/>
    </contour>
  </outline>
</glyph>
<glyph name="daggerdbl" format="2">
  <advance width="954"/>
  <unicode hex="2021"/>
  <outline>
    <contour>
      <point x="441" y="160" type="line"/>
      <point x="509" y="160" type="line"/>
      <point x="509" y="290" type="line"/>
      <point x="497" y="510" type="line"/>
      <point x="779" y="500" type="line"/>
      <point x="869" y="500" type="line"/>
      <point x="869" y="564" type="line"/>
      <point x="779" y="564" type="line"/>
      <point x="497" y="554" type="line"/>
      <point x="509" y="794" type="line"/>
      <point x="509" y="1002" type="line"/>
      <point x="497" y="1222" type="line"/>
      <point x="779" y="1212" type="line"/>
      <point x="869" y="1212" type="line"/>
      <point x="869" y="1276" type="line"/>
      <point x="779" y="1276" type="line"/>
      <point x="497" y="1266" type="line"/>
      <point x="509" y="1486" type="line"/>
      <point x="509" y="1616" type="line"/>
      <point x="441" y="1616" type="line"/>
      <point x="441" y="1486" type="line"/>
      <point x="453" y="1266" type="line"/>
      <point x="175" y="1276" type="line"/>
      <point x="85" y="1276" type="line"/>
      <point x="85" y="1212" type="line"/>
      <point x="175" y="1212" type="line"/>
      <point x="453" y="1222" type="line"/>
      <point x="441" y="1002" type="line"/>
      <point x="441" y="794" type="line"/>
      <point x="453" y="554" type="line"/>
      <point x="175" y="564" type="line"/>
      <point x="85" y="564" type="line"/>
      <point x="85" y="500" type="line"/>
      <point x="175" y="500" type="line"/>
      <point x="453" y="510" type="line"/>
      <point x="441" y="290" type="line"/>
    </contour>
  </outline>
</glyph>
<glyph name="bullet" format="2">
  <advance width="682"/>
  <unicode hex="2022"/>
  <outline>
    <contour>
      <point x="341" y="360" type="curve" smooth="yes"/>
      <point x="453" y="360"/>
      <point x="541" y="444"/>
      <point x="541" y="560" type="curve" smooth="yes"/>
      <point x="541" y="676"/>
      <point x="453" y="760"/>
      <point x="341" y="760" type="curve" smooth="yes"/>
      <point x="229" y="760"/>
      <point x="141" y="676"/>
      <point x="141" y="560" type="curve" smooth="yes"/>
      <point x="141" y="444"/>
      <point x="229" y="360"/>
    </contour>
  </outline>
</glyph>
<glyph name="perthousand" format="2">
  <advance width="2425"/>
  <unicode hex="2030"/>
  <outline>
    <contour>
      <point x="2004" y="-18" type="curve" smooth="yes"/>
      <point x="2183" y="-18"/>
      <point x="2309" y="104"/>
      <point x="2309" y="442" type="curve" smooth="yes"/>
      <point x="2309" y="780"/>
      <point x="2184" y="902"/>
      <point x="2004" y="902" type="curve" smooth="yes"/>
      <point x="1824" y="902"/>
      <point x="1699" y="780"/>
      <point x="1699" y="442" type="curve" smooth="yes"/>
      <point x="1699" y="104"/>
      <point x="1825" y="-18"/>
    </contour>
    <contour>
      <point x="2004" y="45" type="curve" smooth="yes"/>
      <point x="1863" y="45"/>
      <point x="1766" y="145"/>
      <point x="1766" y="444" type="curve" smooth="yes"/>
      <point x="1766" y="741"/>
      <point x="1863" y="839"/>
      <point x="2004" y="839" type="curve" smooth="yes"/>
      <point x="2145" y="839"/>
      <point x="2242" y="741"/>
      <point x="2242" y="440" type="curve" smooth="yes"/>
      <point x="2242" y="141"/>
      <point x="2145" y="45"/>
    </contour>
    <component base="percent"/>
  </outline>
</glyph>
<glyph name="guilsinglleft" format="2">
  <advance width="546"/>
  <unicode hex="2039"/>
  <outline>
    <contour>
      <point x="384" y="140" type="line"/>
      <point x="458" y="140" type="line"/>
      <point x="202" y="560" type="line"/>
      <point x="458" y="980" type="line"/>
      <point x="384" y="980" type="line"/>
      <point x="128" y="560" type="line"/>
    </contour>
  </outline>
</glyph>
<glyph name="guilsinglright" format="2">
  <advance width="546"/>
  <unicode hex="203A"/>
  <outline>
    <contour>
      <point x="88" y="140" type="line"/>
      <point x="162" y="140" type="line"/>
      <point x="418" y="560" type="line"/>
      <point x="162" y="980" type="line"/>
      <point x="88" y="980" type="line"/>
      <point x="344" y="560" type="line"/>
    </contour>
  </outline>
</glyph>
<glyph name="fraction" format="2">
  <advance width="223"/>
  <unicode hex="2044"/>
  <outline>
    <contour>
      <point x="-315" y="-136" type="line"/>
      <point x="-249" y="-136" type="line"/>
      <point x="538" y="1616" type="line"/>
      <point x="472" y="1616" type="line"/>
    </contour>
  </outline>
</glyph>
<glyph name="colonsign" format="2">
  <advance width="1101"/>
  <unicode hex="20A1"/>
  <outline>
    <contour>
      <point x="729" y="-18" type="curve" smooth="yes"/>
      <point x="846" y="-18"/>
      <point x="957" y="0"/>
      <point x="1065" y="39" type="curve"/>
      <point x="1065" y="107" type="line"/>
      <point x="934" y="62"/>
      <point x="835" y="48"/>
      <point x="729" y="48" type="curve" smooth="yes"/>
      <point x="389" y="48"/>
      <point x="190" y="225"/>
      <point x="190" y="742" type="curve" smooth="yes"/>
      <point x="190" y="1255"/>
      <point x="394" y="1432"/>
      <point x="740" y="1432" type="curve" smooth="yes"/>
      <point x="844" y="1432"/>
      <point x="950" y="1419"/>
      <point x="1065" y="1383" type="curve"/>
      <point x="1065" y="1451" type="line"/>
      <point x="957" y="1483"/>
      <point x="855" y="1498"/>
      <point x="743" y="1498" type="curve" smooth="yes"/>
      <point x="352" y="1498"/>
      <point x="118" y="1286"/>
      <point x="118" y="738" type="curve" smooth="yes"/>
      <point x="118" y="192"/>
      <point x="346" y="-18"/>
    </contour>
    <contour>
      <point x="318" y="158" type="line"/>
      <point x="272" y="220" type="line"/>
      <point x="128" y="-240" type="line"/>
      <point x="193" y="-240" type="line"/>
    </contour>
    <contour>
      <point x="539" y="35" type="line"/>
      <point x="480" y="54" type="line"/>
      <point x="388" y="-240" type="line"/>
      <point x="453" y="-240" type="line"/>
    </contour>
    <contour>
      <point x="656" y="1452" type="line"/>
      <point x="721" y="1452" type="line"/>
      <point x="805" y="1720" type="line"/>
      <point x="740" y="1720" type="line"/>
    </contour>
    <contour>
      <point x="916" y="1452" type="line"/>
      <point x="981" y="1452" type="line"/>
      <point x="1065" y="1720" type="line"/>
      <point x="1000" y="1720" type="line"/>
    </contour>
  </outline>
</glyph>
<glyph name="franc" format="2">
  <advance width="1198"/>
  <unicode hex="20A3"/>
  <outline>
    <contour>
      <point x="314" y="0" type="line"/>
      <point x="382" y="0" type="line"/>
      <point x="382" y="1414" type="line"/>
      <point x="1148" y="1414" type="line"/>
      <point x="1148" y="1480" type="line"/>
      <point x="314" y="1480" type="line"/>
    </contour>
    <contour>
      <point x="80" y="362" type="line"/>
      <point x="726" y="362" type="line"/>
      <point x="726" y="426" type="line"/>
      <point x="80" y="426" type="line"/>
    </contour>
    <contour>
      <point x="374" y="768" type="line"/>
      <point x="1053" y="768" type="line"/>
      <point x="1053" y="834" type="line"/>
      <point x="374" y="834" type="line"/>
    </contour>
  </outline>
</glyph>
